<mxfile host="65bd71144e">
    <diagram id="jBU8mXhem4PQHbv0cYXZ" name="use cases">
        <mxGraphModel dx="597" dy="490" grid="1" gridSize="10" guides="1" tooltips="1" connect="1" arrows="1" fold="1" page="1" pageScale="1" pageWidth="827" pageHeight="1169" background="none" math="0" shadow="0">
            <root>
                <mxCell id="0"/>
                <mxCell id="1" parent="0"/>
                <mxCell id="2" style="rounded=0;orthogonalLoop=1;jettySize=auto;html=1;entryX=0;entryY=0.5;entryDx=0;entryDy=0;endArrow=none;endFill=0;" parent="1" source="8" target="9" edge="1">
                    <mxGeometry relative="1" as="geometry"/>
                </mxCell>
                <mxCell id="3" style="edgeStyle=none;rounded=0;orthogonalLoop=1;jettySize=auto;html=1;entryX=0;entryY=0.5;entryDx=0;entryDy=0;endArrow=none;endFill=0;" parent="1" source="8" target="18" edge="1">
                    <mxGeometry relative="1" as="geometry"/>
                </mxCell>
                <mxCell id="4" style="edgeStyle=none;rounded=0;orthogonalLoop=1;jettySize=auto;html=1;entryX=0;entryY=0.5;entryDx=0;entryDy=0;endArrow=none;endFill=0;" parent="1" source="8" target="21" edge="1">
                    <mxGeometry relative="1" as="geometry"/>
                </mxCell>
                <mxCell id="5" style="edgeStyle=none;rounded=0;orthogonalLoop=1;jettySize=auto;html=1;entryX=0;entryY=0.5;entryDx=0;entryDy=0;endArrow=none;endFill=0;" parent="1" source="8" target="30" edge="1">
                    <mxGeometry relative="1" as="geometry"/>
                </mxCell>
                <mxCell id="6" style="edgeStyle=none;rounded=0;orthogonalLoop=1;jettySize=auto;html=1;entryX=0;entryY=0.5;entryDx=0;entryDy=0;endArrow=none;endFill=0;" parent="1" source="8" target="34" edge="1">
                    <mxGeometry relative="1" as="geometry"/>
                </mxCell>
                <mxCell id="7" style="edgeStyle=none;rounded=0;orthogonalLoop=1;jettySize=auto;html=1;entryX=0;entryY=0.5;entryDx=0;entryDy=0;endArrow=none;endFill=0;" parent="1" source="8" target="35" edge="1">
                    <mxGeometry relative="1" as="geometry"/>
                </mxCell>
                <mxCell id="8" value="Administrador" style="shape=umlActor;verticalLabelPosition=bottom;verticalAlign=top;html=1;" parent="1" vertex="1">
                    <mxGeometry x="110" y="281" width="30" height="60" as="geometry"/>
                </mxCell>
                <mxCell id="9" value="Crear proceso electoral" style="ellipse;whiteSpace=wrap;html=1;" parent="1" vertex="1">
                    <mxGeometry x="230" y="131" width="100" height="50" as="geometry"/>
                </mxCell>
                <mxCell id="10" style="rounded=0;orthogonalLoop=1;jettySize=auto;html=1;entryX=0;entryY=0.5;entryDx=0;entryDy=0;endArrow=none;endFill=0;" parent="1" source="12" target="16" edge="1">
                    <mxGeometry relative="1" as="geometry"/>
                </mxCell>
                <mxCell id="11" style="edgeStyle=none;rounded=0;orthogonalLoop=1;jettySize=auto;html=1;entryX=0;entryY=0.5;entryDx=0;entryDy=0;endArrow=none;endFill=0;" parent="1" source="12" target="37" edge="1">
                    <mxGeometry relative="1" as="geometry"/>
                </mxCell>
                <mxCell id="12" value="Presidente Junta" style="shape=umlActor;verticalLabelPosition=bottom;verticalAlign=top;html=1;" parent="1" vertex="1">
                    <mxGeometry x="110" y="641" width="30" height="60" as="geometry"/>
                </mxCell>
                <mxCell id="13" style="edgeStyle=none;rounded=0;orthogonalLoop=1;jettySize=auto;html=1;entryX=0;entryY=0.5;entryDx=0;entryDy=0;endArrow=none;endFill=0;" parent="1" source="15" target="17" edge="1">
                    <mxGeometry relative="1" as="geometry"/>
                </mxCell>
                <mxCell id="14" style="edgeStyle=none;rounded=0;orthogonalLoop=1;jettySize=auto;html=1;entryX=0;entryY=0.5;entryDx=0;entryDy=0;fontSize=16;endArrow=none;endFill=0;" parent="1" source="15" target="39" edge="1">
                    <mxGeometry relative="1" as="geometry"/>
                </mxCell>
                <mxCell id="15" value="Elector" style="shape=umlActor;verticalLabelPosition=bottom;verticalAlign=top;html=1;" parent="1" vertex="1">
                    <mxGeometry x="110" y="841" width="30" height="60" as="geometry"/>
                </mxCell>
                <mxCell id="16" value="Autorizar acceso al elector" style="ellipse;whiteSpace=wrap;html=1;" parent="1" vertex="1">
                    <mxGeometry x="240" y="691" width="100" height="50" as="geometry"/>
                </mxCell>
                <mxCell id="17" value="Registrar el voto" style="ellipse;whiteSpace=wrap;html=1;" parent="1" vertex="1">
                    <mxGeometry x="230" y="880" width="100" height="50" as="geometry"/>
                </mxCell>
                <mxCell id="18" value="Registrar instituciÃ³n" style="ellipse;whiteSpace=wrap;html=1;" parent="1" vertex="1">
                    <mxGeometry x="230" y="201" width="100" height="50" as="geometry"/>
                </mxCell>
                <mxCell id="19" style="edgeStyle=none;rounded=0;orthogonalLoop=1;jettySize=auto;html=1;entryX=0;entryY=0.5;entryDx=0;entryDy=0;endArrow=classic;endFill=1;dashed=1;" parent="1" source="21" target="24" edge="1">
                    <mxGeometry relative="1" as="geometry"/>
                </mxCell>
                <mxCell id="20" value="&amp;lt;&amp;lt;include&amp;gt;&amp;gt;" style="edgeLabel;html=1;align=center;verticalAlign=middle;resizable=0;points=[];" parent="19" connectable="0" vertex="1">
                    <mxGeometry x="-0.4" y="1" relative="1" as="geometry">
                        <mxPoint x="17" y="1" as="offset"/>
                    </mxGeometry>
                </mxCell>
                <mxCell id="21" value="Agregar juntas" style="ellipse;whiteSpace=wrap;html=1;" parent="1" vertex="1">
                    <mxGeometry x="230" y="271" width="100" height="50" as="geometry"/>
                </mxCell>
                <mxCell id="22" value="|" style="rounded=0;orthogonalLoop=1;jettySize=auto;html=1;entryX=0;entryY=0.5;entryDx=0;entryDy=0;endArrow=classic;endFill=1;dashed=1;" parent="1" source="24" target="36" edge="1">
                    <mxGeometry relative="1" as="geometry"/>
                </mxCell>
                <mxCell id="23" value="&amp;lt;&amp;lt;include&amp;gt;&amp;gt;" style="edgeLabel;html=1;align=center;verticalAlign=middle;resizable=0;points=[];" parent="22" connectable="0" vertex="1">
                    <mxGeometry x="-0.3743" y="1" relative="1" as="geometry">
                        <mxPoint as="offset"/>
                    </mxGeometry>
                </mxCell>
                <mxCell id="24" value="Subir datos de electores" style="ellipse;whiteSpace=wrap;html=1;" parent="1" vertex="1">
                    <mxGeometry x="440" y="221" width="110" height="60" as="geometry"/>
                </mxCell>
                <mxCell id="25" style="edgeStyle=none;rounded=0;orthogonalLoop=1;jettySize=auto;html=1;entryX=0;entryY=0.5;entryDx=0;entryDy=0;endArrow=classic;endFill=1;dashed=1;" parent="1" source="27" target="36" edge="1">
                    <mxGeometry relative="1" as="geometry"/>
                </mxCell>
                <mxCell id="26" value="&amp;lt;&amp;lt;include&amp;gt;&amp;gt;" style="edgeLabel;html=1;align=center;verticalAlign=middle;resizable=0;points=[];" parent="25" connectable="0" vertex="1">
                    <mxGeometry x="-0.2892" y="1" relative="1" as="geometry">
                        <mxPoint y="1" as="offset"/>
                    </mxGeometry>
                </mxCell>
                <mxCell id="27" value="Asignar miembros de Junta" style="ellipse;whiteSpace=wrap;html=1;" parent="1" vertex="1">
                    <mxGeometry x="440" y="301" width="110" height="60" as="geometry"/>
                </mxCell>
                <mxCell id="28" style="edgeStyle=none;rounded=0;orthogonalLoop=1;jettySize=auto;html=1;dashed=1;endArrow=classic;endFill=1;" parent="1" source="30" target="33" edge="1">
                    <mxGeometry relative="1" as="geometry"/>
                </mxCell>
                <mxCell id="29" value="&amp;lt;&amp;lt;include&amp;gt;&amp;gt;" style="edgeLabel;html=1;align=center;verticalAlign=middle;resizable=0;points=[];" parent="28" connectable="0" vertex="1">
                    <mxGeometry x="0.2545" relative="1" as="geometry">
                        <mxPoint as="offset"/>
                    </mxGeometry>
                </mxCell>
                <mxCell id="30" value="Crear listas" style="ellipse;whiteSpace=wrap;html=1;" parent="1" vertex="1">
                    <mxGeometry x="230" y="376" width="100" height="50" as="geometry"/>
                </mxCell>
                <mxCell id="31" style="edgeStyle=none;rounded=0;orthogonalLoop=1;jettySize=auto;html=1;entryX=0;entryY=0.5;entryDx=0;entryDy=0;endArrow=classic;endFill=1;dashed=1;" parent="1" target="27" edge="1">
                    <mxGeometry relative="1" as="geometry">
                        <mxPoint x="333.5787768562275" y="293.743469009186" as="sourcePoint"/>
                        <mxPoint x="450" y="261" as="targetPoint"/>
                    </mxGeometry>
                </mxCell>
                <mxCell id="32" value="&amp;lt;&amp;lt;include&amp;gt;&amp;gt;" style="edgeLabel;html=1;align=center;verticalAlign=middle;resizable=0;points=[];" parent="31" connectable="0" vertex="1">
                    <mxGeometry x="-0.4" y="1" relative="1" as="geometry">
                        <mxPoint x="17" y="1" as="offset"/>
                    </mxGeometry>
                </mxCell>
                <mxCell id="33" value="Asignar candidatos" style="ellipse;whiteSpace=wrap;html=1;" parent="1" vertex="1">
                    <mxGeometry x="440" y="371" width="110" height="60" as="geometry"/>
                </mxCell>
                <mxCell id="34" value="Iniciar proceso electoral" style="ellipse;whiteSpace=wrap;html=1;" parent="1" vertex="1">
                    <mxGeometry x="230" y="441" width="110" height="50" as="geometry"/>
                </mxCell>
                <mxCell id="35" value="Generar reporte de votaciÃ³n" style="ellipse;whiteSpace=wrap;html=1;" parent="1" vertex="1">
                    <mxGeometry x="230" y="511" width="110" height="50" as="geometry"/>
                </mxCell>
                <mxCell id="36" value="Crear cuenta de usuario" style="ellipse;whiteSpace=wrap;html=1;" parent="1" vertex="1">
                    <mxGeometry x="650" y="261" width="110" height="60" as="geometry"/>
                </mxCell>
                <mxCell id="37" value="Consultar padron electoral" style="ellipse;whiteSpace=wrap;html=1;" parent="1" vertex="1">
                    <mxGeometry x="240" y="611" width="100" height="50" as="geometry"/>
                </mxCell>
                <mxCell id="38" value="Diagrama de casos de uso" style="text;html=1;resizable=0;autosize=1;align=center;verticalAlign=middle;points=[];fillColor=none;strokeColor=none;rounded=0;fontStyle=1;fontSize=16;labelBackgroundColor=none;labelBorderColor=none;" parent="1" vertex="1">
                    <mxGeometry x="299" y="40" width="230" height="30" as="geometry"/>
                </mxCell>
                <mxCell id="39" value="Consultar padrÃ³n electoral" style="ellipse;whiteSpace=wrap;html=1;dashed=1;" parent="1" vertex="1">
                    <mxGeometry x="230" y="800" width="100" height="50" as="geometry"/>
                </mxCell>
            </root>
        </mxGraphModel>
    </diagram>
    <diagram name="clases" id="p6RGD8ICBd_ddX0EqgaH">
        <mxGraphModel dx="597" dy="490" grid="1" gridSize="10" guides="1" tooltips="1" connect="1" arrows="1" fold="1" page="0" pageScale="1" pageWidth="1169" pageHeight="827" math="0" shadow="0">
            <root>
                <mxCell id="0"/>
                <mxCell id="1" parent="0"/>
                <mxCell id="4k0hOsAJp9LJWznYcOZz-2" value="Institucion" style="swimlane;fontStyle=1;align=center;verticalAlign=top;childLayout=stackLayout;horizontal=1;startSize=26;horizontalStack=0;resizeParent=1;resizeParentMax=0;resizeLast=0;collapsible=1;marginBottom=0;labelBackgroundColor=none;fillColor=#B2C9AB;strokeColor=#788AA3;fontColor=#46495D;" parent="1" vertex="1">
                    <mxGeometry x="198" y="27" width="160" height="156" as="geometry">
                        <mxRectangle x="320" y="240" width="100" height="30" as="alternateBounds"/>
                    </mxGeometry>
                </mxCell>
                <mxCell id="4k0hOsAJp9LJWznYcOZz-3" value="+ nombre: string&#10;" style="text;strokeColor=none;fillColor=none;align=left;verticalAlign=top;spacingLeft=4;spacingRight=4;overflow=hidden;rotatable=0;points=[[0,0.5],[1,0.5]];portConstraint=eastwest;labelBackgroundColor=none;fontColor=#46495D;" parent="4k0hOsAJp9LJWznYcOZz-2" vertex="1">
                    <mxGeometry y="26" width="160" height="26" as="geometry"/>
                </mxCell>
                <mxCell id="Pk9DuPqDv3y3R8jweSVS-10" value="+ imagen: string&#10;" style="text;strokeColor=none;fillColor=none;align=left;verticalAlign=top;spacingLeft=4;spacingRight=4;overflow=hidden;rotatable=0;points=[[0,0.5],[1,0.5]];portConstraint=eastwest;labelBackgroundColor=none;fontColor=#46495D;" parent="4k0hOsAJp9LJWznYcOZz-2" vertex="1">
                    <mxGeometry y="52" width="160" height="26" as="geometry"/>
                </mxCell>
                <mxCell id="Pk9DuPqDv3y3R8jweSVS-11" value="+ provincia: string&#10;" style="text;strokeColor=none;fillColor=none;align=left;verticalAlign=top;spacingLeft=4;spacingRight=4;overflow=hidden;rotatable=0;points=[[0,0.5],[1,0.5]];portConstraint=eastwest;labelBackgroundColor=none;fontColor=#46495D;" parent="4k0hOsAJp9LJWznYcOZz-2" vertex="1">
                    <mxGeometry y="78" width="160" height="26" as="geometry"/>
                </mxCell>
                <mxCell id="Pk9DuPqDv3y3R8jweSVS-12" value="+ canton: string&#10;" style="text;strokeColor=none;fillColor=none;align=left;verticalAlign=top;spacingLeft=4;spacingRight=4;overflow=hidden;rotatable=0;points=[[0,0.5],[1,0.5]];portConstraint=eastwest;labelBackgroundColor=none;fontColor=#46495D;" parent="4k0hOsAJp9LJWznYcOZz-2" vertex="1">
                    <mxGeometry y="104" width="160" height="26" as="geometry"/>
                </mxCell>
                <mxCell id="Pk9DuPqDv3y3R8jweSVS-13" value="+ parroquia: string&#10;" style="text;strokeColor=none;fillColor=none;align=left;verticalAlign=top;spacingLeft=4;spacingRight=4;overflow=hidden;rotatable=0;points=[[0,0.5],[1,0.5]];portConstraint=eastwest;labelBackgroundColor=none;fontColor=#46495D;" parent="4k0hOsAJp9LJWznYcOZz-2" vertex="1">
                    <mxGeometry y="130" width="160" height="26" as="geometry"/>
                </mxCell>
                <mxCell id="G_bz5wAG5OBwp0_KvfoB-9" value="1:n" style="edgeStyle=orthogonalEdgeStyle;rounded=0;orthogonalLoop=1;jettySize=auto;html=1;entryX=0.5;entryY=0;entryDx=0;entryDy=0;endArrow=none;endFill=0;labelBackgroundColor=none;strokeColor=#788AA3;fontColor=default;" parent="1" source="Pk9DuPqDv3y3R8jweSVS-14" target="Pk9DuPqDv3y3R8jweSVS-24" edge="1">
                    <mxGeometry relative="1" as="geometry"/>
                </mxCell>
                <mxCell id="d8Pw1lFbGujmn-rhDYY3-14" style="edgeStyle=orthogonalEdgeStyle;rounded=0;orthogonalLoop=1;jettySize=auto;html=1;endArrow=none;endFill=0;labelBackgroundColor=none;strokeColor=#788AA3;fontColor=default;" parent="1" source="Pk9DuPqDv3y3R8jweSVS-14" target="d8Pw1lFbGujmn-rhDYY3-3" edge="1">
                    <mxGeometry relative="1" as="geometry"/>
                </mxCell>
                <mxCell id="d8Pw1lFbGujmn-rhDYY3-15" value="1:n" style="edgeLabel;html=1;align=center;verticalAlign=middle;resizable=0;points=[];labelBackgroundColor=none;fontColor=#46495D;" parent="d8Pw1lFbGujmn-rhDYY3-14" connectable="0" vertex="1">
                    <mxGeometry x="-0.1929" relative="1" as="geometry">
                        <mxPoint as="offset"/>
                    </mxGeometry>
                </mxCell>
                <mxCell id="Pk9DuPqDv3y3R8jweSVS-14" value="Junta" style="swimlane;fontStyle=1;align=center;verticalAlign=top;childLayout=stackLayout;horizontal=1;startSize=26;horizontalStack=0;resizeParent=1;resizeParentMax=0;resizeLast=0;collapsible=1;marginBottom=0;labelBackgroundColor=none;fillColor=#B2C9AB;strokeColor=#788AA3;fontColor=#46495D;" parent="1" vertex="1">
                    <mxGeometry x="650" y="165" width="160" height="78" as="geometry">
                        <mxRectangle x="320" y="240" width="100" height="30" as="alternateBounds"/>
                    </mxGeometry>
                </mxCell>
                <mxCell id="Pk9DuPqDv3y3R8jweSVS-15" value="+ numero: string&#10;" style="text;strokeColor=none;fillColor=none;align=left;verticalAlign=top;spacingLeft=4;spacingRight=4;overflow=hidden;rotatable=0;points=[[0,0.5],[1,0.5]];portConstraint=eastwest;labelBackgroundColor=none;fontColor=#46495D;" parent="Pk9DuPqDv3y3R8jweSVS-14" vertex="1">
                    <mxGeometry y="26" width="160" height="26" as="geometry"/>
                </mxCell>
                <mxCell id="d8Pw1lFbGujmn-rhDYY3-1" value="+ lugar: string&#10;" style="text;strokeColor=none;fillColor=none;align=left;verticalAlign=top;spacingLeft=4;spacingRight=4;overflow=hidden;rotatable=0;points=[[0,0.5],[1,0.5]];portConstraint=eastwest;labelBackgroundColor=none;fontColor=#46495D;" parent="Pk9DuPqDv3y3R8jweSVS-14" vertex="1">
                    <mxGeometry y="52" width="160" height="26" as="geometry"/>
                </mxCell>
                <mxCell id="d8Pw1lFbGujmn-rhDYY3-8" value="1:1" style="edgeStyle=orthogonalEdgeStyle;rounded=0;orthogonalLoop=1;jettySize=auto;html=1;entryX=0;entryY=0.5;entryDx=0;entryDy=0;endArrow=none;endFill=0;labelBackgroundColor=none;strokeColor=#788AA3;fontColor=default;" parent="1" source="Pk9DuPqDv3y3R8jweSVS-24" target="MMPZoR6ppOT3h4-SGP8C-1" edge="1">
                    <mxGeometry relative="1" as="geometry"/>
                </mxCell>
                <mxCell id="KvWg0IzsGtRxcYyShQ6M-1" style="edgeStyle=orthogonalEdgeStyle;rounded=0;orthogonalLoop=1;jettySize=auto;html=1;entryX=1;entryY=0.5;entryDx=0;entryDy=0;labelBackgroundColor=none;strokeColor=#788AA3;fontColor=default;" parent="1" source="Pk9DuPqDv3y3R8jweSVS-24" target="RQJIIDEqHz2VKmJ_x-dK-1" edge="1">
                    <mxGeometry relative="1" as="geometry"/>
                </mxCell>
                <mxCell id="Pk9DuPqDv3y3R8jweSVS-24" value="Elector" style="swimlane;fontStyle=1;align=center;verticalAlign=top;childLayout=stackLayout;horizontal=1;startSize=26;horizontalStack=0;resizeParent=1;resizeParentMax=0;resizeLast=0;collapsible=1;marginBottom=0;labelBackgroundColor=none;fillColor=#B2C9AB;strokeColor=#788AA3;fontColor=#46495D;" parent="1" vertex="1">
                    <mxGeometry x="650" y="340" width="160" height="130" as="geometry">
                        <mxRectangle x="320" y="240" width="100" height="30" as="alternateBounds"/>
                    </mxGeometry>
                </mxCell>
                <mxCell id="Pk9DuPqDv3y3R8jweSVS-25" value="+ cedula: string&#10;" style="text;strokeColor=none;fillColor=none;align=left;verticalAlign=top;spacingLeft=4;spacingRight=4;overflow=hidden;rotatable=0;points=[[0,0.5],[1,0.5]];portConstraint=eastwest;labelBackgroundColor=none;fontColor=#46495D;" parent="Pk9DuPqDv3y3R8jweSVS-24" vertex="1">
                    <mxGeometry y="26" width="160" height="26" as="geometry"/>
                </mxCell>
                <mxCell id="Pk9DuPqDv3y3R8jweSVS-26" value="+ nombres: string&#10;" style="text;strokeColor=none;fillColor=none;align=left;verticalAlign=top;spacingLeft=4;spacingRight=4;overflow=hidden;rotatable=0;points=[[0,0.5],[1,0.5]];portConstraint=eastwest;labelBackgroundColor=none;fontColor=#46495D;" parent="Pk9DuPqDv3y3R8jweSVS-24" vertex="1">
                    <mxGeometry y="52" width="160" height="26" as="geometry"/>
                </mxCell>
                <mxCell id="Pk9DuPqDv3y3R8jweSVS-27" value="+ apellidos: string&#10;" style="text;strokeColor=none;fillColor=none;align=left;verticalAlign=top;spacingLeft=4;spacingRight=4;overflow=hidden;rotatable=0;points=[[0,0.5],[1,0.5]];portConstraint=eastwest;labelBackgroundColor=none;fontColor=#46495D;" parent="Pk9DuPqDv3y3R8jweSVS-24" vertex="1">
                    <mxGeometry y="78" width="160" height="26" as="geometry"/>
                </mxCell>
                <mxCell id="MMPZoR6ppOT3h4-SGP8C-3" value="+ ejercioVoto: boolean&#10;" style="text;strokeColor=none;fillColor=none;align=left;verticalAlign=top;spacingLeft=4;spacingRight=4;overflow=hidden;rotatable=0;points=[[0,0.5],[1,0.5]];portConstraint=eastwest;labelBackgroundColor=none;fontColor=#46495D;" parent="Pk9DuPqDv3y3R8jweSVS-24" vertex="1">
                    <mxGeometry y="104" width="160" height="26" as="geometry"/>
                </mxCell>
                <mxCell id="G_bz5wAG5OBwp0_KvfoB-1" style="edgeStyle=orthogonalEdgeStyle;rounded=0;orthogonalLoop=1;jettySize=auto;html=1;endArrow=none;endFill=0;entryX=0.444;entryY=1.038;entryDx=0;entryDy=0;entryPerimeter=0;exitX=0;exitY=0.5;exitDx=0;exitDy=0;labelBackgroundColor=none;strokeColor=#788AA3;fontColor=default;" parent="1" source="Pk9DuPqDv3y3R8jweSVS-30" target="Pk9DuPqDv3y3R8jweSVS-13" edge="1">
                    <mxGeometry relative="1" as="geometry">
                        <mxPoint x="240" y="180" as="targetPoint"/>
                    </mxGeometry>
                </mxCell>
                <mxCell id="G_bz5wAG5OBwp0_KvfoB-2" value="1:1" style="edgeLabel;html=1;align=center;verticalAlign=middle;resizable=0;points=[];labelBackgroundColor=none;fontColor=#46495D;" parent="G_bz5wAG5OBwp0_KvfoB-1" connectable="0" vertex="1">
                    <mxGeometry x="-0.1381" relative="1" as="geometry">
                        <mxPoint as="offset"/>
                    </mxGeometry>
                </mxCell>
                <mxCell id="G_bz5wAG5OBwp0_KvfoB-3" value="1:n" style="edgeStyle=orthogonalEdgeStyle;rounded=0;orthogonalLoop=1;jettySize=auto;html=1;endArrow=none;endFill=0;entryX=0;entryY=0.5;entryDx=0;entryDy=0;labelBackgroundColor=none;strokeColor=#788AA3;fontColor=default;" parent="1" source="Pk9DuPqDv3y3R8jweSVS-28" edge="1">
                    <mxGeometry relative="1" as="geometry">
                        <mxPoint x="650" y="205" as="targetPoint"/>
                    </mxGeometry>
                </mxCell>
                <mxCell id="G_bz5wAG5OBwp0_KvfoB-4" value="1:n" style="edgeStyle=orthogonalEdgeStyle;rounded=0;orthogonalLoop=1;jettySize=auto;html=1;entryX=0.5;entryY=0;entryDx=0;entryDy=0;endArrow=none;endFill=0;labelBackgroundColor=none;strokeColor=#788AA3;fontColor=default;" parent="1" source="Pk9DuPqDv3y3R8jweSVS-28" target="Pk9DuPqDv3y3R8jweSVS-40" edge="1">
                    <mxGeometry relative="1" as="geometry"/>
                </mxCell>
                <mxCell id="Pk9DuPqDv3y3R8jweSVS-28" value="ProcesoElectoral" style="swimlane;fontStyle=1;align=center;verticalAlign=top;childLayout=stackLayout;horizontal=1;startSize=26;horizontalStack=0;resizeParent=1;resizeParentMax=0;resizeLast=0;collapsible=1;marginBottom=0;labelBackgroundColor=none;fillColor=#B2C9AB;strokeColor=#788AA3;fontColor=#46495D;" parent="1" vertex="1">
                    <mxGeometry x="400" y="140" width="160" height="156" as="geometry">
                        <mxRectangle x="320" y="240" width="100" height="30" as="alternateBounds"/>
                    </mxGeometry>
                </mxCell>
                <mxCell id="Pk9DuPqDv3y3R8jweSVS-29" value="+ fecha: date&#10;" style="text;strokeColor=none;fillColor=none;align=left;verticalAlign=top;spacingLeft=4;spacingRight=4;overflow=hidden;rotatable=0;points=[[0,0.5],[1,0.5]];portConstraint=eastwest;labelBackgroundColor=none;fontColor=#46495D;" parent="Pk9DuPqDv3y3R8jweSVS-28" vertex="1">
                    <mxGeometry y="26" width="160" height="26" as="geometry"/>
                </mxCell>
                <mxCell id="Pk9DuPqDv3y3R8jweSVS-30" value="+ horaInicio: date&#10;" style="text;strokeColor=none;fillColor=none;align=left;verticalAlign=top;spacingLeft=4;spacingRight=4;overflow=hidden;rotatable=0;points=[[0,0.5],[1,0.5]];portConstraint=eastwest;labelBackgroundColor=none;fontColor=#46495D;" parent="Pk9DuPqDv3y3R8jweSVS-28" vertex="1">
                    <mxGeometry y="52" width="160" height="26" as="geometry"/>
                </mxCell>
                <mxCell id="Pk9DuPqDv3y3R8jweSVS-31" value="+ horaCierre: date&#10;" style="text;strokeColor=none;fillColor=none;align=left;verticalAlign=top;spacingLeft=4;spacingRight=4;overflow=hidden;rotatable=0;points=[[0,0.5],[1,0.5]];portConstraint=eastwest;labelBackgroundColor=none;fontColor=#46495D;" parent="Pk9DuPqDv3y3R8jweSVS-28" vertex="1">
                    <mxGeometry y="78" width="160" height="26" as="geometry"/>
                </mxCell>
                <mxCell id="Pk9DuPqDv3y3R8jweSVS-32" value="+ nombre: string&#10;" style="text;strokeColor=none;fillColor=none;align=left;verticalAlign=top;spacingLeft=4;spacingRight=4;overflow=hidden;rotatable=0;points=[[0,0.5],[1,0.5]];portConstraint=eastwest;labelBackgroundColor=none;fontColor=#46495D;" parent="Pk9DuPqDv3y3R8jweSVS-28" vertex="1">
                    <mxGeometry y="104" width="160" height="26" as="geometry"/>
                </mxCell>
                <mxCell id="vDaeJzLCqmgXVqIeNH6u-1" value="+ periodo: string&#10;" style="text;strokeColor=none;fillColor=none;align=left;verticalAlign=top;spacingLeft=4;spacingRight=4;overflow=hidden;rotatable=0;points=[[0,0.5],[1,0.5]];portConstraint=eastwest;labelBackgroundColor=none;fontColor=#46495D;" parent="Pk9DuPqDv3y3R8jweSVS-28" vertex="1">
                    <mxGeometry y="130" width="160" height="26" as="geometry"/>
                </mxCell>
                <mxCell id="Pk9DuPqDv3y3R8jweSVS-36" value="Candidato" style="swimlane;fontStyle=1;align=center;verticalAlign=top;childLayout=stackLayout;horizontal=1;startSize=26;horizontalStack=0;resizeParent=1;resizeParentMax=0;resizeLast=0;collapsible=1;marginBottom=0;labelBackgroundColor=none;fillColor=#B2C9AB;strokeColor=#788AA3;fontColor=#46495D;" parent="1" vertex="1">
                    <mxGeometry x="172" y="324" width="160" height="104" as="geometry">
                        <mxRectangle x="320" y="240" width="100" height="30" as="alternateBounds"/>
                    </mxGeometry>
                </mxCell>
                <mxCell id="Pk9DuPqDv3y3R8jweSVS-39" value="+ nombres: string&#10;" style="text;strokeColor=none;fillColor=none;align=left;verticalAlign=top;spacingLeft=4;spacingRight=4;overflow=hidden;rotatable=0;points=[[0,0.5],[1,0.5]];portConstraint=eastwest;labelBackgroundColor=none;fontColor=#46495D;" parent="Pk9DuPqDv3y3R8jweSVS-36" vertex="1">
                    <mxGeometry y="26" width="160" height="26" as="geometry"/>
                </mxCell>
                <mxCell id="Pk9DuPqDv3y3R8jweSVS-48" value="+ dignidad: string&#10;" style="text;strokeColor=none;fillColor=none;align=left;verticalAlign=top;spacingLeft=4;spacingRight=4;overflow=hidden;rotatable=0;points=[[0,0.5],[1,0.5]];portConstraint=eastwest;labelBackgroundColor=none;fontColor=#46495D;" parent="Pk9DuPqDv3y3R8jweSVS-36" vertex="1">
                    <mxGeometry y="52" width="160" height="26" as="geometry"/>
                </mxCell>
                <mxCell id="Pk9DuPqDv3y3R8jweSVS-49" value="+ foto: string&#10;" style="text;strokeColor=none;fillColor=none;align=left;verticalAlign=top;spacingLeft=4;spacingRight=4;overflow=hidden;rotatable=0;points=[[0,0.5],[1,0.5]];portConstraint=eastwest;labelBackgroundColor=none;fontColor=#46495D;" parent="Pk9DuPqDv3y3R8jweSVS-36" vertex="1">
                    <mxGeometry y="78" width="160" height="26" as="geometry"/>
                </mxCell>
                <mxCell id="G_bz5wAG5OBwp0_KvfoB-8" value="n:1" style="edgeStyle=orthogonalEdgeStyle;rounded=0;orthogonalLoop=1;jettySize=auto;html=1;entryX=1;entryY=0.5;entryDx=0;entryDy=0;endArrow=none;endFill=0;labelBackgroundColor=none;strokeColor=#788AA3;fontColor=default;" parent="1" source="Pk9DuPqDv3y3R8jweSVS-40" target="Pk9DuPqDv3y3R8jweSVS-48" edge="1">
                    <mxGeometry relative="1" as="geometry"/>
                </mxCell>
                <mxCell id="d8Pw1lFbGujmn-rhDYY3-13" style="edgeStyle=orthogonalEdgeStyle;rounded=0;orthogonalLoop=1;jettySize=auto;html=1;entryX=0;entryY=0.5;entryDx=0;entryDy=0;endArrow=none;endFill=0;labelBackgroundColor=none;strokeColor=#788AA3;fontColor=default;" parent="1" source="Pk9DuPqDv3y3R8jweSVS-40" target="Pk9DuPqDv3y3R8jweSVS-43" edge="1">
                    <mxGeometry relative="1" as="geometry"/>
                </mxCell>
                <mxCell id="5_14cNpBKl44LzXG5xXd-3" value="1:1" style="edgeLabel;html=1;align=center;verticalAlign=middle;resizable=0;points=[];labelBackgroundColor=none;fontColor=#46495D;" parent="d8Pw1lFbGujmn-rhDYY3-13" connectable="0" vertex="1">
                    <mxGeometry x="-0.4083" y="-2" relative="1" as="geometry">
                        <mxPoint as="offset"/>
                    </mxGeometry>
                </mxCell>
                <mxCell id="Pk9DuPqDv3y3R8jweSVS-40" value="Lista" style="swimlane;fontStyle=1;align=center;verticalAlign=top;childLayout=stackLayout;horizontal=1;startSize=26;horizontalStack=0;resizeParent=1;resizeParentMax=0;resizeLast=0;collapsible=1;marginBottom=0;labelBackgroundColor=none;fillColor=#B2C9AB;strokeColor=#788AA3;fontColor=#46495D;" parent="1" vertex="1">
                    <mxGeometry x="400" y="350" width="160" height="78" as="geometry">
                        <mxRectangle x="320" y="240" width="100" height="30" as="alternateBounds"/>
                    </mxGeometry>
                </mxCell>
                <mxCell id="Pk9DuPqDv3y3R8jweSVS-41" value="+ nombre: string&#10;" style="text;strokeColor=none;fillColor=none;align=left;verticalAlign=top;spacingLeft=4;spacingRight=4;overflow=hidden;rotatable=0;points=[[0,0.5],[1,0.5]];portConstraint=eastwest;labelBackgroundColor=none;fontColor=#46495D;" parent="Pk9DuPqDv3y3R8jweSVS-40" vertex="1">
                    <mxGeometry y="26" width="160" height="26" as="geometry"/>
                </mxCell>
                <mxCell id="Pk9DuPqDv3y3R8jweSVS-46" value="+ color: string&#10;" style="text;strokeColor=none;fillColor=none;align=left;verticalAlign=top;spacingLeft=4;spacingRight=4;overflow=hidden;rotatable=0;points=[[0,0.5],[1,0.5]];portConstraint=eastwest;labelBackgroundColor=none;fontColor=#46495D;" parent="Pk9DuPqDv3y3R8jweSVS-40" vertex="1">
                    <mxGeometry y="52" width="160" height="26" as="geometry"/>
                </mxCell>
                <mxCell id="Pk9DuPqDv3y3R8jweSVS-42" value="Voto" style="swimlane;fontStyle=1;align=center;verticalAlign=top;childLayout=stackLayout;horizontal=1;startSize=26;horizontalStack=0;resizeParent=1;resizeParentMax=0;resizeLast=0;collapsible=1;marginBottom=0;labelBackgroundColor=none;fillColor=#B2C9AB;strokeColor=#788AA3;fontColor=#46495D;" parent="1" vertex="1">
                    <mxGeometry x="525" y="530" width="160" height="78" as="geometry">
                        <mxRectangle x="320" y="240" width="100" height="30" as="alternateBounds"/>
                    </mxGeometry>
                </mxCell>
                <mxCell id="Pk9DuPqDv3y3R8jweSVS-43" value="- opcion: string&#10;" style="text;strokeColor=none;fillColor=none;align=left;verticalAlign=top;spacingLeft=4;spacingRight=4;overflow=hidden;rotatable=0;points=[[0,0.5],[1,0.5]];portConstraint=eastwest;labelBackgroundColor=none;fontColor=#46495D;" parent="Pk9DuPqDv3y3R8jweSVS-42" vertex="1">
                    <mxGeometry y="26" width="160" height="26" as="geometry"/>
                </mxCell>
                <mxCell id="RQJIIDEqHz2VKmJ_x-dK-1" value="- hora: date&#10;" style="text;strokeColor=none;fillColor=none;align=left;verticalAlign=top;spacingLeft=4;spacingRight=4;overflow=hidden;rotatable=0;points=[[0,0.5],[1,0.5]];portConstraint=eastwest;labelBackgroundColor=none;fontColor=#46495D;" parent="Pk9DuPqDv3y3R8jweSVS-42" vertex="1">
                    <mxGeometry y="52" width="160" height="26" as="geometry"/>
                </mxCell>
                <mxCell id="Pk9DuPqDv3y3R8jweSVS-44" value="Usuario" style="swimlane;fontStyle=1;align=center;verticalAlign=top;childLayout=stackLayout;horizontal=1;startSize=26;horizontalStack=0;resizeParent=1;resizeParentMax=0;resizeLast=0;collapsible=1;marginBottom=0;labelBackgroundColor=none;fillColor=#B2C9AB;strokeColor=#788AA3;fontColor=#46495D;" parent="1" vertex="1">
                    <mxGeometry x="890" y="340" width="160" height="130" as="geometry">
                        <mxRectangle x="320" y="240" width="100" height="30" as="alternateBounds"/>
                    </mxGeometry>
                </mxCell>
                <mxCell id="Pk9DuPqDv3y3R8jweSVS-45" value="+ username: string&#10;" style="text;strokeColor=none;fillColor=none;align=left;verticalAlign=top;spacingLeft=4;spacingRight=4;overflow=hidden;rotatable=0;points=[[0,0.5],[1,0.5]];portConstraint=eastwest;labelBackgroundColor=none;fontColor=#46495D;" parent="Pk9DuPqDv3y3R8jweSVS-44" vertex="1">
                    <mxGeometry y="26" width="160" height="26" as="geometry"/>
                </mxCell>
                <mxCell id="MMPZoR6ppOT3h4-SGP8C-1" value="+ password: string&#10;" style="text;strokeColor=none;fillColor=none;align=left;verticalAlign=top;spacingLeft=4;spacingRight=4;overflow=hidden;rotatable=0;points=[[0,0.5],[1,0.5]];portConstraint=eastwest;labelBackgroundColor=none;fontColor=#46495D;" parent="Pk9DuPqDv3y3R8jweSVS-44" vertex="1">
                    <mxGeometry y="52" width="160" height="26" as="geometry"/>
                </mxCell>
                <mxCell id="MMPZoR6ppOT3h4-SGP8C-2" value="+ rol: string&#10;" style="text;strokeColor=none;fillColor=none;align=left;verticalAlign=top;spacingLeft=4;spacingRight=4;overflow=hidden;rotatable=0;points=[[0,0.5],[1,0.5]];portConstraint=eastwest;labelBackgroundColor=none;fontColor=#46495D;" parent="Pk9DuPqDv3y3R8jweSVS-44" vertex="1">
                    <mxGeometry y="78" width="160" height="26" as="geometry"/>
                </mxCell>
                <mxCell id="MMPZoR6ppOT3h4-SGP8C-4" value="+ habilitado: boolean&#10;" style="text;strokeColor=none;fillColor=none;align=left;verticalAlign=top;spacingLeft=4;spacingRight=4;overflow=hidden;rotatable=0;points=[[0,0.5],[1,0.5]];portConstraint=eastwest;labelBackgroundColor=none;fontColor=#46495D;" parent="Pk9DuPqDv3y3R8jweSVS-44" vertex="1">
                    <mxGeometry y="104" width="160" height="26" as="geometry"/>
                </mxCell>
                <mxCell id="d8Pw1lFbGujmn-rhDYY3-10" style="edgeStyle=orthogonalEdgeStyle;rounded=0;orthogonalLoop=1;jettySize=auto;html=1;entryX=0.5;entryY=0;entryDx=0;entryDy=0;endArrow=none;endFill=0;labelBackgroundColor=none;strokeColor=#788AA3;fontColor=default;" parent="1" source="d8Pw1lFbGujmn-rhDYY3-2" target="Pk9DuPqDv3y3R8jweSVS-44" edge="1">
                    <mxGeometry relative="1" as="geometry"/>
                </mxCell>
                <mxCell id="d8Pw1lFbGujmn-rhDYY3-11" value="1:1" style="edgeLabel;html=1;align=center;verticalAlign=middle;resizable=0;points=[];labelBackgroundColor=none;fontColor=#46495D;" parent="d8Pw1lFbGujmn-rhDYY3-10" connectable="0" vertex="1">
                    <mxGeometry x="-0.2" relative="1" as="geometry">
                        <mxPoint as="offset"/>
                    </mxGeometry>
                </mxCell>
                <mxCell id="d8Pw1lFbGujmn-rhDYY3-2" value="MJRV" style="swimlane;fontStyle=1;align=center;verticalAlign=top;childLayout=stackLayout;horizontal=1;startSize=26;horizontalStack=0;resizeParent=1;resizeParentMax=0;resizeLast=0;collapsible=1;marginBottom=0;labelBackgroundColor=none;fillColor=#B2C9AB;strokeColor=#788AA3;fontColor=#46495D;" parent="1" vertex="1">
                    <mxGeometry x="890" y="140" width="160" height="130" as="geometry">
                        <mxRectangle x="320" y="240" width="100" height="30" as="alternateBounds"/>
                    </mxGeometry>
                </mxCell>
                <mxCell id="d8Pw1lFbGujmn-rhDYY3-3" value="+ nombres: string&#10;" style="text;strokeColor=none;fillColor=none;align=left;verticalAlign=top;spacingLeft=4;spacingRight=4;overflow=hidden;rotatable=0;points=[[0,0.5],[1,0.5]];portConstraint=eastwest;labelBackgroundColor=none;fontColor=#46495D;" parent="d8Pw1lFbGujmn-rhDYY3-2" vertex="1">
                    <mxGeometry y="26" width="160" height="26" as="geometry"/>
                </mxCell>
                <mxCell id="d8Pw1lFbGujmn-rhDYY3-4" value="+ apellidos: string&#10;" style="text;strokeColor=none;fillColor=none;align=left;verticalAlign=top;spacingLeft=4;spacingRight=4;overflow=hidden;rotatable=0;points=[[0,0.5],[1,0.5]];portConstraint=eastwest;labelBackgroundColor=none;fontColor=#46495D;" parent="d8Pw1lFbGujmn-rhDYY3-2" vertex="1">
                    <mxGeometry y="52" width="160" height="26" as="geometry"/>
                </mxCell>
                <mxCell id="d8Pw1lFbGujmn-rhDYY3-5" value="+ cedula: string&#10;" style="text;strokeColor=none;fillColor=none;align=left;verticalAlign=top;spacingLeft=4;spacingRight=4;overflow=hidden;rotatable=0;points=[[0,0.5],[1,0.5]];portConstraint=eastwest;labelBackgroundColor=none;fontColor=#46495D;" parent="d8Pw1lFbGujmn-rhDYY3-2" vertex="1">
                    <mxGeometry y="78" width="160" height="26" as="geometry"/>
                </mxCell>
                <mxCell id="d8Pw1lFbGujmn-rhDYY3-6" value="+ cargo: string&#10;" style="text;strokeColor=none;fillColor=none;align=left;verticalAlign=top;spacingLeft=4;spacingRight=4;overflow=hidden;rotatable=0;points=[[0,0.5],[1,0.5]];portConstraint=eastwest;labelBackgroundColor=none;fontColor=#46495D;" parent="d8Pw1lFbGujmn-rhDYY3-2" vertex="1">
                    <mxGeometry y="104" width="160" height="26" as="geometry"/>
                </mxCell>
            </root>
        </mxGraphModel>
    </diagram>
    <diagram name="mockup" id="ki6MNZQpjL6kt-MkWq2P">
        <mxGraphModel dx="3797" dy="1690" grid="1" gridSize="10" guides="1" tooltips="1" connect="1" arrows="1" fold="1" page="0" pageScale="1" pageWidth="850" pageHeight="1100" math="0" shadow="0">
            <root>
                <mxCell id="0"/>
                <mxCell id="1" parent="0"/>
                <mxCell id="UeCp2wGlSj6ZTSUq-_AD-1" value="" style="strokeWidth=1;shadow=0;dashed=0;align=center;html=1;shape=mxgraph.mockup.containers.browserWindow;rSize=0;strokeColor=#666666;strokeColor2=#008cff;strokeColor3=#c4c4c4;mainText=,;recursiveResize=0;" parent="1" vertex="1">
                    <mxGeometry x="-3070" y="-640" width="700" height="470" as="geometry"/>
                </mxCell>
                <mxCell id="UeCp2wGlSj6ZTSUq-_AD-2" value="Auth Login" style="strokeWidth=1;shadow=0;dashed=0;align=center;html=1;shape=mxgraph.mockup.containers.anchor;fontSize=17;fontColor=#666666;align=left;" parent="UeCp2wGlSj6ZTSUq-_AD-1" vertex="1">
                    <mxGeometry x="60" y="12" width="110" height="26" as="geometry"/>
                </mxCell>
                <mxCell id="UeCp2wGlSj6ZTSUq-_AD-3" value="https://www.vote.com" style="strokeWidth=1;shadow=0;dashed=0;align=center;html=1;shape=mxgraph.mockup.containers.anchor;rSize=0;fontSize=17;fontColor=#666666;align=left;" parent="UeCp2wGlSj6ZTSUq-_AD-1" vertex="1">
                    <mxGeometry x="130" y="60" width="250" height="26" as="geometry"/>
                </mxCell>
                <mxCell id="UeCp2wGlSj6ZTSUq-_AD-4" value="" style="strokeWidth=1;shadow=0;dashed=0;align=center;html=1;shape=mxgraph.mockup.forms.rrect;rSize=0;strokeColor=#999999;fillColor=#ffffff;" parent="UeCp2wGlSj6ZTSUq-_AD-1" vertex="1">
                    <mxGeometry x="220" y="130" width="200" height="300" as="geometry"/>
                </mxCell>
                <mxCell id="UeCp2wGlSj6ZTSUq-_AD-5" value="LOGIN" style="strokeWidth=1;shadow=0;dashed=0;align=center;html=1;shape=mxgraph.mockup.forms.anchor;fontSize=12;fontColor=#666666;align=left;resizeWidth=1;spacingLeft=0;" parent="UeCp2wGlSj6ZTSUq-_AD-4" vertex="1">
                    <mxGeometry width="100" height="20" relative="1" as="geometry">
                        <mxPoint x="10" y="10" as="offset"/>
                    </mxGeometry>
                </mxCell>
                <mxCell id="UeCp2wGlSj6ZTSUq-_AD-6" value="" style="shape=line;strokeColor=#ddeeff;strokeWidth=2;html=1;resizeWidth=1;" parent="UeCp2wGlSj6ZTSUq-_AD-4" vertex="1">
                    <mxGeometry width="180" height="10" relative="1" as="geometry">
                        <mxPoint x="10" y="30" as="offset"/>
                    </mxGeometry>
                </mxCell>
                <mxCell id="UeCp2wGlSj6ZTSUq-_AD-7" value="Nombre de usuario" style="strokeWidth=1;shadow=0;dashed=0;align=center;html=1;shape=mxgraph.mockup.forms.anchor;fontSize=12;fontColor=#666666;align=left;resizeWidth=1;spacingLeft=0;" parent="UeCp2wGlSj6ZTSUq-_AD-4" vertex="1">
                    <mxGeometry width="100" height="20" relative="1" as="geometry">
                        <mxPoint x="10" y="40" as="offset"/>
                    </mxGeometry>
                </mxCell>
                <mxCell id="UeCp2wGlSj6ZTSUq-_AD-8" value="0401798475" style="strokeWidth=1;shadow=0;dashed=0;align=center;html=1;shape=mxgraph.mockup.forms.rrect;rSize=0;strokeColor=#999999;fontColor=#666666;align=left;spacingLeft=5;resizeWidth=1;" parent="UeCp2wGlSj6ZTSUq-_AD-4" vertex="1">
                    <mxGeometry width="150" height="25" relative="1" as="geometry">
                        <mxPoint x="10" y="60" as="offset"/>
                    </mxGeometry>
                </mxCell>
                <mxCell id="UeCp2wGlSj6ZTSUq-_AD-9" value="ContraseÃ±a" style="strokeWidth=1;shadow=0;dashed=0;align=center;html=1;shape=mxgraph.mockup.forms.anchor;fontSize=12;fontColor=#666666;align=left;resizeWidth=1;spacingLeft=0;" parent="UeCp2wGlSj6ZTSUq-_AD-4" vertex="1">
                    <mxGeometry width="100" height="20" relative="1" as="geometry">
                        <mxPoint x="10" y="95" as="offset"/>
                    </mxGeometry>
                </mxCell>
                <mxCell id="UeCp2wGlSj6ZTSUq-_AD-10" value="********" style="strokeWidth=1;shadow=0;dashed=0;align=center;html=1;shape=mxgraph.mockup.forms.rrect;rSize=0;strokeColor=#999999;fontColor=#666666;align=left;spacingLeft=5;resizeWidth=1;" parent="UeCp2wGlSj6ZTSUq-_AD-4" vertex="1">
                    <mxGeometry width="150" height="25" relative="1" as="geometry">
                        <mxPoint x="10" y="115" as="offset"/>
                    </mxGeometry>
                </mxCell>
                <mxCell id="UeCp2wGlSj6ZTSUq-_AD-11" value="LOGIN" style="strokeWidth=1;shadow=0;dashed=0;align=center;html=1;shape=mxgraph.mockup.forms.rrect;rSize=5;strokeColor=none;fontColor=#ffffff;fillColor=#66bbff;fontSize=16;fontStyle=1;" parent="UeCp2wGlSj6ZTSUq-_AD-4" vertex="1">
                    <mxGeometry y="1" width="80" height="30" relative="1" as="geometry">
                        <mxPoint x="20" y="-150" as="offset"/>
                    </mxGeometry>
                </mxCell>
                <mxCell id="UeCp2wGlSj6ZTSUq-_AD-12" value="Olvido su contraseÃ±a?" style="strokeWidth=1;shadow=0;dashed=0;align=center;html=1;shape=mxgraph.mockup.forms.anchor;fontSize=12;fontColor=#9999ff;align=left;spacingLeft=0;fontStyle=4;resizeWidth=1;" parent="UeCp2wGlSj6ZTSUq-_AD-4" vertex="1">
                    <mxGeometry y="1" width="150" height="20" relative="1" as="geometry">
                        <mxPoint x="10" y="-110" as="offset"/>
                    </mxGeometry>
                </mxCell>
                <mxCell id="UeCp2wGlSj6ZTSUq-_AD-13" value="" style="shape=line;strokeColor=#ddeeff;strokeWidth=2;html=1;resizeWidth=1;" parent="UeCp2wGlSj6ZTSUq-_AD-4" vertex="1">
                    <mxGeometry y="1" width="180" height="10" relative="1" as="geometry">
                        <mxPoint x="10" y="-90" as="offset"/>
                    </mxGeometry>
                </mxCell>
                <mxCell id="sn550D5Megs59wpo9OzC-1" value="" style="strokeWidth=1;shadow=0;dashed=0;align=center;html=1;shape=mxgraph.mockup.containers.browserWindow;rSize=0;strokeColor=#666666;strokeColor2=#008cff;strokeColor3=#c4c4c4;mainText=,;recursiveResize=0;" parent="1" vertex="1">
                    <mxGeometry x="-2330" y="-640" width="700" height="470" as="geometry"/>
                </mxCell>
                <mxCell id="sn550D5Megs59wpo9OzC-2" value="Inicio" style="strokeWidth=1;shadow=0;dashed=0;align=center;html=1;shape=mxgraph.mockup.containers.anchor;fontSize=17;fontColor=#666666;align=left;" parent="sn550D5Megs59wpo9OzC-1" vertex="1">
                    <mxGeometry x="60" y="12" width="110" height="26" as="geometry"/>
                </mxCell>
                <mxCell id="sn550D5Megs59wpo9OzC-3" value="https://www.inicio.com/admin" style="strokeWidth=1;shadow=0;dashed=0;align=center;html=1;shape=mxgraph.mockup.containers.anchor;rSize=0;fontSize=17;fontColor=#666666;align=left;" parent="sn550D5Megs59wpo9OzC-1" vertex="1">
                    <mxGeometry x="130" y="60" width="250" height="26" as="geometry"/>
                </mxCell>
                <mxCell id="sn550D5Megs59wpo9OzC-14" value="Elecciones 1" style="shape=mxgraph.mockup.containers.marginRect;rectMarginTop=10;strokeColor=#666666;strokeWidth=1;dashed=0;rounded=1;arcSize=5;recursiveResize=0;fontSize=20;" parent="sn550D5Megs59wpo9OzC-1" vertex="1">
                    <mxGeometry x="50" y="135" width="140" height="125" as="geometry"/>
                </mxCell>
                <mxCell id="sn550D5Megs59wpo9OzC-15" value="..." style="shape=rect;strokeColor=none;fillColor=#008cff;strokeWidth=1;dashed=0;rounded=1;arcSize=0;fontColor=#ffffff;fontSize=17;spacing=2;spacingTop=-2;align=left;autosize=1;spacingLeft=4;resizeWidth=0;resizeHeight=0;perimeter=none;" parent="sn550D5Megs59wpo9OzC-14" vertex="1">
                    <mxGeometry x="100" width="40" height="30" as="geometry"/>
                </mxCell>
                <mxCell id="sn550D5Megs59wpo9OzC-22" value="Elecciones 2" style="shape=mxgraph.mockup.containers.marginRect;rectMarginTop=10;strokeColor=#666666;strokeWidth=1;dashed=0;rounded=1;arcSize=5;recursiveResize=0;fontSize=20;" parent="sn550D5Megs59wpo9OzC-1" vertex="1">
                    <mxGeometry x="220" y="135" width="140" height="125" as="geometry"/>
                </mxCell>
                <mxCell id="sn550D5Megs59wpo9OzC-23" value="..." style="shape=rect;strokeColor=none;fillColor=#008cff;strokeWidth=1;dashed=0;rounded=1;arcSize=0;fontColor=#ffffff;fontSize=17;spacing=2;spacingTop=-2;align=left;autosize=1;spacingLeft=4;resizeWidth=0;resizeHeight=0;perimeter=none;" parent="sn550D5Megs59wpo9OzC-22" vertex="1">
                    <mxGeometry x="100" width="40" height="30" as="geometry"/>
                </mxCell>
                <mxCell id="sn550D5Megs59wpo9OzC-24" value="&#10;&#10;&#10;Crear" style="shape=mxgraph.mockup.containers.marginRect;rectMarginTop=10;strokeColor=#666666;strokeWidth=1;dashed=0;rounded=1;arcSize=5;recursiveResize=0;fontSize=20;" parent="sn550D5Megs59wpo9OzC-1" vertex="1">
                    <mxGeometry x="390" y="135" width="140" height="125" as="geometry"/>
                </mxCell>
                <mxCell id="sn550D5Megs59wpo9OzC-26" value="" style="dashed=0;aspect=fixed;verticalLabelPosition=bottom;verticalAlign=top;align=center;shape=mxgraph.gmdl.x;strokeColor=#737373;fillColor=#737373;shadow=0;strokeWidth=2;sketch=0;fontSize=20;rotation=45;" parent="sn550D5Megs59wpo9OzC-24" vertex="1">
                    <mxGeometry x="49.5" y="35.94" width="35" height="35" as="geometry"/>
                </mxCell>
                <mxCell id="rP8DRdzDOeJ7sqTOXyWR-1" value="" style="strokeWidth=1;shadow=0;dashed=0;align=center;html=1;shape=mxgraph.mockup.containers.browserWindow;rSize=0;strokeColor=#666666;strokeColor2=#008cff;strokeColor3=#c4c4c4;mainText=,;recursiveResize=0;fontSize=20;" parent="1" vertex="1">
                    <mxGeometry x="-1590" y="-640" width="750" height="470" as="geometry"/>
                </mxCell>
                <mxCell id="rP8DRdzDOeJ7sqTOXyWR-2" value="Elecciones 1" style="strokeWidth=1;shadow=0;dashed=0;align=center;html=1;shape=mxgraph.mockup.containers.anchor;fontSize=17;fontColor=#666666;align=left;" parent="rP8DRdzDOeJ7sqTOXyWR-1" vertex="1">
                    <mxGeometry x="60" y="12" width="110" height="26" as="geometry"/>
                </mxCell>
                <mxCell id="rP8DRdzDOeJ7sqTOXyWR-3" value="https://www.vote.io/elecciones-1" style="strokeWidth=1;shadow=0;dashed=0;align=center;html=1;shape=mxgraph.mockup.containers.anchor;rSize=0;fontSize=17;fontColor=#666666;align=left;" parent="rP8DRdzDOeJ7sqTOXyWR-1" vertex="1">
                    <mxGeometry x="130" y="60" width="310" height="26" as="geometry"/>
                </mxCell>
                <mxCell id="rP8DRdzDOeJ7sqTOXyWR-4" value="" style="strokeWidth=1;shadow=0;dashed=0;align=center;html=1;shape=mxgraph.mockup.containers.rrect;rSize=0;strokeColor=#666666;fontSize=20;" parent="rP8DRdzDOeJ7sqTOXyWR-1" vertex="1">
                    <mxGeometry y="110" width="140" height="360" as="geometry"/>
                </mxCell>
                <mxCell id="rP8DRdzDOeJ7sqTOXyWR-5" value="ConfiguraciÃ³n" style="strokeColor=inherit;fillColor=inherit;gradientColor=inherit;strokeWidth=1;shadow=0;dashed=0;align=center;html=1;shape=mxgraph.mockup.containers.rrect;rSize=0;fontSize=17;fontColor=#666666;fontStyle=1;resizeWidth=1;" parent="rP8DRdzDOeJ7sqTOXyWR-4" vertex="1">
                    <mxGeometry width="140" height="26" relative="1" as="geometry"/>
                </mxCell>
                <mxCell id="rP8DRdzDOeJ7sqTOXyWR-6" value="Listas" style="strokeColor=inherit;fillColor=inherit;gradientColor=inherit;strokeWidth=1;shadow=0;dashed=0;align=center;html=1;shape=mxgraph.mockup.containers.rrect;rSize=0;fontSize=17;fontColor=#666666;fontStyle=1;resizeWidth=1;" parent="rP8DRdzDOeJ7sqTOXyWR-4" vertex="1">
                    <mxGeometry width="140" height="26" relative="1" as="geometry">
                        <mxPoint y="26" as="offset"/>
                    </mxGeometry>
                </mxCell>
                <mxCell id="rP8DRdzDOeJ7sqTOXyWR-8" value="Usuarios" style="strokeColor=inherit;fillColor=inherit;gradientColor=inherit;strokeWidth=1;shadow=0;dashed=0;align=center;html=1;shape=mxgraph.mockup.containers.rrect;rSize=0;fontSize=17;fontColor=#666666;fontStyle=1;resizeWidth=1;" parent="rP8DRdzDOeJ7sqTOXyWR-4" vertex="1">
                    <mxGeometry y="1" width="140" height="26" relative="1" as="geometry">
                        <mxPoint y="-284" as="offset"/>
                    </mxGeometry>
                </mxCell>
                <mxCell id="rP8DRdzDOeJ7sqTOXyWR-10" value="Candidatos" style="strokeColor=inherit;fillColor=inherit;gradientColor=inherit;strokeWidth=1;shadow=0;dashed=0;align=center;html=1;shape=mxgraph.mockup.containers.rrect;rSize=0;fontSize=17;fontColor=#666666;fontStyle=1;resizeWidth=1;" parent="rP8DRdzDOeJ7sqTOXyWR-4" vertex="1">
                    <mxGeometry y="50" width="140" height="26" as="geometry"/>
                </mxCell>
                <mxCell id="rP8DRdzDOeJ7sqTOXyWR-11" value="Reportes" style="strokeColor=inherit;fillColor=inherit;gradientColor=inherit;strokeWidth=1;shadow=0;dashed=0;align=center;html=1;shape=mxgraph.mockup.containers.rrect;rSize=0;fontSize=17;fontColor=#666666;fontStyle=1;resizeWidth=1;" parent="rP8DRdzDOeJ7sqTOXyWR-4" vertex="1">
                    <mxGeometry y="100" width="140" height="26" as="geometry"/>
                </mxCell>
                <mxCell id="rP8DRdzDOeJ7sqTOXyWR-12" value="Juntas" style="strokeColor=inherit;fillColor=inherit;gradientColor=inherit;strokeWidth=1;shadow=0;dashed=0;align=center;html=1;shape=mxgraph.mockup.containers.rrect;rSize=0;fontSize=17;fontColor=#666666;fontStyle=1;resizeWidth=1;" parent="rP8DRdzDOeJ7sqTOXyWR-4" vertex="1">
                    <mxGeometry y="126" width="140" height="26" as="geometry"/>
                </mxCell>
                <mxCell id="rP8DRdzDOeJ7sqTOXyWR-13" value="MJRV" style="strokeColor=inherit;fillColor=inherit;gradientColor=inherit;strokeWidth=1;shadow=0;dashed=0;align=center;html=1;shape=mxgraph.mockup.containers.rrect;rSize=0;fontSize=17;fontColor=#666666;fontStyle=1;resizeWidth=1;" parent="rP8DRdzDOeJ7sqTOXyWR-4" vertex="1">
                    <mxGeometry y="152" width="140" height="26" as="geometry"/>
                </mxCell>
                <mxCell id="rP8DRdzDOeJ7sqTOXyWR-14" value="" style="verticalLabelPosition=bottom;shadow=0;dashed=0;align=center;html=1;verticalAlign=top;strokeWidth=3;shape=mxgraph.mockup.markup.curlyBrace;strokeColor=#000000;fontSize=20;gradientColor=none;" parent="1" vertex="1">
                    <mxGeometry x="-3070" y="-810" width="2230" height="140" as="geometry"/>
                </mxCell>
                <mxCell id="rP8DRdzDOeJ7sqTOXyWR-15" value="&lt;font style=&quot;font-size: 38px;&quot;&gt;&lt;b&gt;&lt;i&gt;ADMINISTRADOR&lt;/i&gt;&lt;/b&gt;&lt;/font&gt;" style="text;html=1;align=center;verticalAlign=middle;resizable=0;points=[];autosize=1;strokeColor=none;fillColor=none;fontSize=20;" parent="1" vertex="1">
                    <mxGeometry x="-2130" y="-890" width="350" height="60" as="geometry"/>
                </mxCell>
                <mxCell id="rP8DRdzDOeJ7sqTOXyWR-16" value="" style="strokeWidth=1;shadow=0;dashed=0;align=center;html=1;shape=mxgraph.mockup.containers.browserWindow;rSize=0;strokeColor=#666666;strokeColor2=#008cff;strokeColor3=#c4c4c4;mainText=,;recursiveResize=0;fontSize=20;" parent="1" vertex="1">
                    <mxGeometry x="-3070" y="100" width="710" height="470" as="geometry"/>
                </mxCell>
                <mxCell id="rP8DRdzDOeJ7sqTOXyWR-17" value="Elecciones 1" style="strokeWidth=1;shadow=0;dashed=0;align=center;html=1;shape=mxgraph.mockup.containers.anchor;fontSize=17;fontColor=#666666;align=left;" parent="rP8DRdzDOeJ7sqTOXyWR-16" vertex="1">
                    <mxGeometry x="60" y="12" width="110" height="26" as="geometry"/>
                </mxCell>
                <mxCell id="rP8DRdzDOeJ7sqTOXyWR-18" value="https://www.vote.io/elecciones-1/login" style="strokeWidth=1;shadow=0;dashed=0;align=center;html=1;shape=mxgraph.mockup.containers.anchor;rSize=0;fontSize=17;fontColor=#666666;align=left;" parent="rP8DRdzDOeJ7sqTOXyWR-16" vertex="1">
                    <mxGeometry x="130" y="60" width="310" height="26" as="geometry"/>
                </mxCell>
                <mxCell id="rP8DRdzDOeJ7sqTOXyWR-27" value="" style="strokeWidth=1;shadow=0;dashed=0;align=center;html=1;shape=mxgraph.mockup.forms.rrect;rSize=0;strokeColor=#999999;fillColor=#ffffff;" parent="rP8DRdzDOeJ7sqTOXyWR-16" vertex="1">
                    <mxGeometry x="230" y="120" width="200" height="300" as="geometry"/>
                </mxCell>
                <mxCell id="rP8DRdzDOeJ7sqTOXyWR-28" value="Elecciones 1" style="strokeWidth=1;shadow=0;dashed=0;align=center;html=1;shape=mxgraph.mockup.forms.anchor;fontSize=12;fontColor=#666666;align=left;resizeWidth=1;spacingLeft=0;" parent="rP8DRdzDOeJ7sqTOXyWR-27" vertex="1">
                    <mxGeometry width="100" height="20" relative="1" as="geometry">
                        <mxPoint x="10" y="10" as="offset"/>
                    </mxGeometry>
                </mxCell>
                <mxCell id="rP8DRdzDOeJ7sqTOXyWR-29" value="" style="shape=line;strokeColor=#ddeeff;strokeWidth=2;html=1;resizeWidth=1;" parent="rP8DRdzDOeJ7sqTOXyWR-27" vertex="1">
                    <mxGeometry width="180" height="10" relative="1" as="geometry">
                        <mxPoint x="10" y="30" as="offset"/>
                    </mxGeometry>
                </mxCell>
                <mxCell id="rP8DRdzDOeJ7sqTOXyWR-30" value="Nombre de usuario" style="strokeWidth=1;shadow=0;dashed=0;align=center;html=1;shape=mxgraph.mockup.forms.anchor;fontSize=12;fontColor=#666666;align=left;resizeWidth=1;spacingLeft=0;" parent="rP8DRdzDOeJ7sqTOXyWR-27" vertex="1">
                    <mxGeometry width="100" height="20" relative="1" as="geometry">
                        <mxPoint x="10" y="40" as="offset"/>
                    </mxGeometry>
                </mxCell>
                <mxCell id="rP8DRdzDOeJ7sqTOXyWR-31" value="0401798475" style="strokeWidth=1;shadow=0;dashed=0;align=center;html=1;shape=mxgraph.mockup.forms.rrect;rSize=0;strokeColor=#999999;fontColor=#666666;align=left;spacingLeft=5;resizeWidth=1;" parent="rP8DRdzDOeJ7sqTOXyWR-27" vertex="1">
                    <mxGeometry width="150" height="25" relative="1" as="geometry">
                        <mxPoint x="10" y="60" as="offset"/>
                    </mxGeometry>
                </mxCell>
                <mxCell id="rP8DRdzDOeJ7sqTOXyWR-32" value="ContraseÃ±a" style="strokeWidth=1;shadow=0;dashed=0;align=center;html=1;shape=mxgraph.mockup.forms.anchor;fontSize=12;fontColor=#666666;align=left;resizeWidth=1;spacingLeft=0;" parent="rP8DRdzDOeJ7sqTOXyWR-27" vertex="1">
                    <mxGeometry width="100" height="20" relative="1" as="geometry">
                        <mxPoint x="10" y="95" as="offset"/>
                    </mxGeometry>
                </mxCell>
                <mxCell id="rP8DRdzDOeJ7sqTOXyWR-33" value="********" style="strokeWidth=1;shadow=0;dashed=0;align=center;html=1;shape=mxgraph.mockup.forms.rrect;rSize=0;strokeColor=#999999;fontColor=#666666;align=left;spacingLeft=5;resizeWidth=1;" parent="rP8DRdzDOeJ7sqTOXyWR-27" vertex="1">
                    <mxGeometry width="150" height="25" relative="1" as="geometry">
                        <mxPoint x="10" y="115" as="offset"/>
                    </mxGeometry>
                </mxCell>
                <mxCell id="rP8DRdzDOeJ7sqTOXyWR-34" value="LOGIN" style="strokeWidth=1;shadow=0;dashed=0;align=center;html=1;shape=mxgraph.mockup.forms.rrect;rSize=5;strokeColor=none;fontColor=#ffffff;fillColor=#66bbff;fontSize=16;fontStyle=1;" parent="rP8DRdzDOeJ7sqTOXyWR-27" vertex="1">
                    <mxGeometry y="1" width="80" height="30" relative="1" as="geometry">
                        <mxPoint x="20" y="-150" as="offset"/>
                    </mxGeometry>
                </mxCell>
                <mxCell id="rP8DRdzDOeJ7sqTOXyWR-35" value="Olvido su contraseÃ±a?" style="strokeWidth=1;shadow=0;dashed=0;align=center;html=1;shape=mxgraph.mockup.forms.anchor;fontSize=12;fontColor=#9999ff;align=left;spacingLeft=0;fontStyle=4;resizeWidth=1;" parent="rP8DRdzDOeJ7sqTOXyWR-27" vertex="1">
                    <mxGeometry y="1" width="150" height="20" relative="1" as="geometry">
                        <mxPoint x="10" y="-110" as="offset"/>
                    </mxGeometry>
                </mxCell>
                <mxCell id="rP8DRdzDOeJ7sqTOXyWR-36" value="" style="shape=line;strokeColor=#ddeeff;strokeWidth=2;html=1;resizeWidth=1;" parent="rP8DRdzDOeJ7sqTOXyWR-27" vertex="1">
                    <mxGeometry y="1" width="180" height="10" relative="1" as="geometry">
                        <mxPoint x="10" y="-90" as="offset"/>
                    </mxGeometry>
                </mxCell>
            </root>
        </mxGraphModel>
    </diagram>
    <diagram name="implementacion" id="axhofV-Ap3caGyL0pK6r">
        <mxGraphModel dx="597" dy="490" grid="1" gridSize="10" guides="1" tooltips="1" connect="1" arrows="1" fold="1" page="0" pageScale="1" pageWidth="1169" pageHeight="827" math="0" shadow="0">
            <root>
                <mxCell id="0"/>
                <mxCell id="1" parent="0"/>
                <mxCell id="C8LwNKwtwg818VEkGmAv-1" value="Block" style="verticalAlign=top;align=left;spacingTop=8;spacingLeft=2;spacingRight=12;shape=cube;size=10;direction=south;fontStyle=4;html=1;" parent="1" vertex="1">
                    <mxGeometry x="620" y="60" width="180" height="120" as="geometry"/>
                </mxCell>
                <mxCell id="C8LwNKwtwg818VEkGmAv-2" value="Module" style="shape=module;align=left;spacingLeft=20;align=center;verticalAlign=top;" parent="1" vertex="1">
                    <mxGeometry x="640" y="110" width="100" height="50" as="geometry"/>
                </mxCell>
                <mxCell id="C8LwNKwtwg818VEkGmAv-3" value="" style="shape=image;verticalLabelPosition=bottom;labelBackgroundColor=default;verticalAlign=top;aspect=fixed;imageAspect=0;image=data:image/png,iVBORw0KGgoAAAANSUhEUgAAAv4AAAIZCAYAAADeJDuDAAAgAElEQVR4nOzdeXRU93338fe9d2Y0MxqN9hUJCa1sAiEJMBgwZjXYjjDxGreOUydtk7Ynp+lpT9O6fZKe9qTrOcmp48SOY8db7JjFBgwGzGIWgQEDEsJIIFbt+zIaLbPd+/zhR/NYRjJgA0Ka7+scHcRo5qffaGbu/dzfqhiGYSCEEEIIIYQY19TRroAQQgghhBDi1pPgL4QQQgghRAiQ4C+EEEIIIUQIkOAvhBBCCCFECJDgL4QQQgghRAiQ4C+EEEIIIUQIkOAvhBBCCCFECJDgL4QQQgghRAiQ4C+EEEIIIUQIkOAvhBBCCCFECJDgL4QQQgghRAiQ4C+EEEIIIUQIkOAvhBBCCCFECJDgL4QQQgghRAiQ4C+EEEIIIUQIkOAvhBBCCCFECJDgL4QQQgghRAiQ4C+EEEIIIUQIkOAvhBBCCCFECJDgL4QQQgghRAiQ4C+EEEIIIUQIkOAvhBBCCCFECJDgL4QQQgghRAiQ4C+EEEIIIUQIkOAvhBBCCCFECJDgL4QQQgghRAiQ4C+EEEIIIUQIkOAvhBBCCCFECJDgL4QQQgghRAiQ4C+EEEIIIUQIkOAvhBBCCCFECJDgL4QQQgghRAiQ4C+EEEIIIUQIkOAvhBBCCCFECJDgL4QQQgghRAiQ4C+EEEIIIUQIkOAvhBBCCCFECDCNdgXGou7ubg4dOsT777/Ppk2b6O/vR1XlGkqIscQwDKxWK8uXL+eZZ56huLgYq9U62tUSY4jP5+PChQvs3r2bl156iUuXLmE2m0e7WkKIW0xRFL773e/yne98h0mTJmEyjZ04rRiGYYx2JcaS5uZmfv3rX/Pmm28yYcIEioqKmDp1KhaLZbSrJoS4DoOHvPb2drZu3crhw4eZP38+zz77LPPmzZPgJq6L1+tly5Yt/OIXv6Czs5Pi4mIKCgqIjY0d7aoJIW4RTdNobGzkV7/6FXV1daxdu5Z//dd/ZdKkSaNdtes2di5RRpFhGAQCAS5dusSzzz7L2bNnefLJJ3n44YdJTExE07TRrqIQ4jppmkZfXx9bt27F7/czb948BgYG+PDDD8nNzSUpKWm0qyjuUIZhYBgGbreb1157jeeee47p06fz7LPPMmPGDCwWC4qijHY1hRC3gKqqdHV18fzzz2M2m1m9ejVlZWUcOXJEgv94ous6LpeL0tJS/vVf/xWz2cxPfvIT5s2bh6Io+P1+fD7faFdTCHEdVFWlv7+frVu38oc//IGioiKWLVvG5s2bqa+vp6enh8TERAlvYlgej4fz58/z61//mtLSUh555BGeeeYZHA4Hfr8fj8cz2lUUQtwCiqLQ0dHByy+/zK5du3j66adZuHAhP/nJTzhz5sxoV++GSPD/Erqu09bWxsaNG/nd736H0+nk3//938nKyqKvr2+0qyeEuAGKouByudi+fTsbNmygoKCANWvWYLfb0TSN/v5+AoHAaFdT3IEMw8Dr9VJaWsrzzz/PlStX+LM/+zMee+wxfD6fNP4IMY6pqorL5eLVV19l7969PPLIIyxZsgTDMDCZTHR1dY12FW+IBP8R+P1+rly5wmuvvcb27duZPXs23/3ud0lPT5fQL8QYoygKvb29fPDBB2zZsoUZM2bwzW9+k6ioqODnWVEUaekXVzEMA5fLxe7du3nxxRcxDIMf//jHLFiwAJ/PJxeLQoxDhmEEzwmtra28+eabHDx4kAcffJClS5diNpuDPXxjbXEXCf5fYBgGAwMDVFVV8corr3DkyBFKSkp45JFHiIyMZGBgYLSrKIS4AYqi4PF42Lt3L++++y65ubmUlJQQGRmJ3+8f7eqJO5jP56O5uZnt27fz9ttvk5SUxJ/8yZ8wbdo0DMNA1/XRrqIQ4hZqb29n48aN7N27l2XLlrF8+XLCwsLG9Gdfgv/n6LpOd3c3+/bt45VXXsHlcvGjH/2IFStW4PV68fv90iIoxBiiKAput5u9e/fyxhtvUFxcTElJCVFRUXi9Xvk8ixF5PB4+/fRTfve733HixAkWLVrE008/TVxcnIzlF2KcU1WVpqYm3njjDQ4fPsyqVatYuXJlMPSPtVb+z5Pg///4/X5qa2v54IMP2LFjB3FxcXzve9+juLgYr9eLrusSEoQYIwzDQNM0enp62Lx5M9u3b6ewsJAHHngAp9OJz+eTz7MYlmEY9PT0cOLECd566y3q6up4+OGHWb16NZGRkRL6hRinPj+8p7m5mT/84Q+UlZWxbNkyli5dOuZb+gdJ8Oez9Zirq6tZt24d+/btY86cOaxdu5b09PTg8m1CiLFDVVU8Hg87d+5k69atZGdn841vfIOYmBgZ3iNGNLigw969e9m6dSsej4c//uM/5q677sJms42Lk74Q4ss1NTWxefNmjh07xoIFC1iyZAl2u33cfP5DOvgbhkFfXx8nT55k3bp1VFVVsWzZMh566CHi4+MlIAgxBqmqitvtZufOnbzzzjsUFBTw4IMPEh0dLZ9pMSKfz0ddXR2bN29mx44dJCUl8eSTTzJjxgwURRk3J30hxPBUVaW+vp7169fzySefcPfdd7N8+XLCw8PH1ST+kA3+uq7T3t7OkSNHePfdd3G5XDz88MMsXboUu90uAUGIMUjTNAYGBti2bRvr1q1j1qxZPPTQQ0RFRclnWgzLMAw8Hg9nz55l8+bNfPzxx0ydOpWHHnqI7Oxs6fUVIgQMDu95//33OXr0KHPmzAm29I+n0A8hHPwbGhrYunUr27ZtIy4ujm9961sUFRWNmzFcQoQaVVXRdZ333nuPDRs2DFmyU9ZZFyPp6+vj2LFjvPPOO9TW1nLPPfewevVq4uPjJfQLEQIURaGpqYl169Zx7Ngx7r77bu69916cTue4zIMhFfwHN2Gpq6tj06ZN7Nu3j7S0NB566CHy8vIwm83j8kUWYrwb3IDr/fffZ926dcyYMYOHHnooOJFXiC8KBAJ0dHRw4MABtmzZQl9fHyUlJSxcuJDo6Ohx18onhLiaoii0tLSwadMmjh07RmFhIcuWLSMiImLc5sGQCf6GYeB2uzl+/Dhbt27l/PnzzJ49mwcffJCkpCR0XR+3L7IQ45mmafT29vL+++/z2muvcffdd/Pwww8TEREhq/eIYQ2u4rZ161Z27NhBTEwMf/Inf0J+fj6apsnSzUKEAEVRaGxs5L333uPAgQMsWLCAZcuW4XQ6x/UxIGSCf09PD7t27WLdunV4vV5Wr17NokWLiIqKQtf14DJOQoixQ9M03G437777Llu2bGHx4sU8+OCDOByOcX3gFl+dz+ejsrKSdevWUV5ezrRp01i1ahW5ubnBSbzyvhFifBrMeqqq0tzczIYNGzh8+DB33303S5cuJSIigkAgMK6PAeM6+A/urNja2sru3bvZuHEjdrudkpISZs+ejcPhCLbyj+cXWYjxyGQy4ff7Wb9+PTt27Aiu3uN0OmWYhriKYRj09vZSVlbGW2+9xZUrV1i8eDFLly4lKSkJRVFkPL8Q49xg1uvo6AiG/rlz54774T2fN66Dv9fr5fz582zatIkjR46QmZnJmjVryM7ORtO0kHiBhRiPNE2ju7ub999/n23btlFcXMz9998voV8MS9d1Ojs72bVrF++++y4+n4/HHnuM+fPnBxuAJPQLMf5pmkZLSwtvvvkmH3/8MQsXLmT58uVDGoLHu3Eb/L1eLydPnuTNN9/k8uXLwWCQlpYmKzUIMYYN7sj77rvv8sEHH3DXXXexfPlyoqKiJPSLq+i6TktLC++++y47d+4kKiqKxx9/nOLiYlnQQYgQoqoqXV1dbNy4kb1797JkyRKWLl0aUqEfxmnw93q9lJaW8uKLL9LS0sKjjz7KokWLiImJCakXV4jxRtM0AoEAmzZtYuvWrRQUFHDfffdJ6BfD0nWdy5cv8+qrr7Jnzx7mz5/PAw88QFZWlvT6ChFCFEWhu7ubN998k23btrFy5UpWrlwZcqEfxlnwNwyD5uZmNm/ezMaNG0lMTOTv//7vycvLw2KxhNyLK8R4MjiR9+2332b37t0sWrSIe+65R4b3iGF5vV7Kysp47rnnOH/+PE888QT33XcfDodDduIVIoSYTCa6urr41a9+xaFDh/jGN77BihUrQrbHb1wF/4aGBn7729+yfft2Zs2axWOPPcaUKVMIBAIytEeIMWxwyc7BLtri4mKWLl06bjdYEV/PwMAA+/fv5/nnn8fr9fLtb3+b++67D5vNJjs4CxFCBndzf/nll9m/fz/33Xcfy5YtC+nG4HET/GtqavjFL37BRx99RElJCSUlJSQlJUnoF2KMM5vNuN1uNm7cyLZt2ygsLGTFihUS+sWw+vr6WL9+PS+88ALp6en8+Z//OdOmTcNisUjPkBAhxGKx4Ha7+c1vfsOWLVt47LHHWLp0KVarNaTPHeMi+Hd1dfHiiy9y6NAhfvCDH7Bs2TJsNlvw57JUpxBjj6ZpqKpKS0tLcMnOu+66ixUrVhAdHR3SB24xvEAgwEcffcR///d/c/fdd/ODH/yA+Ph4VFVF13VUVR3tKgohbjFN0zCZTFy+fJmXX36Z999/nz/+4z9m5cqVMreHcRL8KyoqeP3115k3bx55eXm4XC66urpGu1pCiK/IMAw6Ojo4deoUO3bs4NNPP+Xuu+9myZIlxMbGSi+eGJbb7ebNN9/E4/GwePFiDMOgpaVF3i9ChIDBvThaW1s5ceIE77zzDhcvXmTNmjWsWbNGVnT8f8ZF8N+zZw8ej4eqqip+9KMfSauOEGPY4MHb6/USHR2NoihER0dTUFBAXFzcaFdP3MFqa2s5duwYZrOZ//iP/yAsLExO9EKEiMFzR19fH2lpacTGxtLd3c0DDzyApmn4fL7RruIdYVwE/+3bt/Poo4/y8MMP09DQQF9fn4R/IcYowzBQVZXIyEhSUlLYuXMnJ06cIC0tDZPJFPLdtGJke/bsIS4ujn/8x38kEAjQ3t4uQz2FCCGqqhIdHU1WVhb/+7//i9/vD873FJ8ZF8H/0qVL/PVf/zWLFi0a7aoIIW6ilpYWOjs7SUpKYsKECRLixJc6ePAgiYmJwaX6hBChq7S0lMLCQux2uwT/zxk3zeLSwi/E+KMoypAvIb6MyWSS94oQAvjseKBpmhwPvmDcpGUZxymEEEIm8AkhxMjGxVCfUPTFE9udfEU7WNfP1/Hz9b+Rug9216mqGnycYRgEAgEURUHTtJtRZSGECClfPE6P9P/P3/b5x37+/jf6cyHE7SPBfwzSdR2v10tvby+6rmO1WrFarcFu7uthGAa6rqMoyi0fJtXX14ff78fhcKBpGoZh4Pf76evrw2KxDNlz4Vp1bmxsxDAMkpKSgmN4/X4/ly9fJiIigsTERDmpCCHEDRoYGMDr9RIREYGiKAQCAQYGBoLnFl3X6e/vR9M0rFbrkOOsruu0tLSgKAqxsbFD5lcEAgHcbjdutxtN03A4HNjtdhmeK8QokeA/xgyuS33gwAHOnDkTnME+Y8YMCgsLCQ8PHzH4fr7FRdd1zp07h9PpJCUlZcj9RmqZ/6LPtwQNbo4zXEvP7t27qa6u5uGHHyY9PR1d17l48SK7d+9m+vTpwUnZg61CI50QdF3ngw8+wOv18vjjjxMTEwOA1+ulvLyctLQ0EhISgkt6DfdcDMOQFichhPiCM2fOcPDgQZ555hnsdjvV1dXs3buXJUuWMHnyZNrb29mzZw+pqanMnz9/yDHW4/Gwd+9eNE1jxYoVREVFBY/DFy5cYOvWrbhcLsxmMw6Hg/vvv59JkyYNOYd88bg8Ug/D528f6Xg+3PFfCPEZCf5jiGEY9Pb2smfPHt566y2mTZtGVlYWp06d4uLFi0RFRTFhwgTCwsIIDw/H5XIFewR6enrwer0ARERE4PV6efHFF7nrrrtYs2YNXq+Xjo4OAoEATqcTp9PJwMAAPT09+P1+AoEADocDgP7+fpxOZ7Ccrq4uuru7iYiIIC4uLrj5UiAQIDw8nCNHjrB582aysrJITU1lYGCAQ4cO8dZbb/HII48wb948uru76e7uBiA6Ohqn00kgEMDlctHb24vFYiEyMpLW1lYGBgZobm7G5XIRGRmJw+EgPz+fyMhIent76e3tRVVVenp6iI6OJjIyEp/PR2dnJ263G7PZTHx8PHa7XU4MQgjBZ8f1DRs2sGrVKjIyMvj444/5/e9/j9VqJScnh7q6Onbs2MFDDz2Ey+Wio6MDv99PbGwsmqbR2dnJwMAA586dIyEhgdjYWGw2G+vWraOiooKSkhIcDge/+93vsNlsPPXUU/h8Ptrb2+nv78fhcJCQkIDP58PlcgWHddrtdpxOJ4Zh0NPTE9zRu7u7G7fbTXh4OLGxsaiqSmdnJ16vF7vdTkxMjAz9FGIYEvzHEMMwOH/+PDt37qSkpISnn34aRVFoamqipqaGQCDAO++8Q25uLgsXLuSDDz6gu7ub6dOns3nzZmw2G4ZhkJ+fT2xsLOvXr8cwDObNm8eOHTs4efIkABMnTmTp0qU0NjayY8cOLBYLHR0dZGRk4HQ6qa6uZtasWdx3331UVlZy7Ngxurq60DSNkpISwsLCeO655wgPD2fFihUoioLVauX48ePMnz+fgYEBTp8+jcViwev10tzczNatW/n0009RFIXc3Fzuv/9+Ghsb2bt3LzU1NcTExFBSUoJhGDQ0NPDBBx9w9uxZcnJyePrpp9m+fTuzZs2ip6eHnTt3kpOTw5kzZ8jMzOSJJ57g4sWL7Nq1i76+Pnw+H8uWLWP58uWEhYWN8qsqhBCjb9q0aSQkJHDo0CESExO5cuUKEydO5MKFC7S0tHDu3DnMZjOJiYls3LiRc+fO0d/fT2ZmJkuWLKG/v5+DBw9SVlZGWFgYS5cuZenSpXR1dREfH09qaiqTJk1iypQpqKqKz+fjvffeo7y8HJ/Ph6ZpPPHEE/T397Nx40ZMJhNms5n09HTuv/9+vF4vW7duJS0tDV3XKS8vp6urC13X+cY3vkFCQgIvvPACfr+f5cuXU1JSIsFfiGHIILsxxOfz0dzcjNfrZebMmcGlqiZMmMC8efOIioqiurqa5uZmdF2ntraWCxcucO7cOUpLS0lMTGTy5Mn4/f7g93l5eXi9Xt544w2mT5/O2rVrqa+vZ9euXTQ2NtLU1MTcuXPJzs7mzJkzxMTEMHHiRD799FMqKiqCuyYvWLCA9vZ2Dh48SHd3N+Xl5UybNi0YxouLi+nt7aW2tpb6+np6e3uZNWsWuq4zMDBAWFgYc+fOJTk5mVOnTlFVVcW+fftoaWlh+fLlpKam0tXVRV9fH21tbUybNo3Zs2ezc+dO+vv7OXv2LM3NzbS0tHDs2DFycnJYunQp+/fv59ixY3z44Yc0NTUFu6h37dpFS0vLaL+kQghxR3A6ncyaNYtjx44F989YtWoVXV1dVFRUcOnSJRITE6mvr+fIkSNkZmYydepUysvLOXXqFD09PTgcDh555BFyc3MpLS2lsbGRhx9+GI/Hw+bNm1m3bh0nTpzAZrPR3t7OSy+9RHR0NAsXLqSlpYX333+f9vZ26urqKCgoYMqUKZw9e5aqqiouXLjAhQsXaGtrY/fu3fT397N48WLa2trYu3cvra2tVFRUMGvWLObOnYvJJO2aQgxHPhljyOBEXMMw6O/vD45j9Pl8wYlZnx+6oqoqZrOZ7OxsVq9ezdmzZ4mLi6OwsJDIyEgiIiKIjo6mu7ub8PBwVq5cSXx8PFeuXKGsrAyn00l6ejpLlizBbDbj9/uZO3culZWVXL58mYaGBjo6OjCbzVy6dAmHw0F4eDgmk4moqCiWLVtGamoqPp+PmJgYnE4n5eXlmEwm4uPjiYqKwufzBVflGRymMzAwEOzqzcnJYcmSJaiqiq7rHD16lOzsbGbOnEliYiKvv/46ABaLJTimdMKECdx11120trYSFhZGQ0MDTU1N9Pb2UldXh9lsxmKx0NfXNyqvoxBC3Gk0TeOee+7hpz/9KRUVFZhMJvLy8qiqquLo0aM0NzdTWFhIQ0MDra2ttLe3YxgGYWFhwX+nTZtGcXExCQkJ/OY3v6G5uZk5c+bwwx/+kJqaGqqrq9mwYQONjY1MnTqV9vZ2fD4fNTU1xMXFBeeK5ebmsnz5cjo7Ozlz5gwnT54kKiqKlJQUIiIi6OzsxDCM4OMGh4ampKTwwAMPkJqaKsM4hRiBBP8xxGQykZqaSkxMDHv37iUpKQmHw0FtbS0NDQ2kpKRgsVhoa2ujsbGR9vZ2dF3HZrOxatUqGhoa2LVrF7/85S/52c9+hmEYuN1uHA4HiqJQU1MDQEdHR/BgPnhxMViO1WolEAhgsViCX7GxsWRlZZGRkUFmZibt7e2YzebgGPrBsZqzZs3i97//PXa7nXvvvZeGhgbcbjdlZWXs27ePBQsWEBMTw/nz53G73ZhMJtxud3A8v9lsJhAIEBEREezCHazf4L+BQABN0676udlsJi4ujuzsbCZMmEBCQgKpqam378UTQog73MyZM3E6nbz55pvMmzePlJQU0tLS2LRpE+np6cycOZMjR44QERHBxIkTcTqdzJgxg4yMDGpra+ns7KS9vZ2mpqbgIg2Dvc2zZs0iPz+f9vZ2jhw5Ql5eHna7neTkZFJTU0lPTychIYHm5mbMZjNWq5Xk5GSysrKCwX/69OnExMRgMplISkoiIyMj+Nju7m4sFgthYWES+oX4EhL8xxBVVUlLS2Px4sVs3bqV9evXEx8fT0tLC3a7ncmTJzNp0iSqq6s5duwYLpeL+Ph4urq6OH/+PHFxcaSmptLZ2YnVaiU7OzvYAj558mQOHTrExYsX6ejooKCgAEVRsNvt+P1+wsLCsNlsqKqK1WolKSmJ9PR0enp66OnpobOzk97eXtLT04Mt+larFQCHw0FERAQFBQW8/vrreDweCgoKaGtrIzw8PDh5q6enB7fbjaqqtLe3Ex8fT21tLfv27aO+vp7JkydjNpsJCwsL9mbExsZiMplwOp1YrVbCw8OJjo5GVdXg0nFRUVHk5+dTU1NDU1MTHo+HxMTE615GVAghQsHgcXrTpk089dRTxMTEkJOTA0BiYiLp6el0dXXR0tKC2+2mr6+PiIiIYCNQY2Mjhw4dora2lpycHCZMmMB7771Hf38/06dPx2Qy0d7eTlFREVOnTmXOnDm4XC6am5vp7e0lMzOTrq4ubDYbiqIQHh7OjBkzOHXqFP39/UyZMoXExEQKCwuDwz77+/uZOHFicMUgCf1CfDkJ/mNEIBCgubmZCxcuoOs6SUlJVFZWUl1dTWxsLPHx8Vy6dAlVVfF4PFRUVGC329F1nZqaGq5cuUJ5eTkAeXl5nD17lqSkJC5dusShQ4fIzMzk/Pnz1NfXk5KSgqqqtLa2omkax48fp7GxkYGBAU6cOEFzczOBQIC6ujocDgfNzc0cPnwYi8USXE40Ojqaw4cPY7PZCAsLw+fzceLECSZOnIimaVRWVuJ2u/H7/XR1dWG1WqmsrCQhIYGMjAzcbjeRkZFomkZZWRlWq5W+vj4Mw8Dr9XL48GH6+vpISUnh2LFjaJpGXV1dsEfgwIED9PT0EBUVhcvlCq4bXVpais1mw2w2Ex4eTlZWFhEREaP86gohxOjp6+vj9OnTuFwuoqOjmTJlCq2trRw4cICmpiZycnKw2+0cO3aM3t5eHA4Hp0+fpr+/n7S0NIDginBlZWUAJCcnc/nyZWJjYzl16hS7d+8O9hzHx8dTVVVFdnY2ly5d4syZMzidTmJiYoLnhQMHDmCxWOjp6SEmJgafz8fFixdpaWkhPDycxsZGLl68iN1uJzw8HFVVcTgcHD58GLvdTnZ2NhkZGaP5ZxXijiTBf4wIBALU1tayc+dOXC4XqqoSFRUVHB9fWVnJmTNngvMAXC4X8NkSbV1dXcFuV03TaGlpYffu3SiKgslk4vjx48FhPZqm0d7eTltbG7quB9fhH/x5Y2Nj8PaOjo7gnAOz2YymaZSXlwfvu2vXruCeAT09PWzfvj049GawTIDm5mYMw8Bms9Hf3x8cz+9yuYJ10nWd06dPo+t68DGDO/Xu2bMnWJ/B3/fBBx8E9xeorKwMPn+bzYamaVRVVWEYBvHx8RL8hRAhrbe3l3379lFTUxPsQT116hSnT58OHqcbGhpobGwE/v/uu1arlc7OTj7++GN0XcdkMhEIBFBVlfPnz1NdXQ18Ngdr8LxgNps5ceLEkN8/2Pt69OjR4P127NgRbL0fPO7v378/+BjDMLBaraiqGjzv6LoevMAoKSmR4C/EMCT4jxGappGWlsaKFSuCk3iH20r9i4bbzGqk+19rq/bBskbawn2k/49Uh5HKv5Hn8MU6DRqpzM/fLzY2FqfTOezfQgghQkV4eDiLFi0KrpMPX358H7zt8/cb6Rj8+fsPljPcMfla55ORyhzucYFAgOzs7Ot56kKEHAn+Y4SmaaSkpFy1y64QQgjxddjtdubOnTva1RBC3Aayjr8QQgghhBAhQIK/EEIIIYQQIUCCvxBCCCGEECFAgr8QQgghhBAhQIK/EEIIIYQQIUCCvxBCCCGEECFAgr8QQgghhBAhQIK/EEIIIYQQIUCCvxBCCCGEECFAgr8QQgghhBAhQIK/EEIIIYQQIUCCvxBCCCGEECFAgr8QQgghhBAhQIK/EEIIIYQQIUCCvxBCCCGEECHANNoVECMzDCP47+D3YmxS1c+usRVFGeWaCCGEECJUSfC/QxmGgc/no6WlhdbWVvx+/2hXSXxFqqoSHR1NYmIiNpsteBEghBBCCHE7SfC/Q/X29nL06FG2bdtGVVUVuq5Lq/8YpaoqEydOZPXq1cybN4+YmBgJ/0IIIYS47ST434F0Xeejjz7i2WefZdasWaxdu5a4uDh0XR/tqokbpCgKvb29lJaW8utf/5q2tjbWrl1LZGTkaFdNCCGEECFGgv8dqK+vj8Tb0AoAACAASURBVI0bNzJ58mR++tOfMmHCBDRNG+1qia9I13Vmz57Nz3/+c/bt20dxcTH5+fmjXS0hhBBChBgZb3AHamtr48yZM5SUlDBx4kQJ/WOcqqpkZGQwZ84cWltbqaurG+0qCSGEECIESfC/A/n9fnw+H0lJSaNdFXGTmM1mHA4HiqLg8/lGuzpCCCGECEES/O9gMqZ/fJIlPYUQQggxGiT4CyGEEEIIEQJkcq8QQtxEhmGg6zqKoqCqanADvsGv4ZbmHewFGnzcYDmqqmIymQgEAgQCAQA0TcNsNt/eJyWEEGJckOAvhBA3UV9fH7W1tURGRpKcnIxhGLS2ttLR0YHJZKKpqYnOzs7g/Qc3ePN6vfT29g4Z4hcVFcWUKVM4deoUvb29KIpCREQE6enppKamygWAEEKIGyLBXwghbqLOzk727NlDXl4eycnJ+P1+zp07R1lZGZmZmfT19XHu3DkqKipISUlh0qRJeDwe+vv76erqoqysjN7eXu666y6Sk5NJTEzkxRdfZObMmURFRdHX18eePXt49NFHmTp1qmwGJ4QQ4rpJ8B8Fg13+I1FVNfh1rQm+iqLIZFEh7iAej4eGhgYSEhLw+/34/X66u7upq6sjOzub2bNnEx0dTWVlJVlZWdxzzz1ERkbi9/sZGBigpqYGn8/HkiVLgrdfuHCBp556itzcXOrq6li/fj2lpaVkZWVhs9lG+ykLIYQYIyT430aBQIDu7m4uXbqEy+UaMfw3NjbicrkoKysb8T6KohAeHs7EiROJjY2VLn8h7hCqqtLf38/x48exWCz4fD7Ky8vp7OzEarWSmpqK3+8nJiaGCRMmkJ2dTVhYGAA+n4+EhAQCgUAw1NfX1wMQFhaGzWbDbDbj8/nwer1y0S+EEOKGSPC/TbxeL5WVlezbt4/y8vLgxL/hDAwMEB0dzccff0xlZeWw9xmcIJiZmcm9995LYWEhVqv1Vj4FIcR1UBQFv99PW1sbFy5cwOfz0dDQEAzqw/XSDf7/8xN7P38/j8fDrl27qKqqor29nZiYGObPn4/FYrm9T04IIcSYJsH/Nqmvr+f111+nqamJoqIi0tPTv9aOvIFAgObmZg4fPkxtbS0RERHk5+ffxBoLIb4KXdex2+3k5eWxYsUKvF4vhw4d4vTp0186xO/LmEwm0tPTyczMDM4dyM7OlvH94qYbXHmqr68vuJKUGHtMJhNWqxWTSWKeGEreEbeBx+PhxIkTXL58mZUrV/KNb3wDp9P5tbrpDcPA4/EQFxfHhg0bKC0tJSMjg4iIiJtYc3ErDM7xkGEa45NhGGiaRmJiIllZWXg8Hi5evMi5c+eCwf/L5vkM9zOTycSsWbOYMWMGqqpiNpu/VsOBEMPx+/18/PHHfPTRR5SXl0vwH8OsVisFBQXce++9TJkyhfDwcDnnCECC/23h9Xqpra0lISGB/Px84uLibspJ22q1Mnv2bE6cOMHFixdxuVwS/O9gmqahKAqBQECC/zgWFhZGSkoKUVFRwSF9UVFRpKWl4XQ6g/dJTU0lMjJyyPtAURQSExNRVTV4u9lsZvr06URGRmK320flOYnQcP78ef7t3/6NyMhIJk+eTHR09FfupRKjq729naNHj3L58mW+/e1vU1hYKHMBBSDB/7YwDINAIIDVasVms920wDe4pndERATNzc3SOnOH03Udv98vJ9IbMLhZla7rOBwOzGbzVe9zVVUJDw+/rmEvuq7j9XrxeDxX/exmrZAVFxfHAw88QHh4OPBZa/20adNIS0sjKioKVVWJj4/n0Ucfxel0DjkZq6rK0qVL8fl8wdujoqL40Y9+RFpa2teu23g3eHEtbpzf7+f999+np6eHf/mXfyEjI0PmkIxh/f39lJaWsnnzZk6ePEleXh5RUVGjXS1xB5DgP8Z9cRKguHNpmobH42H79u00NjZe8zWLiopi1apVREdHB28bXNpx9+7d1/U74+PjmTt3LhMmTBjSy1RdXc3evXvx+/1f+nhFUYiOjmb27NlMmjRpSLg+e/Ysx48fp6ur65r1sNlsLFq0iKysrOBtuq7T0tLC7t276e7uHvZxvb29HD9+HL/fT2RkJEVFRSQkJAx5Lt3d3ezevRu3233NeoSFhTFp0iSys7OH/P1VVeXChQv8/ve/JyEh4ZrlFBcXU1hYGBw/axgGXV1dHDt2jOrq6qs+l58f3jX4NW3aNAoLC4fUo7e3l1OnTnHx4sUhj9V1nf379w+5r6ZpZGZmsnDhwiET+7u7uzl16hRnz57F6/Ve87kkJibyzW9+c8htXq+X48ePU1FRcc33CEBGRgazZ88mPj4+eJthGBw7doxTp05dVz1iY2NZsmTJkDL8fj+nT5+mrKyMvr6+a5ZRXV1NRkbGkNsCgQB1dXV8+OGH11WPyMhI5s+fT3p6+pD3+6VLlzhw4MB1vc+cTiezZs1i2rRpQ26vqanh8OHDtLe3A5CXl8fMmTOJiYkZ9fkabrebjz/+mEWLFlFQUIDJZJLzyhjmdDopLi6mrKyM2tpa2tvbJfgLQIK/ELeNpmkEAgGOHz9ObW3tNe8/YcIE5s+fPyT467pObW0tW7Zsua7fmZmZyaRJk0hJSRlye01NDdu2bRu25fuLUlJSSExMZNKkSUNuv3LlCrt27aKxsfGaZYSHh5Oenn5V8G9vb+eDDz4IBqHPUxQFn8/HhQsXCAQCmM1mkpKSrhoq53a72b9//7BlfJHT6cQwDLKysq4aYtPQ0MDevXuvazhNeHg4BQUFwf8bhoHb7ebYsWMcPHjwmo8ffMy0adNwOBzB2/r6+vjkk084cuTINXvwNE1j7ty5zJ07d0jwd7vdlJeXs2fPHvr7+69Zj0mTJl0V/H0+H6dOnWLr1q34fL5rllFUVER2dvZVwb+iooKtW7cyMDBwzTIyMjKYNWvWVcH/woUL7Ny5c8hux8PRNI36+npyc3OH3K7rOg0NDWzfvp3e3t5r1iMhIYH09HTS0tKGhPHa2lp27tx5Xe+z+Ph4IiIirgr+TU1N7Nmzh5qamuAE2jlz5vDMM8+Qm5s7qhMxA4EAPT09pKSkyJCQcWBwye/IyEiam5uv6zMoQoME/zFOWmTGDp/PR1hYGE8++SSrVq265munaRpxcXFDbjObzcybN48XX3zxmo83DAOLxUJkZORVc0ruuusu8vLyrqveJpNp2Mnod999N/n5+fj9/ut6H8bExAz5v6ZpZGdn85//+Z8EAoFhl7js6uri+eefp6+vjzVr1pCUlHTVc4mPj+eHP/zhNTe7G2xxt1qtV/2uQCBAUVERf/VXf3XVBc5w5XxxiI6iKCQlJfFnf/ZnPPXUU9f19wgPDw+O+R8UFxfH97//fZ5++unren1tNltwSNGgxMREnnzySR566KFrDiszDGPYkGez2Xjssce4//77r/k8DMPAarUSGRk55HZFUXj44YdZuXLldZVhNpuveo+EhYWxYsUK5s2bd83X12w28/3vf/+qngGTyURBQQE///nPr6seJpNp2M/M7Nmzyc7OvmY94LMepC++tgD5+fn89Kc/DW7sVlpayvr161m/fj3f/e53SU5OlmO6uGnkvSSGI8H/NjEMY8iEvZtlsLzBdf3FnUtVVSwWC7GxsaSkpFzzvTDSz+12+3Xv1nozy/hiWXa7Hbvdft3vu+HqYrFYSE5OHrYMRVEwm83BeTExMTFYrdarhp5omjakV+RaRqqvzWYjPj7+qt6R4Qw3vM5kMhEbG/u1/h6qqn7tMjRNIyoq6qogfiNlKIpCZGTksOH1RspwOp3XveDASO9Vh8OBw+G45t9k8KJuuF4Oq9V6Xa/rl9XDarWO+F69kTKsVmuwjJiYGFwuF9u2bePee+8lPj5eWtvFLSEXAWKQBP/bQNM0wsPDaW1tpa2tDV3Xb9p4zrq6Ourq6oiPj7/uICdGx2CrtsVi+cqrOo0Uwr9KOTejjK9Tly8Otfmy+wyOkR/pAuFmXfSOtMHW9TxuuO+/yu8fL2UMPv5m1OPr1OVmPpevW84Xy3A6neTl5bFu3Tq6u7uvqzdBCCG+Dtn95Taw2WxMnz6dtrY2tm3bxrlz565r3OyX8fl8XLlyhU2bNnH+/HkKCgqu6iYXd5YvW7tdCBG6pMdWCHG7SIv/baCqKpMnT2bZsmW8++67nDx5ksTExBEncimKgs1mY2BgYMQWoEAgQGtrKy6Xi+XLl1NUVCQ79AkhxBgzOITIbrfLcAwhxC0nSfE2iY2N5bvf/S6LFi1i8+bNVFVVMTAwcNWBXtM0ent7OXLkCFOnTiUpKWnY1T00TaOwsJAVK1ZQUFAgy3QJIcQYVFBQwH/9138RFRV1S8f338jchK8zj0EIcWeT4H+bqKpKREQERUVFFBUVfel9r1y5wiOPPMK//du/sXDhwttUQyGEELfb4CT5W2Vw48Cenh4GBgZGDPVutxuv14vb7aa+vn7E8kwmE+Hh4djt9puyA70Q4vaS4H8H8vl86Lr+tecBCCGEGH2GYTAwMEB/fz82m+26FmIYnOzrdDq/csAOBAK0tLRQXl7OoUOHaGlpGXEyvNfrpampiV27dnH58uURy7Tb7eTm5rJw4UJyc3NlFSIhxhgJ/ncomQgqhBDjg2EYVFdXc+DAAaZOncqCBQu+NDB7vV7eeustrFYra9euve5lVb/4O7u7u9myZQvvvfceNpuNzMzMIcuJftHgRm4j/dwwDFpbW3nnnXeoqqriL/7iL67aBVsIcWeT4C+EEELcQoqioGkaVVVVfPrppyQnJ5OTk4Omafj9fjweDxaLBZPJhK7rnDx5kl/+8pd85zvf+cqt/YZhcOHCBUpLSyksLOQ73/kOEydO/Nohva+vj927d/PKK6/w3nvv8f3vf3/I7tNCiDubLOcpborBoUmBQEB6KoQQ4nMURSEnJ4eVK1fS2trK3r176erqwjAMWlpa2LdvH42Njei6TkdHBy+//DK5ubmsWbPmK+/PEggEqK2tRVVVioqKSE5Oxmw2YzKZvtaX0+lk/vz5TJs2jYqKChoaGm7yX0sIcStJ8BcYhoHH46Guro6GhgYCgQADAwPU1dVRX1+Pz+djYGCAhoYGmpqa8Hq9V5XR0dFBaWkpV65cuWoJ0traWs6ePUtVVRVnz56lsbGR/v5+uUAQQoQMi8XC3LlzmTFjBocPH6a8vByfz8fFixd54YUXqKysZGBggNLSUsrLy3n88cdJS0v7yps9Dh7X7XY7UVFRN3W55/j4eFJTU+nq6sLtdt+0coUQt54M9REAtLe38/bbb9PT08MPf/hDmpubef3117FarTz11FP09fXx3nvvkZSUxJo1a3A4HPj9/mAL0sWLF3n++edZs2YNMTEx2Gw2LBYLiqLwq1/9iitXrgSXHHU4HCxYsIAlS5YQFhYWXK7UMAwsFktwIpyu64SFhQW7w1VVDX5vGAZmszm4YoXFYkHXdfr6+lBVFZvNhqZpGIZBIBDA4/FgMpkICwsLPmbwwkPTNDRNk3GqQohbKiYmhuXLl3PlyhX27dtHdnY2Pp8vuKJObW0tW7duZdasWSxatEj2ZhFC3HRyVBHAZ13R9fX1fPTRR6xdu5aLFy+yZcsWHA4Hs2bNQtd1du3axeLFi+ns7KSyspLW1lZSUlLIy8vD4/HQ0dFBfX09hw8fxmw2M2PGDOLi4tixYwe6rvPII4/gdrv5wx/+QHV1NdnZ2YSFhXHx4kXgs9UicnJyaGtr4+zZswwMDJCVlUVaWhq1tbVERESQlJREVVUVgUCAmTNn0tLSQk1NDfn5+Vy+fJnKykosFguTJ08mJycHn89HVVUVtbW1xMXFkZ+fj6ZpnD9/no6ODsLCwsjIyGDChAmyNJ0Q4pbSNI2pU6dSXFzM7t27OXHiBGFhYaiqit/vZ9++fdTX1/PXf/3XREVFSWOEEOKmk+AvAHA6nUyZMoX9+/dz5swZuru7MZvNhIWFUVFRQUxMDGazmZiYGHbu3ElZWRmqqqIoCvfff39wp+GKigq6u7spLy+npKSExx9/HE3TiI6OpqioiJaWFhwOB1arlf7+fj755BNefvll4uLimDt3Lj09Pezdu5f29nY8Hg8Oh4NVq1Zx8OBBkpOTKSoq4pVXXsHn8/HjH/+Yffv2cfToUZ5++ml+/etfY7fbcTgcVFZW8kd/9EecO3eOt99+G1VVCQ8Pp7a2lsmTJ/POO+9w4sQJpk+fzmOPPUZycrIEfyHELedwOFi8eDEVFRXs2bOHKVOmYLVaaWhoYN++feTn5zN9+nRZJlMIcUtI8BcoioLZbCY3N5eIiAhOnTqFw+FgypQphIeHc/78eWJjY4mPj8dms7Flyxa6u7vJy8ujrKyMiIgI7r33XhRFwel0snjxYo4ePcq2bdu45557MJvNXLp0iXXr1tHT04OiKKSkpGA2m2lububcuXNMmzaN3Nxcjh8/zunTp1m7di2BQIB33nmH+Ph4mpqa6O7upqenh7q6Onw+H+Xl5Rw4cACLxUJPTw8VFRUUFBSQlZWF0+nE7XazadMmPvnkE+bOnUtNTQ0ulwuTyURtbS1dXV3k5OSQmpoqoV8IcVuoqkpmZib3338/r776Kp2dnbjdbvbs2YPP52Pp0qXExsZKa78Q4paQyb0C+Gw3xkmTJhEbG8vRo0eprKxkzpw5TJ48mdOnT3P8+HESEhKIjY2lu7sbn8+HyWRi+vTpwQloVquVqVOnMm/ePHJycmhqaqKzs5NAIEBycjILFy6kpKSE1atXU15eTmVlJSaTiYSEBFatWsWUKVO4cOECmqZRXFzMzJkzsVgsdHZ2MmXKFNrb2zlw4ACFhYVMnTqVjz76iIqKCpYtW8bUqVN57LHHcLvdlJeXU19fT1dXV3ClDJPJRHp6enAJPbvdTlFREatXryY1NfUrT6ATQogbZbFYWLRoEbNnz+bcuXOcPn2aEydOcPfdd1NcXIzZbP7awV9RlGBPbGdnJ36//ybV/rPNxdra2ggPD8dqtd60coUQt56kHQF8dpKIjIwkJyeHqqoqLl26RE5ODikpKTQ3N9PY2EhKSgopKSnExcURGRlJcnIymZmZ5OTkYDKZcLvdnD59msOHD3Pu3Dmio6OJjIwMriyRmJhIdHQ0ZrOZhoYGuru7AYJDisLCwnA4HHR2dnLo0CEOHjyI2+0mJSWF/Px8uru7qa6uZurUqRQUFPDJJ5/Q1dVFcXExXq8Xi8VCcXExqqqyYcMGOjo6KCoqwmw2k5iYSEZGBpmZmcTExAAQERGBw+GQljUhxG2l6zr9/f0kJSWhaRpdXV3YbDZiYmLo7e29Kcsia5pGeno6ZrOZffv2cfLkSfr7+792vdva2ti1axdVVVUUFBSQlJT0tcoUQtxeMtRHAP+/daiwsJAtW7YwYcIEUlNT6e7uJicnB8MwyMnJYeLEidx3333s37+fEydOEBkZGQzXcXFx6LrOhg0b8Pv9rF27lqSkJJKSkrhy5QrPPfccqqoSCARYsWIF06ZNo7y8PHgxEB0dzcqVK/F6vezcuRNFUZgxYwYLFiwgLi6O1NRU3G43EyZMwGQyYbVamT59OsnJydTU1HDmzBkGBgbweDwUFhaSmZlJfHw81dXVVFVVYbfbSUpKCgZ+Cf1CiNvFMIzgyj3Hjh2joqKCc+fO0dPTQ1xcHH6/n02bNvHpp58yZcoUFi1aRGZmZnB1tBulKAoZGRksXLiQTZs28cILL5CVlTViC72iKFitVvx+Pz6fb8Tn0NHRweXLl8nIyGD16tVERkbecN2EEKNHgr8IMpvNLFy4kJ/97GfExcWRmZmJ1+vln/7pn/D5fEybNo24uDhKSkrIz8+nsbExOClYURT+5m/+hsjISNra2oLDgCIiIvjbv/1bmpqaUFUVs9mMw+EgJycnOHQoOzubyZMnEx4ezqJFi5g0aRIXL17EZDKRkZFBWloaiqLwgx/8AJfLRX5+Pqqq8s///M84HA7Cw8PJyMjge9/7Hs3NzZjNZtLT08nNzSUQCPA3f/M31NbWEhYWxuTJk3E4HDz55JNYLBYiIiJG+88uhBjnfD4ftbW1HDx4kEOHDtHZ2UlMTAxz587lgQcewG634/F4aG9v5/Lly3z44YccPnyYoqIiFi9ezNSpU294HtJgL+59993HhAkTKC0t5fz588PuwwKfteYPLuSQnp5+1X4sgwaXY162bBm5ubkyP0qIMUaCvwhSVZWkpCRWr16NqqqoqophGCxYsCD4c0VRiIuLIy4uLtgVrSgKhmEQFxc3ZKz8YCvVPffcg2EYwTIHDfYiZGdnB8senFScl5eHoihDWroKCwuHlLts2bLgfSIiIliwYAG6rmMYxpCT0cyZM5kxY0bwvoZhUFRUFHxOQghxq3i9Xs6ePcuGDRuoqqoiPT2dFStWkJ2dTUpKCg6HA7PZTCAQoLe3l9bWVi5evMjhw4fZs2cPp06d4nvf+x5z5sy54d+tqiqxsbEsWrSI3NxcWlpaRhzr39vbyz/8wz8wf/58Hn300RGDv81mIyEhgZiYGAn9QoxBEvzFEIqiDNk0RlGUEQ/unw/lX3a/L3v8SF3YwwXyL942XLnDPe6Lv+fL6iqEEDfT2bNneemll+js7GTlypUsWrSICRMmEBYWNuS4pGkaFouF6OhoJk2aRH5+PsePH2fjxo38x3/8B3/3d3/H3Llzv1IdVFUNztEaSWdnJxEREaSlpQUbWYQQ4480dwohhBA3WSAQ4Ny5c7z22mt0dnby1FNP8dBDDzFp0iSsVuuXjts3m82kpKSwfPlyfvzjHxMfH89//ud/cuTIkRFb4r+uwd7SrzupWAhxZ5PgL4QQQtxEhmHQ2dnJli1buHDhAt/85jeZP38+kZGR1z28cHDBhZycHP7yL/8Sj8fDb3/7W1pbW29x7YUQ45kEfyGEEOIm8vl8nD17liNHjlBQUMDSpUux2+1faXUeVVWZPHkyjz32GOXl5ZSWlt6CGgshQoUEfyGEEOImMQwDl8tFWVkZmqaxevVqwsPDv1aZmqaxZMkSCgsLee+990ZcbnMsMgwDv9+P1+u96cOY/H4/9fX11NfXEwgEbuixXq+XhoYGWltbh/17Dw6N+uL316LrOi6Xi7q6OlwulwytEredBH8hhBDiJjEMg9bWVs6dO8f06dPJycm5KbvwxsfHs3LlSqqrqzl//vxNqu3oGtwX4NVXX+UnP/kJR48evanhv7Ozk3/5l3/hn//5n+nt7b2hx9bU1PCzn/2Mt99+m87OziE/a25u5uDBg/h8PgzDoLS0lMuXL19XuT6fjz179vD3f//37Ny585bN2RBiJLKqzx3IbDajqioWi2W0qyKEEOIG6LpOe3s7DQ0N3HXXXdjt9ptSrslkIi8vD5vNxpEjR5gyZcpNKXc06bpOVVUVr7zySrBlferUqTgcDnp6eujt7Q22kEdHR5OQkICqqvT09HD58mXMZjMZGRnYbDYAPB4P1dXVREREkJKSQiAQoLW1FV3XaWpq4tKlS2RkZBAZGYlhGLjdbpqamrDb7SQnJw+Zf+H1emlrayMhIYGamhq6urpITU3F5/OxYcMGNmzYwP/8z/8QCAT4P//n/7By5Ur+9E//FI/Hg6Zp9PT04PP5yMjIICwsDF3X6ejooLOzk+7ublpaWm74YkSIm0GC/202eCByu90jdvHV19fj8Xiora2lurp62PsoikJ4eDixsbFygSCEEHeIwWN8V1cXEydOHLI88tehKAopKSkkJydz9OhRnn766ZtS7mgxDAOfz0dFRQW9vb3ce++9lJWVcfbsWaZPn8727dt54403MJlMuFwuMjMzeeaZZ4iNjeWll17i4MGDaJrGN7/5TZ544gkAnnvuOXbv3o2maTzzzDOsXLkS+Kz1/h//8R+pq6tj6dKl/MVf/AUdHR389re/5fjx46SlpfGtb32LxYsXBy/UFEXB7/ezf/9+Dh8+jMvl4tvf/japqam8/vrrVFVV8Zvf/IbW1tbgakt5eXns3buXpqYmenp68Hq9lJSU8MQTT3DmzBneeust2tvbUVX1ql4EIW4XCf63idfr5eTJk6xfv54PP/wQt9s9YvevYRh4PB6effbZEdebNwwDm83GnDlzePzxx1m4cOGIW7ELIYS4PXRdZ2BgAJPJhMPh+NrDfAYpioLFYiEyMpLGxkZ0XR/zGxC6XC4OHz7Mvffey9q1a/nxj3/M/v37ycrK4v+yd+fRUd3nwce/d+7s0miXRvu+gBaQEDK7QWDAgDHG2Al24qSmTdq3bd66yfsmTc7rNs1pT3PSJHWaNCeJ4ziNk9hgvIA3iAUYgwCDQQbJgEACgRBCQkL77DP3/cNnpsgIkJHQAs/nHM6B4erOb2Y09z73uc/v+Z0/f56amhq++MUvkpuby4svvsiWLVtYsGABCQkJ/O///b+pqqpi06ZNlJaWsnv3bl555RW+853vcPToUX7zm9+wdOlS9Ho958+f52tf+xoffvghmzdvprS0lHPnzvH+++/z2GOP0dDQwDPPPENUVBSzZ88etIClx+Nh5cqV7NixgxdffJEf/OAHTJ8+nba2Nv7+7/+ekydPsn//fpYvX05paSn/+Z//yZUrV3jqqac4dOgQGzduxGQycfToUerr63nyySf56KOPOHHixHi//eIuJYH/GGlsbOSZZ57h0qVLbNiwgeLi4hFlgvx+P2fOnOGVV17hmWeewWazMXv27FEcsRBCCHF7BAIBWltb2bt3L4WFhaGEWF1dHW1tbWiaht1uZ+7cuRQWFrJv3z46OzuJjY0lISGBmpoaGhoa6Onpoa2tjQsXLlBQUMDSpUt5+OGHQxl1v99PcXEx999/PzabjSNHjnDq1CkcDgft7e1s374dr9dLYmIiPp8Pv98fCvpVVaWiooK1a9cSCATYsmULXq+XsLCw0IVdeHg4qqpiNpvR6/XoD774rwAAIABJREFU9XoKCwtZt24dFouFY8eOcebMGRwOR2jVZp1OR21t7Th/AuJuJYH/GHC73dTV1eFwONiwYQPr1q0blbrPe++9l6SkJJ5//nkOHz5McXEx4eHhozBiIYQQtyI4PysQCOB2u9E0bVSy/pqmEQgEGBgYIDo6etJn+30+H++99x7d3d10dHSwe/duAoEAp06dorm5Gb1ej9vtprOzk87OTjweDxEREezatYuqqioWLFhASkoK3d3dmEwmrFYrfX19OBwOWltbqampCQXZkZGR6PV6jEYjRqMRVVWx2+2kpaXxyCOPkJycTGRkJFOmTAndZdc0DZ1OR3R0NAaDAVVVQxcEfr8/VKrr8/lCC58Fu/t0d3eHyr10Oh02m43Lly/T29tLe3s7XV1duFyu8Xz7xV1MAv8x4Ha7OX/+PBkZGRQWFmIymUZlv6qqMn36dKZOncqZM2fo7u6WwF8IIcaRqqrExMRgsVi4cOECM2bMGJU6f03TaG9vp7W1ldWrV4/CSMdXX18fGzduZOnSpXz3u9/FYrFQXV3N888/z5EjR1BVlcuXL7Nx40ZsNhvt7e3Mnz+fK1eu0NHRwZEjR3A4HHR3d7Nr1y6Ki4s5ePAg//RP/0RbWxvt7e0sW7YMg8GAx+MJBefBkqm0tDR0Oh1VVVWoqkp+fj4ZGRmhC6pg4B/k9/tRFIVAIEBWVhZ6vZ6NGzcyf/58EhIS2LFjB8XFxfh8Pk6dOsV3v/tdGhsbiY2NZc6cOfh8Pt544w2efvppOjs7uXTp0ni99eIuJ4H/GDIYDOj1+lGr+QQwm81YrVZ6enqkLZgQQowznU5HQkICqamp1NfX43A4iIiIGPF+/X4/dXV19PX1sWjRolEY6fjq6+tj4cKFVFZWMmXKFAKBAAsXLsTv9+P3+2lpaSE5OZl58+aFAvXly5fT29uLxWKhtbWVxYsX09zcjMvlYunSpeTl5bF582bsdjtf+tKXCA8PZ9GiRQQCASwWC5mZmTzwwAOUlZVRUVGBzWbjnXfewWg0smzZMux2e2h8MTExLF68mISEBCwWC2VlZWiaRnx8POvXr8fn8+Hz+cjIyOAf//EfOXDgAH19fej1esrKyli4cCE5OTmh5ysoKCAzM5Pa2lpmzpyJTqejoKBgVOMBIYZDAv8xdDsW6rg6iyGEEGJ8KYpCXFwcOTk51NTU0NzcTFFR0Yj329XVxa5du0hNTSU3N3cURjq+0tLS+Kd/+icMBgPwyQVTcnIy69evp7+/n2effRaDwcDMmTO57777QqU2sbGx/N3f/V0oI3/1uS8jI4P58+cDn9x50TQt1P3IYDBQXFwcKufR6/UsXryYysrK0PNfzW6388QTTwCftFK99957mT9/fih5941vfCO07erVq1m1ahUXL17kueeeIzY2li996UuoqoqiKCiKQkpKCk888QSBQABFUfD7/aHXJMRYkt84IYQQYpQoikJkZCQlJSX09/ezY8cOXC7XiBI/fr+fgwcPsm/fPu6///5Q3/rJTK/XYzabB3WuUxQFg8GAyWQiJSWFadOmERkZiaIogwJknU4XCqo/TVXV0D6DZT1GoxFFUVBVFZPJFCq9Cu53qOD76p/V6XShOQKfvtj49PZTp04lJydnyAuT4H5UVQ3NNRBirEnGf5KTTL8QQkwsJpOJadOmUVZWxu7du5k6dSrz5s3DYrF85mO23++nvr6e//7v/yY7O5v777//No164rBYLHzuc5/j4YcfnlQBclxcHP/6r/8auggQYiKSjP8YCgQCo16HH6wzlAsAIYSYGBRFISYmhtWrVxMbG8sLL7xATU0NDofjM2X+fT4f586d41e/+hUdHR1s2LBhUB36nSqY+bdYLJMm6A/ePTCbzaPWwEOI20EC/zGg1+uJioqis7OT1tZWvF5vqDZ/JH/8fj/nzp3jwoULxMXFjdrS8EIIIUYm2M/9scceQ6/X89vf/pY//elPdHR0DGoH+WnBtpC9vb0cOHCA//iP/6Curo6nnnoqVGMuhBC3So4gY8BsNjNt2jTee+89tm/fjsFgICsrKzSpaSg6ne6Gdwd8Ph+XLl3izTffpLu7m3Xr1hEVFXU7hi+EEOIWGI1GZs2ahcFgYOPGjbz44oucPn2ae+65h8zMTKKiokL155qm4fP56O/v58KFCxw4cIDq6mq8Xi/f+ta3uPfeeyWTLIQYMQn8x4BOpyM/P59Vq1bx1ltv8bvf/Y7U1NQhawCDfYLdbjd6vR6DwTBkZsjr9dLa2orD4WDx4sWj1itaCCHE6LFarcyaNYvo6Gj+9Kc/sX//furq6sjKyiI9PZ3o6GiMRiM+n4/u7m5aW1s5e/YsLS0tzJgxgwcffJAZM2ZMmpIXIcTEJpHiGImMjGTlypXk5OTwwQcf0NLSgsPhuGY7nU5HX18fb7zxBgsWLCAtLW3IzL+qqpSUlFBWVkZJSQlxcXFj8TKEEEJ8RgaDgcLCQlJSUqioqKCmpoaGhgaam5txOp20tbWRkJCA2WzGYrGQnZ3N+vXrmTZtGjExMaPS8jFYInqj/w+60d3m4HwymVcmxOQkgf8YioiIoLy8nLy8PJxO53UPwi0tLezbt49HH32U2bNnD7mdoiiYzWbCw8NvWDIkhBBi/CmKQlRUFLNnz6akpIS2tjZaW1v54IMP2LhxI5WVldxzzz2kpqZit9uJjo6+buvI4dI0DYfDwaVLlzh+/DhtbW3XDeoHBgZoa2vjwIEDN+xIExYWRlZWFgUFBaExCiEmDwn8x5hOpyMqKuqG9fhOpxO9Xk9kZCRJSUljODohhBC3U/DYHhERQW5uLn6/n6qqqtBqr8E6/tHIqA8MDLB371527NjB+fPnQ4tHXU9eXh5ut5uqqqrrbqNpGhaLhblz57JmzRo5RwkxyUjgPwFd3blHCCHEnSe4ouvVpTNX/3ukNE2jpaWFd955h+7ubh588EHy8/OvO28M/me12+vdFdA0ja6uLnbv3s2f/vQnYmJiWLNmjUw6FmISkcBfCCGEGCfB1syjvcaL3+/n7Nmz9PT0sGDBApYvX05sbOyIS4d8Ph8JCQlcvnyZ6upq5s6dS2pq6iiOXAhxO0lxnhBCCDFOYmNjiYiI4PTp03R3d4/anV5N0+jt7cVqtZKZmUlERMSI7yYEF9bKz88nLy+P5uZmOjs7R2W8QoixIRl/IYQQYpykp6dTUVFBdXU1NpuNefPmjUqQHmwPqmnaqLd6NhgMmM1mfD4ffr9/VPcthLi9JPCfwKRdmhBC3NkiIyN56KGHcDgcvPPOO+zcuROr1Tri438gEODcuXOEh4fflvliMgdNiMlJAv8JKHhAlUzKnePqOl45YQohgnQ6Hbm5uTz55JPU19dz9uxZ3G73iI8TOp0OTdMYGBgYpZEKIe4EEvhPQJGRkcTGxrJv3z5Zpv0O0dfXR3NzM2azmcjIyPEejhBiAjEajWRnZ5OWlobT6RyVpI/f7+fNN9/k0KFDozDCwUaz+5AQYmxJ4D8BxcTEcP/99/Pss8+SmJjIypUrJ+3KvMGTw9XZq+BJY7S7WExUfX197Nixg+rqakpLS8nLyxvvIQkhJhhFUTAajTdcPOuz8Hg8WCwW/H4/Xq93VO80+nw+vF6vXAAIMQlJ4D8B6fV61q5dy4kTJ3juuefYsmULVqt1vIc1Ynq9nkAgcNcE/EFut5v+/n5mzpzJ6tWriY+PH+8hCSHucKqqYrfbGRgYoLGxkfLycoxG46jMHWhsbOTEiROkpqYSGxs7SiMWQowFCfwnqPT0dL7//e9z4sQJDh48SE9Pz6TMrAQCAVwuF2+//TanT58mNjaWxx57DKvViqqq4z282y64ymVhYSEzZ84kPj5+1DtsCCHEp+l0OgoKCigsLGTr1q1cvnyZhQsXYrPZrjmXBO8GfDo58+nt/H4/LS0tbN++ne7ubjZs2EBycvLYvCAhxKiQCGSCUlWVmJgYZs2axfTp0yd1lvyjjz5i48aNeDwe/H4/5eXlrFq1aryHNWauvoWv08nSGUKI209RFOLj41m3bh1ms5kdO3awdevWG/6Mqqr4/X4URRmyNCgQCKCqKrm5uTzxxBMsWLBAEhlCTDLyjZ3AgoulGAyG8R7KLQsEAvzyl79Ep9ORlJREeno6L7/8MvPnzyc9PX28hyeEEHcsvV5PXl4eX/nKV1iyZAkXLlzA6/Ves52iKPT39/OjH/2I8vJyHnzwwSE7kCmKgtVqJT09nYyMDGk8IcQkJIG/uG0CgQAvvfQShw8f5tlnn0Wv12OxWPjmN7/JCy+8wFNPPUVYWNh4D1MIIe5Iwcm3NpuN6dOnM3369Otu29XVxQsvvEBpaSmrV68ew1EKIcaSBP7itmlqauL5559nyZIl3HfffQAMDAzw2GOPsXHjRu69917mzZsn5S9CCDHOghl+WWdEiDubRFzitnA4HGzevJn+/n6+9rWvhR43m81UVlaSmJjI66+/Tm9v7ziOUgghhBDi7iGBvxh1mqZRX1/Piy++yJo1a8jJyQn9n06nIy0tjRUrVnDy5Emqq6sn9cRlIYQQQojJQgJ/Mao0TaOvr4//+q//Iicnh7Vr12I0GtE0LRTgWywWlixZQm5uLr/73e9obm6W4F8IIYQQ4jaTwF+MKk3T2LlzJydOnOALX/gCWVlZADidTs6ePcvAwACKopCQkMCaNWtwuVxs2bKFgYGBcR65EEIIIcSdTQJ/Mao0TePSpUvcf//9LFq0KNSK9OzZs/z7v/87p06dAsBgMFBcXMwDDzyA3+/H5XKN57CFEEKIO4pM1BZDka4+YlSpqsqGDRvw+/2YzebQyo/9/f2cOHGCvr6+0Lbx8fF8+ctfxu/3Sz9oIYQYRzqdDqPRSG9vL4FAQLqtTXKapuH1enG5XOh0OlRVHe8hiQlCvtli1BmNRiwWy6Dl3j+99HvwseC2cpIRQojxYzabyc/P5+DBgzQ3N+PxeMZ7SGIE3G43DQ0NNDc3ExMTQ2Rk5HgPSUwQkvEXQggh7nJms5m1a9fy7W9/m5/85CdUVlYSHx8/ZNJGTGyapnHx4kXeffddnE4nM2bMICoqaryHJSYICfyFEEKIu5yiKMycOZO//Mu/ZPv27fz617+WoH+S0jQNRVFISkriwQcfZMaMGVJOK0Ik8BdCCCEEZrOZxx57jHnz5rF//346OzvHe0jiFgQ7591zzz2kpaVJfb8YRAJ/IYQQQgCfNGjIysoKtWIWQtxZZEalEEIIIYQQdwEJ/IUQQgghhLgLSOAvxoQsJCKEEEIIMb4k8BdjRqfTSZcIIYQQQohxIoG/GBOpqak8+eSTZGRkjPdQhBBCCCHuStLVR4wJu93OQw89hMViGe+hCCGEEELclSTwF2NCr9cTEREx3sMQQgghhLhrSamPEEIIIYQQdwEJ/IUQQgghhLgLSOAvxoTb7aatrQ2XyzXeQxFCCCGEuCtJ4C/GRENDA//2b/9GfX39eA9FCCGEEOKuJIG/GBMDAwMcO3aMnp6e8R6KEEIIIcRdSQJ/MWb8fr+s4CuEEEIIMU4k8BdCCCGEEOIuIH38hRBCCAGA1+ulra2Ns2fPMjAwMN7DEbcoIiKCrKws4uLiMBgM4z0cMYFI4C+EEEII3G43r7zyCr/73e9oaWmRldYnKU3T8Hq95Ofns379ehYvXkxkZCSKooz30MQEIIG/EEIIcZfTNI0PP/yQH/7wh1RWVvLNb34Tu90u87ImGUVR0DSNCxcusGXLFjZt2kRYWBgLFy7EbDaP9/DEBCCBvxBCCHGXc7vdbN68GbvdztNPP01ERAQ6nUwDnKymTp1KbGwszz77LDU1NZSWlkrgLwCZ3CuEEELc9fr7+/n4449ZuXIlUVFREvRPcqqqkpmZSU5ODh0dHXR2do73kMQEId9sMabkZCKEEBOPoigoiiLH6DuITqdDr9eHyn+EACn1mbACgQBut5vu7m76+voIBALjPaRbEpxMdP78edxuN5cuXQqt3nu3HIh0Oh3h4eFER0djMplCJ1ghxN1F0zQCgQBerxen00l/fz9Op5NAIICiKJjNZsLDw7FarRiNxlAQPpbHi7vluHy3CH6ecs4RQRL4T1BdXV1s376dffv2cfLkSbxe73gP6ZYET1wOh4O+vj5+/OMfYzabURSFQCBwV5xk9Ho9BQUFLFu2jFmzZmG32+UgLMRdxu/309fXR3NzMw0NDTQ0NHD8+HFaWlpwu92oqkpSUhIFBQXk5eUxZcoUMjIyiIiIQK+XU7UQYnTI0WQCCgQC7N69m+9///vMmDGD5cuXY7VaJ2WQrNPpQkGu0WjE4/GgadpdE/grikJ/fz+1tbU899xzOJ1O1qxZg9VqHe+hiUlO0zRcLhcOhwO9Xo/FYsFgMIS+W06nE5fLhdFoxGKxoKoqgUAAn88X2k4uQG+/YGvFCxcucODAAfbt28eFCxcwmUxkZ2dTUlKCyWTC5/PR0dFBQ0MD+/fvJzU1lZkzZzJv3jymTp2Kqqrj/VKEEHcACfwnoP7+fl577TVKS0v53ve+R1JSkizAMYl5PB5OnDjBz3/+c6qrqykvLyc/P3+8hyUmMb/fz6VLlzh8+DDnz5/HZrORmZlJYWEhkZGRNDc3c/jwYTo6OrDZbOTl5VFYWEhfXx8tLS0UFBQQEREx3i/jruB2uzlx4gSvvvoqx48fJzc3l69+9avk5OSQmJhIeHh46KLM4XDQ2dlJU1MTO3fu5PXXX+fgwYP81V/9FWVlZZL5F0KMmBxFJqDOzk5OnTrFN77xDdLT08d7OGKEjEYjU6ZMoaKigq1bt9LU1CSBv7hlmqbR29vLW2+9xb59+ygsLKS3t5cTJ07gcrnIz8/n5Zdfprm5mZycHNra2qitrcVisdDV1cX7779PbGwsNptNMv63mcfj4aOPPuKll16iq6uLtWvXsmTJEuLi4kKTLoOCc4HCw8NJS0ujpKSEgwcPsnnzZn74wx/y13/918yaNeu2tWSU3wUh7g4S+E9Afr8fv99PfHz8eA9FjBKTyUR0dDR+vx+XyzXewxGTnNPp5Ny5c9hsNtasWUN4eDh1dXXYbDa6u7u5cOEC6enprFu3Dk3TOHToEFarlba2Nvr7+/H5fOP9EiYlTdNCpYo3C5R9Ph9nzpzhtdde4+LFi/z5n/858+fPJyws7KbPo9PpiImJ4f777ycrK4vvf//7/PSnP8VsNlNeXn5LmX+fz4fP57tueaXH4wEIlYndaGx6vV5Kj4SYpCTwn6CC3R/EnUXqqsVosNlslJaWsmPHDl5++WUyMjLIzc1lypQpuFwuSkpKqKurY+PGjaSmplJQUEBSUhLnz58fNO9GfDaXL1+moaGB7Oxs4uPjrxv8appGV1cXb7zxBo2NjXz5y19mwYIFtzS3p6CggKeeeop//ud/5tlnnyUtLY3k5ORh/3xw7kBtbS0XL1687nnF6XTS2trKhx9+iM1mu+7+zGYz2dnZTJ06VcrFhJiEJPAXQohJxmq1Mm/ePCwWC2fPnuX06dPU1tZSWVnJwoULWbp0KbGxsVy4cIFjx45RU1PDY489ht/vl6B/BFpbW/nDH/6A3W5nwYIFVFRUhCZOX83j8XDy5EkOHz5MWVkZixYtGtGE/qKiIh5++GF+8YtfUF1dzSOPPDKszzE4v6Cqqora2lp0Oh1Go3HIrL/f7yc9PR23283+/fuvu0+v14vRaGTx4sUsW7aMqKgo+Z0SYhKRwF8IISYRTdPo6+ujtbWVoqIi7r33XhobG/nVr37Fnj17yM/Px+FwMHv2bGw2G8ePH+cHP/gBdXV1REdHh/ZxdeZXFm0aHrvdTllZGTt27KCuro7Dhw+zcOFC8vLyiIqKAj55b3t6ejhy5AhGo5FVq1bdMIM+HHq9niVLlnD48GFef/11Vq1addMLCU3TaG1t5dVXX+XUqVPMmzePsrKyEc8R6OjoYOfOnbzyyisYDAZWrlx52+YdCCFGnwT+QggxyQwMDLB//35cLhfTp0+np6cHTdOIiYmhu7ubvXv3YjQayc/Pp62tLbQwlF6vp729nYMHD4bKfgoKCkhNTR3vlzQp2O121q9fT1FREe+++y4HDhzg9OnTTJs2jfvuu4/MzEwMBgOXL1/m1KlT5ObmkpmZOSrPHRcXx/z58/nxj39MU1MThYWFN9w+EAhw5swZzp8/z9y5c/nc5z5HQkLCiLPzXq+X5ORk/uu//oudO3dSUVFBWlraiPYphBg7EviPg+AEsesxGAyoqorRaLxhnX/wAC63WYW4eyiKQkREBIWFhRw+fJijR48SCASYPn06c+bMITk5maysLOrr66mpqcHn87F48WJmzJiBw+EgKyuLc+fOcfHiRVRVJTY2VgL/YVIUhfDwcGbPnk1WVhZ1dXXs37+fXbt2cejQISorK1m0aBEtLS00NDSwcOHCYU3mHQ5VVSkuLsZqtbJ///6bBv5+v5/Lly9jMpkoKCgYtZIcg8FAQUEBBQUF7N27lytXrkjgL8QkIoH/GAkutnPlyhVOnz5Nd3f3dYP/jo4Ourq62LNnDx0dHUNuoyhKqHe33W4nLCxMLgCEmIBcLhcDAwMYDAasVuugjiw+n4/+/v4bdlG5mtlsJiIigvDwcObMmUNBQQE9PT04nU6MRiORkZF4vV6mTp1KYmIiAwMD6PV6YmJiUFUVs9nM6tWrUVUVVVVRFAW73Y6mafT399Pf3z+scRiNRiIiIgatLxIIBBgYGMDhcAyrMYGqqsTExAx6PwKBAC6Xi/7+fvx+/033odPpiI2NvabLjdPp5MqVK8Mah16vJzw8HIvFcs0+btQBSdM08vPziY2NJS8vjw8//JDXX3+d6upqjEYjXq+XtLS0Ueu9rygKiYmJ2O12Dh06xIYNG256zA8EAuj1ekwm06ieHwwGA2azGZ/PN6zPSQgxcUjgP0aCt+Z37txJa2srRqPxugdit9tNSkoKH3/8MefOnRtym+BqkBEREdx7770sWbIkVGMqhJgY3G43Bw4cYO/evRQVFbFw4UJiYmJC/9/X18cbb7xBbW3tTVts6vV6CgsLefjhh4mMjMRisZCSkoLNZmPXrl3s2bNnUBAWPL58OsEwffp0Vq1aRVxcXGgbr9fLnj17ePfdd4f1uvLy8li9evWgTK/b7Wbfvn3s2bOHgYGBm+4jOjqar371qyQmJoYec7lcfPTRR7z77rt0d3ffdB82m42//uu/HrQPnU5HfX09W7ZsGdY4EhISWLp0KTNnzhz0+IkTJ9i+fTuXL1++6QrjBoOBJUuWMGPGDF588UVOnDhBfn7+qCZkFEXBYDBgs9lob28PtRUdjtuxQvqdvuq6EHcqCfzHgKZpnDt3jpdeegmPx0NlZSWpqakjmlAXCATo6Ohg165dbN68maSkJObMmSNZfyEmkK6uLnbt2kVNTQ1FRUXXfOcVRcFkMhEeHj6swH+ozG0wIAwLCxtWhttsNg+5D6PRSHh4+LBel8ViGfK1BMcxnOOQ1Wodchx6vR6r1TqstQasVuuQx9HPMg6LxTJkVl6v12OxWG5aqhMs/7HZbFy6dCl0B+Z2CL4eafUshLhVEviPAbfbTV1dHf39/axcuZJVq1YRHh4+oiBd0zQ8Hg82m42NGzdy+PBhioqKiIyMHMWRCyFGwuPx4HA4yMjIoKys7JrAOjw8nMrKSmbPnn3TDKqiKJjN5mu6uVgsFmbNmnXTmu8gq9V6zXFCVVXKy8vJzc0d1j7MZnOoQ1CQ0WikrKyM3NzcYZf6DLWPqVOnkpSUNOxSn0/f6dQ0jczMTL7whS8Mu9RnqLul2dnZxMTE3PACJBAI0NfXx8mTJ3n++edpb2+ntLSUWbNmcfjwYRwOx2fKzN+Ipmn4/X4GBgaw2+3jmuSR9UiEmLwk8B8DHo+HlpYW7HY7RUVFREdHj8qqhyaTiRkzZnDo0CGampro6+uTwF+ICUan02Gz2YiMjLwms6zX6z/zCt2fDriCtfJXlxB91v0oikJUVNSIygWDQfhn2cdQryU8PHzYdx6GomnakBc3n1VYWNgNs/19fX0cO3aM119/nbq6OtLT0/mzP/szSktLqa+v59ixY5w/f57y8vJBcyFuVbA958WLF1m/fv2wA+9AIDDqdwg8Hg8ulwtVVaUVrBCTjAT+Y0TTNAwGAwaDYVRrPs1mMxaLhZ6eHrn9K8QkNNLjwWgeT+6kfdyu99Xv93Py5Ek2bdrEvn37iI2N5aGHHmL58uUkJSVhMBhwOp3k5ORw+vRpnE7nqAT+fr+fEydOMDAwwJw5c266vU6nIy4ujv7+fs6fP4/L5cJoNI54HACNjY2hix273T4q+xRCjA0J/MfQ7ZxgJbddhRDi9rpy5Qovv/wyW7Zsob+/n8cee4y5c+eSnp5OZGQkOp0OTdOIj48nNzeXw4cPc+HChWGXYd1Id3c3u3btIjU1laysrJtur6oqmZmZxMTE8Oqrr6KqKsuWLRvRYmJer5f6+npefPFF2traWLlyJXFxcbe8PyHE2JPAXwghhBiGkydP8uabbzJz5kw+//nPk5WVhclkQqfTDUq+REVFMWvWLKqrq9m8eTPf/OY3R7S6rd/vp6qqip07d/L0009f03p0KIqikJ6ezvr163nxxRf51a9+xX/8x38MmYBSFCU0hyAQCGAyma57B1mv15OUlMTjjz/OihUrRq1dqRBibMg3dgzdjqz89Vr2CSGEGF1Tpkzhe9/7Hunp6URFRQ05VyvYISk/P5+ZM2dSXV1NVVUVy5Ytu+VSm8bGRl544QVKS0uZO3fusM8lRqOR8vJysrOzOXbsGI2NjXg8niHH7PF4eP755ykuLmbhwoVDTmpWFIW4uDgKCwvJyckZsjOTEGJik8B/DAQzKXD7SnJuthqwEEKIkYmOjh7WCriKohATE8PDDz9Mc3Mzv/jFL0J3AT5rvX89x2H4AAAgAElEQVR7ezv/7//9P3p7e/nud7/7mWrqgxchCQkJVFZWsnDhwutu29PTw7vvvsuCBQv4i7/4ixvuM7j4mwT9Qkw+Mh1/DBgMBmJjY7lw4QLnzp0bVn/q4QgEAtTX13Pq1CmSkpJG1AlDCHF7yAX5nUNRlFBZz82CXlVVycvL4ytf+QoxMTF873vf45VXXhl2IwaXy8WBAwd48sknqa+v5yc/+QkzZ868pY5wwfURjEbjdf+oqhr6Xb3RdgaD4ZrSJiHE5CEZ/zFgsViYMWMGW7du5eWXXyYiIoLi4uIRdVjwer2cOXOGF154gZaWFp544onP3M5PCHF7mc1m8vLy0Ol0Ugt9F9LpdJSUlPB//+//5ec//zk/+tGPOHz4MA8//DAFBQVERkYOCuQDgQBOp5Nz587xyiuvhBZn/OMf/0hRUdFtHatcoApxd5Az0RhQFIX8/Hw2bNjA73//e55++mmSkpKGDPyDk6y8Xi96vT7UJeLTvF4v7e3tmM1mHn/8ccrLyyUDI8QEExsby+c//3kURbnpCrDizqTX6yksLOTb3/42VVVVvPrqq3zrW98iLy+P0tJSUlJSMJvNeDwe2tra+Pjjj6mtrcXr9fLEE0+wZs2aYS+sJsaedNYTk40E/mMkLCyM5cuXM336dHbv3k19fT1er/ea7VRVpbe3l1dffZXKykrS09OH3E6v17N48WLmzZtHZmamBBVCTECqqhIRETHewxDjTFVV0tPTefzxx5k/fz4ffPABO3bs4Pnnn2dgYACPxxNa56WgoIC1a9eydOlSMjIysFgsd01QGQyig3PWgiVVI339n94vMCr7DibpNE3DZDLd8LmD7pbPUkxcEviPIbPZTGZmJpmZmTfc7sKFCxw+fJivfe1rzJ07d4xGJ4QQ4nYym83k5+eTn5/P5z//ebq7u3nvvff42c9+xoYNG6isrCQhIQGz2XxXBoiBQIDu7m7Onz+P1+slJiaG1NTUEbVCDeru7ubs2bN0dXVhtVpJTEwkMTFxRO+10+lk+/bttLS08Ld/+7dDbuP3+3E4HKG7fnfj5yomFgn8JyCXy4Xf78flco33UIQQQtwGwW47wUA/ISGBxMTE62aO7wY+n4/Tp0/zy1/+kqamJubPn89Xv/pVEhMTcTqdAKE7IB6PB1VVMRqNBAIB3G43qqqi1+txuVw4nU5sNhtGoxGPx8Orr77Kq6++GprIHB0dzfr165k/f37oZzRNw2w2o9PpQpl8TdNCDTlMJhMGgyH0fN3d3fzxj39k3759/M3f/A0Abrcbt9uN1WpFp9PR3NzMnj17iIqKYvHixRL8i3Engf8ENVHac15vsZfbsf9b3a+maaEuGdJtQkwkwQABCC30JMTVgsf6iXC8H296vZ7MzExmzZrFRx99REtLC319fXR3d3PgwAEAysvLSUhIoK6ujtjYWIqKiujp6eHgwYNkZ2cTFRXFBx98wKlTp6ioqKC8vBy/389LL72Epmn8xV/8Bb29vWzdupWGhgamTZvGlStXOHr0KH6/n5KSElJSUjhz5gyXL1/G6/XS1dVFIBBg2rRpFBUV0dnZyaFDh0hJSQmdc/x+P21tbdTV1XHu3DnKyspITk5m586d/Pa3v6WoqIjMzEyKiopuqTOTEKNFAn9xQz6fj97eXgYGBtDr9URFRWG1Wkdl34FAAIfDQW9vL2FhYdhstlsKjPx+P01NTfT09DBt2rQh+2QHszaapmEwGOTiQIyJ3t5ePvjgA3Q6HfPnzx/WiqtC3K1UVcVutzN9+nQiIyNRFIWLFy+yZ88ePvjgA/r6+njvvfd49NFHeeutt9Dr9Xz961/nyJEj/OhHP+Lpp5+mo6ODP/7xjyQkJPDcc8/xD//wDzz00EMkJibS2NjIqVOnmD59Ov/wD/9ARkYGDQ0N/PSnP+Xs2bPodDrS0tL4whe+wJEjR9iyZQtWq5XMzEwaGhqYNWsW3/rWt9i+fTvPPvss//zP/4xer0dRFC5dusQPfvAD9u3bR0JCAps2beKRRx7h4sWLnDt3jtTUVHp7e+UCT4w7ST+JG+rr62Pv3r384he/4IUXXuD06dPA/yxKFsy0D5W1uvrfgUDgmt7VDoeDAwcO8Mtf/pKdO3fS19c36P+DmfxAIHDNwfLqxx0OB5s3b+aHP/whAwMDg342yO1209jYSGNj46itoyDEzfT09FBVVcXOnTtDpQpCiGsFzynBSb3Bx8xmM1OnTmX16tWUlpZy+vRpent7ycvL4+TJkzQ2NvLRRx8RGxtLVlYWdrud++67j0ceeQSn08n+/fsJBAJ85StfobCwkJ07d/LMM8/w3//939TW1lJbW0tNTQ1Tpkxh2rRptLW10djYiMvlwuVysW7dOr7zne+waNEiTp8+TXNzMx988AFRUVHk5ubi9/tRVZWLFy+ybds24uLiqKiowOPxcPbsWUpLS8nNzeWee+6htLRU2vqKcSe/geKGgpOt3n//fQYGBsjMzCQnJ4eWlhba29uJiYkhPT2d3t5eHA4Hdrsdm81Ga2srvb29pKSk0NvbS1NTE6qqkpGRQVJSEpqm0dbWxu9//3veffddFi1aRHZ2NtOmTaO3t5eOjg68Xi/9/f0YDAYyMjIwGAxcunQJ+GSils/nIzs7G1VVaW5upr6+Hp/Ph9Pp5OLFi1y+fJmkpCRiY2NpaGjgd7/7HeHh4TzxxBNkZWWN+QE42EHi6o4V4s72WRZ8EuJupWkafX191NXVERUVhdPpDN2d7e7u5ujRo6GSn+7ubrxeLwUFBWzdupX9+/fz8ccfM2fOHGw2G7W1tRw/fhyz2YzP56O/vx+Hw4HFYuGv/uqvcLlc7Nu3j02bNmGxWEhOTkbTNAYGBkhJSWHx4sVkZGTQ2tpKeHg4M2bMoLCwkKVLl1JTU8Of/vQnTp06xerVq0PzCz79Wnw+H4sWLWLq1KmhO9DBY78Q400Cf3FD0dHRLFiwgGPHjrF3717cbjfHjh3jzTffpKmpiZiYGNasWcOVK1c4dOgQa9as4Z577uGFF16gt7eXL37xi7z55pscPHgQvV5PUVERX//61zEYDJw9e5bGxkZmzpyJy+Xio48+oqioiI8//phNmzbh9Xpxu914vV5Wr15NZmYmmzdvpr+/n0AgQEdHB3PmzOELX/gCer0eg8GAx+OhpqaGN998k76+Pux2O/feey/Nzc1s27aN1NTUUO3lWAf+wTKm4J0KCQSHZzht94YbWF/d1m+ofYyWYPayra2N7u5u8vPzR7RgnxB3smAi6Oc//zkWi4WkpCQAMjMzQ6U+xcXFxMXFYTKZuHz5MqWlpeTn5/POO+9gMBiYPn06fr+frVu3Ehsbi91ux2g00t/fT1NTE3/4wx9ISUlh9uzZREZGEhERgcFgwG63k5OTQ0pKCtnZ2ZjNZux2+zUlodOmTSMmJobNmzdjNBqpqKgI1er7fD4iIyOZMmUKNpuNvLw8AoEA2dnZuFwujEYjLS0ttLS0kJeXJzX+YlxJ4C9uSFVVrFYrFosFnU6Hz+fj8uXLuFwukpOTOXDgACaTKXRxkJKSQnp6Ops3b6ayshKdTse5c+ew2+10dHTw3HPPsWzZMnJzczl48CBGo5G1a9eybds2qqurWbVqFa2trezatYu8vDzmz5/Ptm3beOmll1ixYgX79u3D4/GwYcMGDhw4wM9+9jMeeughjEYjOp2Orq4ufvazn3HixAkWLVrEli1buHTpEkuXLiUtLY28vDymTp06Lp0zgj2fu7u76ezsvGmgqaoqNptt0AWKpmm43W76+/uH9Zx6vR6r1XrNSSy4j5tloBRFQVVVLBYLRqPxmn04HA78fv9Nx6HT6QgLCxv0vgczY/39/dfdR3d3Nx6PB5/Ph8fjuSa7Bp9cSA1nDFePZagTr8fjCX02NxP8TlxdkhCcs+J2u/H5fLS1tfH222/jdruZM2fOqM2NEeJOoygKkZGRFBYWsnv3bs6dO8fs2bNZunQp/f395ObmcunSJXJzc6moqODKlSuEh4ezZMkS2tvbKSgoYNq0aURERDB79mzq6uqoqqpiw4YN1NbWcvHiRQoKCtizZw+HDh1CVVUKCgp44IEHSE9PZ2BggJ07d3L69GmKiorIysoiLS2NKVOmEB4eDkB8fDyLFy+ms7OT8vJycnJyMBqN5Obm0tfXR2pqKn/2Z3/GK6+8wuuvv05YWBgZGRlkZWWxcOFCPv74Y44ePUpWVpYE/mJcSeAvhuT3+0NBl9frDZUs6HQ6DAYDUVFRoSCsra2N5ORkMjIyOHPmDNXV1Xi9XhYsWIDZbCYqKgr4pE1pIBCgvr6e8PBwDh06RGtrK4cOHaKpqQmr1cqpU6dQFAWLxcKcOXN49NFHaW1t5cMPP8ThcKCqKqWlpTzwwAOYzWZ27NjBwMBAKJjzer20trYSHx9PdHQ0FRUVpKSkEBsbS0xMDElJSaSkpIxLnaVOp8Pj8bBjxw5aW1tvun1MTAxr164lISEh9Jjf7+fUqVO89dZbw3pOu93OokWLyMjIGHSyOX36NNu2bRtycbirKYpCdHQ08+fPZ+rUqYMC/5MnT7J//366urpuOg6z2czSpUspLi4OPRbM8r3++uvXzO8IcjqdoW4bkZGRzJ49m5SUlEGvpbe3lz179oTmd9xsHHl5eRQWFg56LTqdjjNnzrBp0ybi4uJuup+5c+cyb968Qb9HXV1d7Nmzh5MnT4ZWYe3u7mbx4sWUlJTIHR4hrkNRFOLi4vjKV75CZWUlLpeLrKwsUlNTcTgcREdH09vbS3JyMh6PB6fTid1uZ/HixWRmZhIdHU1SUhJ6vZ7/9b/+F+fOnSMyMpLs7Gzq6+tJTk4O3b2+cuVKqHw0WEL6yCOPUFpaSm9vL+np6SQnJ5OQkMCMGTPIzs4OjXPlypUUFBRgt9uJiYlBURTWr1/PihUrsFqtrFixgvz8fFpbW4mLiyMvLw+j0cjjjz/OhQsXSEhIkKBfjDsJ/MWQBgYG2LNnD8ePHyclJYX29vbQCqTbt2+nubmZkpISNE2jp6cHgLKyMrZu3cqZM2dIT0+ntLSUgwcP8tprr7F27dpQhvfKlSt8/PHHtLS0kJmZiaqqJCUl0drayrFjx4iJiUHTNFpbW2loaKCrq2tQtritrY3m5mYuXryIXq9Hr9cTCATw+Xzo9XqSkpLw+XyUlJSQnZ1NYmIi0dHRwCcZ5GAXobFurajT6QgEAnR2dtLS0nLTQDB40XW14GTm4fw8fHJCHWo9CIfDwcWLF28a+MP/ZPY/bWBggEuXLtHR0XHTsZjN5mv2Ebx70draSk9PzzX7CI69r68vdEE31F0Kn89HS0sLvb29N30tYWFhJCQkDCq1CpYJOZ1O2tvb8Xg8N93Pp7tzXP27HfxsYmJiWLRoEXPmzAllDYUQQ9PpdMTHx4cuvIPfz4iICKZPnz7kz0RFRZGYmDho+9zcXHJzc0PbzJkzJ/T3WbNmhf5+9fEmmCS6WnZ29qCgHyAlJYXk5ORBP19SUhL6t8VioaioiKKiokH7D15kCDERSOAvrqu/v5/q6mr8fj8Gg4FZs2aRn5/P4cOHcTgcdHd3k5qaSnd3N+3t7RQXF7Nt2zZqa2v5+te/TkJCAl6vF51OR0dHB1arlZycHGprazl79ixJSUn8n//zf8jNzaWxsZEXX3yRpqamUFDW0NDAli1b6OjoYO7cuaEDfEdHB2+//TZHjx4N1WuazWbCw8OJiIhg5cqV7Nixg2PHjuH1ekMnk9zcXE6dOkVNTQ0xMTFj3lrR5/NhNBpZvXo1y5cvv+n2BoOB+Pj4QY+pqhqaJzEcJpOJ6Ojoay5yCgsL+drXvjasyWYGg4Ho6OhrAvOSkhLS0tKGdfGg0+muyaTrdDpSUlL4y7/8yyE7LSmKQk9PD7/4xS9wOp2sWbOGpKSkazJmUVFRPPLII/j9/htegGiahk6nG1SiE3w8EAiQn5/Pk08+SVZW1k3fl+jo6EHZ/mCg/8ADD4RK3IK/j9I+Vojh+6zflc+y/WhsO1SC4lafQ4jxIIG/GFJYWBgLFy5EVVXOnDlDXFwcs2fPJj09nTVr1nD06FGio6NZsmQJLS0txMfHk5KSwuc//3kqKipYunQpBoOBuXPn8uSTT+L1eikuLmb+/PlcunQJg8HAzJkzmTFjBmFhYYSFheF2u0PlEQaDgfz8/FDt5qxZs+js7ETTNAoKCkhNTSUmJoaKigpsNhuzZs0iKSmJ6OhoVq1aRUREBE1NTURHR4duzT7wwAMcOnQIi8Uybt0VDAYDiYmJZGVl3dIJQqfTYbPZsNlsIxpHeHj4iLPQIx2HoiiYzWbS09Ovu01HRwc2my00Cc9qtV5zkaDX67Hb7aF93kgwyP/0569pGmFhYaSmppKZmXlLwYfRaAyNQwghhJiIJPAXQ1JVlZSUFNasWYPT6cRgMITKY+bNm8eMGTMwGo0YDAbcbjcGgwGDwcADDzyAx+MhKioKRVFCE57gk2DT7/cPatUWzLqHh4czZ84cHA4HVVVVBAIBMjMzWbt2LSaTCbPZzIEDB/D5fERHR3P//fcTERERGtPChQvxer2EhYURHh7O2rVrGRgYGDTusrIyCgoKMBgMmM3mMX9PgxlnWb11+IKtT4MTeK93wfZZJvfe7LmEEEKIO5UE/uK6dDodVqv1mm4kFotlUJnM1Z1aIiMjB20bLIH49M9f77lMJhNTpkxh3bp1FBcXh7K9AElJSaxbty40mevqjPWnM89ms/ma4N5oNI5rS8VgYBns6y6EEEIIMZYk8BcTik6nIz8/n8TERMLCwgbVUaekpPD4449jNBrHvD5fCCGEEGKyk8BfTCiKogx5lwE+ubMgNdRCCCGEELdGAn8hhBDiDufz+YZcAO9qwfVQbtTSNrion8xVEmJyksB/AgoeVGWhDyGEECPhcrlob2+nrq6O1tbW6wb/TqeTCxcuUF1dfd0FDhVFITw8nJycHPLy8kKLMwohJg8J/MeQpml0dHRw+PBh2traCAQCQ07y7OzspLOzk+3bt9PU1DTkfoIrHU6bNu2alUyFEEIIh8PBvn372LRpE62trcTExGA0GofsYKVpGnl5efj9fg4cOHDNvhRFIRAI0NfXh8fj4f777+dzn/scsbGxY/VyhBCjQAL/MeJ0Oqmurua1117j0KFDOJ3O624b7DP+2muvhTraDMVkMlFQUMDDDz/M8uXLZXVQIYQQIe3t7bzzzjsMDAzw+OOPM2XKlBEliTRN48qVK2zfvp23336b5ORkHnzwQelSJsQkIoH/GNA0jZMnT/Lcc8+h1+v5x3/8R6ZOnXrD1pKKotywp7jX66WpqYlNmzbxwgsvEB0dzaJFi6TuUog7kKZpeL1eHA5HqCVsMGsb7HKl0+lwu92h9SusViuqquLz+XC5XKEVls1mMyaTKXSscLvdtLa2kpSURCAQwGQy4fV6cblc+P1+VFXFarXeMAkhRuZ2rCHh8/n4+OOPuXz5MkuXLmX58uXXtFu+FYFAALvdzs9+9jPeffddZsyYQVpa2iiMWAgxFiTwHwNut5vjx4/j9XpZs2YNixYtIiwsbERZEk3TSE1Nxe/389vf/pZjx45RXl4+Kgd2IcTEEggEOHXqFNu2baO/vx+/349Op8NkMlFUVMSiRYs4c+YMBw4coLW1FavVSllZGffccw9dXV1UVVXR1tYGQEREBOXl5VRUVGAymairq+PXv/41f/M3f8OJEydYsmQJx48fZ9euXaGF9rKzs5k5cyaZmZlSVjjKbDYbJpOJlpYWnE7noHVRRiIQCNDb20t4eDjp6emEh4ePymenqiq5ubnk5+eze/duOjs7JfAXYhKR9PAY8Hg8tLW1kZKSQl5eHhaLZcS3RhVFwWg0UlxcTF5eHufPn6e3t3eURiyEmEgURSEyMpIpU6aQlJREdXU1vb29FBYWYrfbqa2t5Sc/+Ql79+4lJycHs9nM73//e3bs2EFNTQ27d+8mKiqKadOm0d3dzTPPPEN9fT2BQID33nuPiIgIzp8/zyuvvEJPTw81NTXU19czdepUEhIS2LVrF7/97W/lGHMb5OTkUFxczBtvvMHevXtDd3VGKniOMBgMo16Ko9frMRqN+P3+m3YKEkJMLJLxHyOapqGqKnq9flQPwkajEZPJFJoXIIQYvkAgwMDAAA6HA4fDQWtr6zUrPk8UNpuNlStX0tzczJEjR5gzZw4PPvggHR0d/OY3v8Fms/G3f/u35Obm4vf7qa2tRVVVTp06hdVqZdasWVRUVLB48WIee+wxqqqqSE5Oprq6mm984xt0d3fj9XrRNI1AIEBKSgpLly7FZDKRkJDA1q1bOXbsGNnZ2RM22BsYGECv10+qY2FUVBQbNmzgX//1X/n2t79NXFwc0dHRIy7b9Pv9XLx4kfj4+FEa6WCT6T0WQvwPCfwnOTn4CnFr9Ho9fX19vPzyy7zxxhs4nU527949IWvZTSYTGzZs4Dvf+U7oMUVRUBQFp9NJf38/druduLg4VFVFVVXKy8vRNI2WlhZcLheNjY3o9XqOHTuG1+uloKCAxsZG3G43M2fOpKqqKpSU0DSNzs5O6urqcLvd7NmzB4AjR47w1FNP0d7ePi7vw8309PSwcuVKPB7PDedQTSSKolBQUMBPf/pTduzYwbZt2+js7BzxsT3YFlrOEULcHpN1UrsE/kKIu5Lf78dkMrF06VLa29txOBw8+uijJCUljffQrqGqKhkZGdc90QQCAXw+36BJon6/H/jkAufKlSu8++67HDlyhIGBAb70pS+xYMECXn75ZWJjY6+pK9c0jbq6OjZv3gxAdHQ0Dz74IKmpqZSUlOB2u2/jq711P/7xjwkEAhPy4u1mIiMjefjhh3nwwQdDn91I+P1+Xn/9daqrq0dhdNe6+iJRiLuR1+vF6/VisVjGeyifiQT+dwA58Arx2QU74oSFhWGxWMjIyGDZsmWkp6eP99CGTVEULBYLYWFhXLx4kcuXLxMREUEgEKCmpgZN0+jq6iIhIYF169ZRUlKCyWQiOjoav9/P+fPnmTNnDjD4OKLT6Zg5cyZf/epXiYyMJCwsjPDwcPR6PZmZmeP1cm/qD3/4A06nc1J3N9Pr9dddQOuzuHr13dHMTAYvLoPlXpM16ynESCiKwqVLl2hvb59U5wyQwH/MBBc/Ge3aWL/fj9/vD932F0IMn06no7Gxke7ubu67775JsRiRoiioqhr6vsfExLB8+XJ+85vf8JOf/IQ5c+bQ1dXF0aNHWbFiRaj7T0JCwqATVENDA+fOnWPFihXAJ+9FcA6SXq8nMjKS5ORkWZ11ktLpdNjtdvr6+qitraWgoICEhIQRnyd8Ph8NDQ2cPHmS1NRUYmJiRmnEQkweiqJw7NgxVFWlrKxsvIfzmUjgPwb0ej0RERF0dnbS1taGz+cbcaeFYNbl/PnzXLhwgbS0tEl3u0mI8aTT6ejt7eXEiRMYjUYKCgqwWq3jPaybslqtlJeXh1oo6vV6iouLQxN2P/jgA8LDw1mzZg0LFy6kqamJnp6eawI0nU5HRUUFycnJACQlJTFnzhzCwsLIz88nPj5+UpbMiE/o9Xry8/NJTU2lqqoKVVVZuHDhDRd6vNn6MYFAgIsXL/Lmm2/S3NzME088Efr9EeJuodPp6Ovr49ChQ0ydOnXSfQck8B8DJpOJqVOn8vbbb1NVVUVcXByJiYk3vB09nANwd3c3b731Fi0tLTzwwAOSmRPiM/D5fBw9epQzZ85w7733MmXKlElx1yw6OprPfe5zgyavms1m5s6dS1lZGQ6HA6PRGCrNsVqt5ObmXtOtKC0tjS9/+cuhx4uKisjJySEsLIz58+cTCAQkmTDJ2e12Hn30UTweD1u2bGHbtm1DXswFzzcDAwOoqorFYhny/KNpWuj365FHHmHZsmWTZhK1EKMheMf1/fff59KlS3zxi1+8bZ2zbhcJ/MeAqqoUFhayYsUKqqqq+Jd/+Rfi4+Ove8AMBAI4nU7MZvN1F1zxer1cuXIFj8fDokWLqKioGJW6UCHuBpqm0dTUxPvvv09GRgarVq2aNCULqqpis9mGfDw8PPyajK7JZBpyUSiDwTAoCDQajaFjkgT8dwaj0ci0adPIz8/n2LFjHD9+HKfTec12wVWff/3rX1NSUkJlZWVopedPbxcdHU1hYSH5+fnyeyLuOoqiUFdXx9tvv01lZSUrVvx/9u48OIrzTh/40z09t0aakTS6b3SAQEIgCQHmMKfBxGAjMGDAhDh24s2xKce1yR+bqmxqc+xWsrWuxPHG2XJiYnPbHOG0Efd9GyEO3egCofsYaTQz3f37I6v5GRtsDkkjaZ5PFWUsNTNfSaPpp99+3+87f9C2gH4QJsUBYrPZsHLlSkycOBEHDx5EbW3tfef7C4KA9vZ27Nu3D9OnT0d8fPx9jzOZTEhNTcXkyZMxZswYBAYGDsSXQTTkiaKIhoYGHDlyBK2trViyZAlSUlKGxGg/0aPSaDQwm82YNGmSdyH3/bS3t+PAgQOYMWMGvvOd7wxghURDgyiKqKqqwubNmxEaGorVq1cjMDBwyJ07GPwHkMlkwpgxYzBy5Ei4XK773koVBAFVVVU4f/481q5di2nTpj3wAqF3xG6oveiIfEUURXR3d+PEiRMoLCzEwoULMXXq1CE3YkPU19xuNzwez31H+on8nSRJaGpqwq5du9DW1oYf/OAHSEtLG5IdxBj8B9jnA/uD6HQ673brQ2GxIdFQ4XQ6cfHiRZw/fx55eXlYtGgR7HY7L56JiOi+BEGAy+XC4cOHUVJSgqVLl2Lq1Kn3nUI5FDD4D0K9HXvYn5+o78iyjM8++wz79u1DcnIyvvvd7yIpKcnXZRER0SDVG/qPHDmCw4cPY+7cucjPz0dISMiQHTAaevcoiIgeUu/FsyAIqKiowL59+2A2m/uEk5MAACAASURBVLF06VKGfiIieqDe/ZcuX76MTz/9FNnZ2XjxxRdht9uH5BSfXkO3ciKir9G7sV1LSwsKCgrgcrnwwgsvICsry9elERHRICYIAkpKSnDo0CFEREQgPz8fCQkJD+y2OFQw+A9CqqpCEIQhfUVJD8YpXANHEAS0trZi3759qKqqwsqVKzFv3jyYzWZfl0Y0KA3V6Qt0f70/T553Ho0oiqisrMSuXbugqipWr16NcePGDYt9K5gsB6HewN/R0eHjSqivKIri7eTEC7r+13uSc7vdOHnyJE6cOIGZM2di/vz5sFqtDDdEX9C7MRHPO8OHx+OB0+n0/mzp4Wg0GrS3t+PQoUNobGzEs88+iwkTJgybZitMIIOQzWZDbGwsDh06hM7OTl+XQ32gubkZxcXFsFgsQ26Xv6God4rPZ599hk8//RRjx45Ffn7+kNmki2igGY1GjBw5EufPn0djY6Ovy6EnJMsyampqcOfOHYSEhCAoKMjXJQ16vbMtHA4HTpw4gZs3b+KZZ57B7NmzERQUNGwGjNjVZxAKCgrC0qVL8dvf/ha//OUvMXPmTISGhg6bF52/aW9vx8mTJ1FUVIQZM2YgOTnZ1yUNe5Ik4fr161i3bh3S09Px2muvIT4+3tdlEQ1aer0e+fn5+MlPfoKf/exneOaZZxAXF/dYdygFQfjS1JL7fYz6hyzLKC8vx/79++F2uzF+/HjYbDZflzXoaTQa9PT04Pjx4zh58iSmTp2K/Px8REZGDqs79Qz+g5BGo8Hs2bNRWVmJK1eu4P333x8W88r8lcfjgaIomDx5MubOncs34H6m0WhQU1ODjz76CGazGS+//DLGjBkDSeLbHdGDiKKIcePG4Zvf/CYOHjyITZs2wWAwPPKAU28nFEVR0NnZie7ubthsNkiSxOkmA0RVVTidTgQEBOCZZ55BVlbWkO05P1B67xLfuHEDR48eRXR0NL7xjW8gJiZm2L1ueSYcpEJDQ/Haa6+htLQUFRUV6O7u9nVJ9Ji0Wi2io6MxatSoId8GbLDTaDTo7u7GRx99hLq6OvzsZz9DTk7OV26YR0T/YDKZsHTpUuTk5KCkpOSx5/vLsgxVVVFQUIDi4mK8+uqr3vBP/U8QBAQFBSElJQVxcXGwWCycMfA1BEFAWVmZt+Vzfn4+UlNTh+X5mr+Fg5Qoit55eaNHj4aiKL4uiR5T7y7MOp1uWL6JDBa9J7adO3fi6tWr+Pa3v42pU6fCYDD4uDKioSMwMBAZGRlITk6GLMuP9Ri9G1A2NzejuroaCxcuREREhHdUlfqfJEnQ6/W82HoIgiCgvr4e+/btQ3d3N9asWYO8vDwYjcZh+XrlK2IQEwQBWq2Wo5VEX6O3a8Xu3buxfft2fOtb38KSJUvYtpPoEfX+LgUEBDzxYxmNRkiShKCgIE5xpEFJEAR0dnbi4MGDqK6uxpIlSzB37lyYzeZhGfoBdvUhomFAq9Xi0qVL+Nvf/oZp06Zh+fLlDBpERPRAgiDA7Xbj7NmzOH36NKZNm4b58+cjICBg2IZ+gMGfiIY4rVaL6upqfPjhh0hMTMSPfvQjREVFDes3biIiejK9i3n37t2LkSNH4vnnn0d4eLivy+p3nOpDREOSqqqQJAm1tbX4wx/+AFEU8dZbbyEpKWnYdWEgIqK+I4oibty4gb/97W+IiIjAj370I6SmpvrFuYMj/kQ0JEmSBEEQsHHjRtTV1eGVV15h6Ccioq/V0tKCffv2QZIkvPzyy0hNTfWeU4Y7Bn8iGnJ6uyNt27YNZ8+exerVqzF37lx2TSIiogcSRRFutxu7du1CaWkpVq5cialTp/pV9yOeJYloyBEEAQcOHMDmzZvxyiuvYO3atcNqS3UiIupboihCFEUcOXIEO3bswJIlS/DCCy/AZDL5urQB5T+XOEQ0LGi1Wly8eBGbNm3C+PHjsXbtWgQHB/u6LCL6AkVRHnsvAKK+Jssyzpw5g02bNmHBggVYtWpVn7StHWo44k9EQ4Zer0dtbS02btyIyMhIfO9730NQUJCvyyKi+zAajbBarZyCRz7V2wiipKQEGzZsQHJyMn784x/Dbrf7ujSf4Ig/EQ0JoiiitbUVW7ZsgcPhwA9+8ANkZmZyMS/RILVgwQJMmDCBe2qQT2k0GrS3t2PTpk3QaDR48803ER8f7+uyfIbBn4gGLVVVAfzjjdvhcGDnzp24ceMG3nzzTcyaNQsGg8HHFdJgoqoqBEHgWo9BIjY2FrGxsb4ug/xY72LeP/7xj7hz5w5+85vfIDc319dl+dSwuf8my7I3JBDR8NG7pfrhw4dx7do1zJs3D1OmTGHopy9RVZXzyokIwD/OHQ6HA9u2bcOZM2ewevVq5Obm+v3AwLAY8Y+MjMTVq1fx7LPP+uVCDaLhSFVViKIIg8GACxcuQBAEPPPMM1i2bBlCQkJ8XR4NQiNHjkRBQQGKi4sxatQozi0n8kOqqsLj8SA6OhqHDh3CxYsXsXLlSqxcuRJms9nX5fncsAj+r732GrZs2YJNmzZh4sSJMBqNvi6JiJ6AqqpwOBwoLy/HrVu3EBgYiHnz5mH58uWIj4/nvH66rxUrVuDAgQN49913sXTpUkRFRfm6JKIhqXdU/IszKQRBGNSzK1RVRUdHByorK+FyuRAdHY0lS5bgO9/5DqxWq6/LGxQEdTD/BB9STU0N/vjHP+LMmTNIS0tjP2+iIUxVVaiqipaWFty+fRvBwcGYN28e5s6dy7ad9JWcTie2bNmCjRs3wmQyISUlxdcl+bXu7m44nU4EBQXx7ssQIwgCFEWBx+NBV1cXJEmC0Wgc9D9HRVFQX1+PqqoqpKamIj8/H5MnT/a7Xv1fZVgEf1VV0dTUhEuXLuHKlStwOp0M/kRDmCAIsFgsiIuLQ3p6OmJiYjinnx5Kd3c3SkpKcObMGTQ0NPi6HL8liiJOnTqFwsJCLF++nNNwhxhVVdHT04P29nYcOXIE0dHRGD9+PCRJGtS73AqCALPZjFGjRmH06NG863cfg/en9wgEQUBoaChmzpyJiRMncmEX0RAnCAIkSYJOp4MkSbyQp4dmNBqRmZmJlJQU9PT0+LocvyUIAkRRRFNTE9asWYOIiIhBPUWEvszj8eDWrVtoampCdnY2XnrpJWi12kH9ftx77jAYDIP+7oSvDIvg30uj0cBisfi6DCIi8jGj0cj1Xj6m1+shiiIsFgs32huCZFlGY2MjNBoN9Ho9rFYrdDqdr8uiJ8TLISIiIiL6kt67NLxbM3ww+BMRERER+QEGfyIiIiIiP8DgT0RERETkBxj8iYiIiIj8AIM/EREREZEfYPAnIiKiPifLMtxuNzvCEA0iDP5ERETU54xGI6xWKzdSIhpEhtUGXkRERDQ4zJw5EykpKbBarb4uhYj+D4M/ERHRIKSqKhwOByorK6HRaGC1WmG32yFJEhRFQWtrK+7cuQONRoOQkBDYbDYoioLu7m5IkgSj0QhBEHxWf3JyMpKSkiBJjBpEgwV/G4mIiAah6upqfPTRRygpKYHJZIIgCJg1axZmzZqFsrIybN++HTU1NdBqtbDZbJg5cyYSEhJw6dIl2O12ZGdnQ6vV+qx+jUYDjUbjs+cnoi9j8CciIhpkPB4PDh8+jBMnTuCVV16B2WzGxYsXcejQIUyaNAnHjh1DaWkp8vPzIYoizp49i8uXLyMoKAhlZWXweDxQFMXXXwYRDTIM/kRERIOMIAjQarWorq6GLMtISEhASkqKdxRdURTU19cDAEaNGoXMzEwYDAbcvXsXsiwz9BPRfTH4ExERDTKiKGLatGkoLy/HBx98gPDwcERGRmLBggVIT0/H008/jZqaGu/nUlNTMWPGDJ/O6f+i2tpaNDQ0YNSoUdDr9b4uh4jA4E9ERDToCIKAyMhIfP/730dlZSXKyspw4MAB/PKXv8Q777yD5ORk/PCHP8StW7dQVFSEQ4cOoba2FosWLfJ16V67d+/G7t278ac//QkRERG+LoeIwOBPREQ06HR1deHgwYMIDw/HmDFjMGLECAQFBeEXv/gFampq0NTUBJvNhvT0dCQmJqK7uxsXLlxAQ0MDAEBRFLjdbgiCAFEUodFoBvxugMPhQFNTE6cdEQ0iDP5ERESDjCiKqK2txW9+8xs899xzCAsLw759+5Camoq4uDgcOHAA+/fvx8yZM6HT6XDixAlkZWUhLi4Op06dwoEDB1BTUwONRoNRo0YhJycHNpttwOrv3bV3ME09osejKAp3Xx5GGPyJiIgGGYPBgBUrViA+Ph6lpaXo6OjAwoULMX36dFgsFqxatQojRoxAVVUVBEHAyy+/jJycHJjNZsyaNQuFhYVwuVyQZXnAQ5uiKKioqEBRURHGjRsHo9E4oM9PfcdgMCAxMRF2u/2+F3Gff23xIm9oEFRexhEREfmEoihwuVxwu90PDOgulwuCICAwMPCevvyyLMPhcMDpdEKr1UKj0UBVVe80n97HkyQJkiRBq9VCr9dDFMV7QprT6YTL5XqoejUaDfR6/T2bcqmqCpfLBZfLBVVVcevWLaxbt867JmHOnDk+3U/A36mqCo/HA1mWv/Q5SZK8XaJ6j9FoNJAkCaIowul0or6+Hnq9Hlar1dtVShRFAPD+zHunkomi6G0lq6qqd5pZ734OvDjwPY74ExER+Uh9fT3effdd7N27F52dnQ88btq0afj5z3+OsLAw78fa2tqwadMmvP3221/7PIIgYPr06fjRj36EpKSkewLYO++8g3Xr1sHtdn/lY2g0GuTl5eH111/HuHHjvB93Op3YuHEj/vrXv6KpqQkejwdJSUn48Y9/jMmTJ3PnXh+TZRnHjx/H6dOn0d3dDVmWvTs7P/PMM0hISEBRUREuX76M8vJypKSkIDMzExkZGaipqcG2bdvgdruh1WoRFxeHjIwMjBw5El1dXdixYwfcbjeSkpKg1WqRlJSEo0eP4ubNmxBFEUFBQUhPT0dWVhbsdjsAhn9f428jERGRj5SXl+PEiRMYN24ckpOTH7jTbWJiIsxm8z0fMxqNGD9+PL797W9/7fMIgoDExERYrdYvfS43NxeSJN13RPjzRFFEbGwswsPD7/m4JEnIzMzEypUr0dXVhZCQEEycOBHx8fHQ6XRfWxv1L0EQYLFYEBkZiTNnzqCoqAizZs1CZGQkTCYTDh48iHXr1iE6Ohrjxo1DVVUVjh49ijfffBP19fU4ePAg5s2bB5PJhPPnz+PMmTP4p3/6J5hMJjQ0NCA4OBhFRUVwOBzex9PpdBg7diw6Ozvx5z//GYsWLcLixYthMpl8/e3wewz+REREPhIdHY1Vq1Zh4sSJSEpKeqTRcaPRiLy8POTl5T1RDVOmTMGUKVMe+99rtVpkZ2cjOzv7ieqg/qHRaJCTk4OcnBzvdJ0XX3wRo0aNgtvtxk9+8hOkpaXhn//5nxEVFYWOjg4cOnQIWq0WiqIgOjoazz//PGJjY3HixAls2LABhYWFSEpKgqIoiI2NRVlZmff5DAYDJk2ahIULF0JRFHR0dOD69evo6OiA0WjkiL+PMfgTERH5SFxcHJYvX37PvGmi/vT54N3W1ob6+nqsWLECYWFh3rUkCxYsQE9PDyoqKtDR0YGbN2+ioaEBRUVFMBqNCA0Nxe3btwEAkZGRqKys9D6mx+NBVVUVrl69is7OTty+fRujR4+GXq9n6B8EGPyJiIh8RBRFToehAfX5ReSKokAQhHumeamq6l0LIIoi6uvrUVBQALPZDFVVMXv2bCQnJ6OgoAB6vR5BQUHeQC8IAnp6enDu3Dl0dnaiu7sbKSkpWLBgAQIDAxn8BwEGfyIiIiI/ZLVaERcXh4sXLyIvLw9RUVFobm7G4cOHkZKSAo1Gg6ioKCxYsABxcXEICgqCzWZDRUUFGhsbER8fD4vF4r2YUFUVBoMBo0ePxqxZs2Cz2RAaGgqz2cw7WoMEgz8REZGPqKoKVVXvGTEl6i+SJEGn03lDuFarxfLly7F161asW7cO2dnZKC4uRllZGeLj46HRaGCz2ZCUlIS4uDhva9nm5ma0t7cjJiYGOp0OWq0WWq0WoijCZDIhNjYWqampCAgI8PFXTF+k+fnPf/5zXxdBRETkj9rb21FZWQlJkjgHmvqd0+mEwWBAWloaAgICIAgC4uPjYbPZUF5ejpqaGoiiiKVLlyIzMxNutxt6vR7p6eloa2vDyZMnAQA6nQ4ajQZjx45FQEAAXC4XgoODERcX5+0gFRkZyVaugxA38CIiIvKRy5cv48MPP0R+fj6ys7O50RX1q97N4gwGwz2tY2VZRldXF7q7u2GxWGA0GqGqKtxuN1wuF3Q6Hc6dO4d33nkHCxcuxHPPPeed1tM7r19VVWi1WvT09HjvLPBCdvDhpRgREZGPtLS04NKlS5g+fToURfF1OTTM6XS6+y4m12g0sFgssFgs3o8JguA9vndX3+7ubu9mXp8fzTcYDN6/c5R/cONKCyIiIh8SBIEjozQk8LU69DH4ExERERH5AQZ/IiIiIiI/wOBPREREROQHGPyJiIiIiPwAgz8RERERkR9g8CciIiIi8gMM/kREREREfoDBn4iIyIdUVYWqqr4ug4j8AIM/ERGRjyQkJGDVqlVISUmBRqPxdTlENMxxX2UiIiIfiY2NxYsvvgidTsfgT0T9jsGfiIjIRyRJ8gZ+QRB8XA0RDXcM/kRERD7EwE9EA4Vz/ImIiIiI/ACDPxERkY/09PSgqakJPT097OxDRP2OwZ+IiMhHrl27hl/96le4ePEiPB6Pr8shomGOwZ+IiMhHWlpacOHCBTQ2NkJRFF+XQ0TDHBf3EhH1sd4pG7Isw+12Q5ZlH1dEg1VPTw80Gg3cbje6urrgdrt9XRLRl8iyDKfTCUVR4Ha74XA4hlX7WUEQIEnSPV22hisGfyKiPqSqKjweDzo6OlBdXY0bN26gsbERqqqyewt9SUlJCerq6nDgwAFUV1dDknhapsFHURRUVFSgqqoKJ06cQEdHx7B6P5MkCTExMRg9ejRiYmKG9e+hoHI1ERHRE+t9K+3q6sKVK1ewe/duXL58GU1NTVAUBZIkcfEm3UMQBO8FYmRkJKxWq69LIvoSURQhCIL3zqUgCPcMZAyH9zWHwwFZljFt2jS8+uqrGDNmDLRara/L6hfD95KGiGiA9I7yNzY24vjx49i8eTPa29uRk5OD3NxcxMXFQafTDYsTJPUdURRx6dIlvPPOO1izZg3y8vIgilx6R4NLb8jv/aOq6rB5LxMEAU1NTdi+fTv279+Po0ePwmw247XXXkNycvKwuqvRi8GfiOgJybKM8vJy7Nq1C3v27EFKSgpef/11ZGVlQRRFuFwuKIoyLE8i9PhEUYTNZoNer4fVakVYWBiDPw1KX3zvGg7BXxRFtLa2orCwEFeuXMG0adMgSRKKi4tx48YNJCYmDsspP8PvKyIiGiCqqkKWZZSWluLdd9/F+fPnMXnyZCxbtgyxsbFwu933dGoZDidL6lu9o6eqqrKrD9EA6Q39u3fvxt///nekpaXhpZdeQnl5Oerq6tDW1gaPx8PgT0RE/6CqKhwOBwoLC/HRRx+hsLAQ8+fPx6JFixAaGsruLEREg5AgCOjs7MSnn36K3bt3IzExEc8//zzsdjvKy8u9AzrD9UKcwZ+I6DE0Nzdj//792LJlC2RZxne+8x1MmTIFoijC4/FwWg89lM+P+BNR/xJFEW1tbdizZw+2bduG9PR0vPjiiwgJCYGiKPf8Hg7X93AGfyKiR6CqKmpqarB161bs2LEDaWlpeP7555GTk+MdKRquJwzqH71dU4io/4iiiM7OTuzduxdbt27F2LFjsWjRIthsNrjd7mHbxeeLGPyJiB6S2+1GeXk5PvzwQxw4cAC5ubl46aWXkJCQAI/H4+vyaIhRVRWhoaGYNm0aIiIiGP6J+klv69z9+/d7R/oXLVoEu93udxssMvgTET2Ezs5OnDp1Clu2bEFNTQ0WL16MhQsXwmq1+t2Jg/qGqqqIiYnBihUrYDQaGfyJ+oFGo0FHRwc+/vhj7Nq1C6NHj8ayZctgs9n8csCGwZ+I6Gs0NzfjwIED+PDDDyGKIlavXo2nn34aGo2G8/npiUiShKCgIM7xJ+pjqqpCkiS43W7s2rULO3bswOjRo7FkyRK/Df0Agz8R0QOpqoq6ujrs2LEDH330EeLj4/Hiiy96+/Mz9FNfYOgn6nsajQZutxvbtm3DBx98gIkTJ2LhwoUIDQ3129APMPgTEd2X2+3GtWvX8OGHH+LatWvIzc3FCy+8gLi4OADgIl7qM6IoDtvWgUQDTVVVaDQaOJ1OfPzxx9iwYYP3/dufR/p7MfgTEX2Bw+HAhQsX8N5776G+vh6zZ8/GggULEBwcDFmWOUJLfcbj8cDpdEKv10OSJF5MEj2h3imY69evx5YtW5CTk4MVK1YgMDDQ70M/wOBPRHSPlpYW7N27F9u3b4cgCPjWt76F8ePHIyAgwBv6Gc6oLwiCgKqqKuzevRuzZ89GWloaX1tET6B3pH/Tpk3YtGkTZsyYgeeeew4Wi4Wh//+Ivi6AiGgwUFUVjY2N2LBhAz744AMEBARgzZo1yMvLg9ls9k7FYDCjviIIAlpbW3Hu3Dk0Njb6uhyiIU0QBDidTmzZsgXr1q3DzJkzvdN72Hnt/+OIPxH5PUVRUF1djb/+9a84deoUJkyYgHnz5iEhIQGCIHBqD/UbRVHg8Xj4GiN6TKIoQhRFtLe3Y+PGjdi+fTvmzp2L/Px8mEwmhv4vYPAnIr/ncDhw6NAhnD59GlOmTMGyZcsQFhYGgB1XqP+IogitVuv9r8FggCRJfM0RPYLu7m4UFxdj9+7d+OSTTzBhwgQ899xzMBgMDP33weBPRH5NVVXcuXMHR44cQU1NDWRZxs2bN1FSUuLr0sgPFBUVoaWlBUVFRdBqtdBoNL4uiWjIaGtrw+XLl3H69GkUFxcjIyMD3/jGNxAUFMROWQ/A4E9Efs3j8aC0tBQtLS2w2+04fPgw9u/f7+uyyE+0t7ejpqYGGzZswJ49e7iGhOgRCIKA2NhYTJo0CS0tLZg2bRqio6MZ+r8Cgz8R+TWXy4WbN28iMDAQ3/ve9xAZGYnOzk5Ot6B+JwgCLl++jL/85S9Yvnw5cnNzOeJP9AgMBgOCg4NRUFCAw4cPe9dl0YMx+BORX1MUBa2trdDpdEhISMCIESMY+mnAdHV1ITAwECkpKcjJyYFWq/V1SURDhiAIEAQBTU1NEEURNpuN799fg8GfiAj/WGgpCAJEkV2OaeD0jk72BhiO+BM9OlVVve/h9NV4hiMiArv3EBHR8McRfyKiAfT5C4y+GJ1SVdW7kK0/Rry+eEHEEbW+pSgKenp62HaQiAYEgz8R0QCRZdkb8nqnFfW2cOyd6vHFCwNVVSHLsneTGuD/h/HenSorKyuhqipGjBgBvV5/z3N+/tiv88VjFUWBy+VCZ2cnPB4PAgICoNPpIEnSl+p91AuCx/13w01gYCDS09Nhs9k4zYyI+h2DPxHRALl58ybee+89VFZWwmKxICgoCDk5OXj66acRGRkJQRDgcrkgy7I3YLtcLuzduxd5eXkIDw/3hnFBEKDT6dDc3Iz169fD5XLh+9//PsLCwqDVaiEIAhRFgdvthqIo0Gq1kKR/vOV7PB7vxYQkSRBF0Xusx+PxPndDQwO2bNmCI0eOQBAEBAYG4qmnnsKzzz4Lu90OWZbhdrshCIL3OWVZ9t6F6H383gsEj8cDrVZ7T116vR6iKEKWZSiKAlVVvTX5w0VBdnY2xo4dC41Gw+BPRP2OwZ+IaIA0NzdDVVUsWbIEI0aMwJkzZ7B79250dnZi6dKlcLvdKCwsRFtbG5KSkjBmzBhcu3YNv/vd7/CTn/wEU6dORU1NDW7evAmTyYS0tDRoNBqoqorGxkacOHECdrsdI0eOhN1ux507d3Dz5k10dHQgISEBI0eOhKIouH79Ojo6OqDVapGSkoKwsDDU19fjxo0baGpqQmJiItLT01FVVYU9e/Zgzpw5mDFjBgoLC1FdXY2amhoYDAZUVVWhoqICBoMBo0ePhslkwq1bt9Dd3Y3Ozk7o9XpkZWXBYrGgubkZ169fx4QJE1BbW4vi4mL09PRg9OjRiIyMRF1dHWpqaqDVapGUlISIiAi/CP6iKEKn0/m6DCLyEwz+REQDRBRFWK1WpKamYvz48RgzZgx0Oh3Onz+PvLw8nDx5EhUVFQgNDcXWrVvxxhtv4M6dO7hz5w5aWlpQXl6OjRs3AgB6enpw9uxZvPDCC3C5XLhx4wZMJhNcLhcyMjIwZ84cHDhwABUVFZAkCZ988gm++c1vorGxEVu2bEFmZibq6uqQnp6ORYsW4Z133oHL5YLRaMSnn36KVatWITAwEFarFR0dHQCAKVOmQKPRIDAwEKdOnUJBQQFMJhPu3LmD69evY/To0Vi/fj1EUURMTAxKS0vxgx/8AOPHj0dBQQEKCgoQFxeHt99+GwEBAZBlGceOHUN+fj5OnDiBgoICPP3007Db7YiIiPDlj4qIaFjifUUiIh8xGAyIi4uDw+GA0+lEYmIiZs6cidmzZ6O9vR3Hjx/H5MmTYbfbkZubi+DgYOTk5GDevHlITU1FaWkpysrKoNFoMHbsWLz66quYPn067ty5g9u3byMtLQ1z5szBggUL0NHRgUuXLqGmpgadnZ2Ijo7G/PnzMWbMGFRVVeHo0aMYOXIkcnNzodVqcfr0aURERODll19GY2Mj/ud//gd//vOfUVRUhNbWVly4cAHt7e3Iy8tDYmIiioqKUFVVhVu3buGpp57Cq6++ipiYGBw6dAgNDQ04evQo8vLyUFhYiJKSEuTk5GDs2LGorq5GUVERurq6EBkZiRUrViApKYnTXoiI+gFH/ImIfMTlcqGxsRE6nQ6qquLGjRtoaWnBiBEjUF9fajv7tgAAIABJREFUD4fD4Z3u0jud58qVKzAYDGhsbERDQwPa29shSRKsVivsdjvsdjs0Gg2amppQW1uL5uZmBAYG4vbt2+jo6MD8+fMBAPv27YPNZsPUqVNhtVpRX1+Py5cvw2azwWQyISoqCpIkIScnB9nZ2SgtLcW+ffuwY8cOtLa2orGxEVVVVTh9+jScTifi4uJgsVigqioSExMRGRmJvLw8bNmyBZ999hna2towadIk7N69G3fu3MHZs2chCAISEhIQGhqKO3fuwG63IzIy0q82sXK5XOjq6oLRaIROp/OL6U1E5DscUiEiGiCqqsLhcKCurg6lpaU4dOgQjh07htTUVAiCgB07dkCSJKSmpsJgMKC+vh5dXV0AgNu3b+PkyZM4dOgQMjMzER4eDlmW0dDQgO7ubty+fRslJSWorKyEoihoaWnB2bNnIUkS4uPjodfr0draitbWVmRlZWHlypVob2/HBx98AIvFgoCAAKSlpWHSpEnIzc1FdnY26urqsH79elRWViIqKgpZWVnQarVwuVwICQlBdHQ0srKykJeXh2nTpsFms0FRFO8C38mTJ0OWZXz88ceIiopCeHg4QkNDERISgrFjx2LixImYMmUK4uLi4PF4YDAY/G6kv7q6Gps2bUJ5eTlbehJRv+OIPxFRP+vtaCNJEhwOB44cOYJLly6hoqICer0eEyZMQFBQEJKSknD37l0cPXoUqampuHv3Lurq6pCSkoLLly/DarUiPDwchYWFaGlpQXBwMKqrqxEYGIhbt25h//796OrqQlxcHGJjYxEWFoa7d+9CVVVERESgs7MTxcXFqKys9I7Qh4WFITg4GNOmTUN1dTWamprQ0tKC5ORkuN1uXL16FdXV1YiNjUVNTQ2CgoKQmpqKwMBAtLS04MqVK2hra8O4ceMQEREBu90OQRDQ3d0Nk8mEnJwc7N+/H9OnT4dOp8P48eNx8eJFXL9+HW63G3q9HiEhITAajQAAp9MJSZKg1Wr94iKguroaW7duRUxMDJKSkrydl4iI+gPfYYiI+pnb7UZJSQnKyspgMplQX1+P1tZWhIWFITExEfX19aivr0dGRgZKSkrgcDiQl5eHsrIynDt3DuPGjcPdu3eh1+sxatQo1NbWIjExEbGxsWhqakJAQADS09PR2dkJk8kEs9mMhoYGhIeHo6amBgCQm5uL5uZmuFwuAMCZM2cQGBiIxMREnDlzBmPHjkVJSQlqamoQHR2N69evQ1EUjB49GiUlJbh8+TKCgoIQHx+PiooKyLKM6OhoVFVVQRRFdHZ2oqqqComJiSguLkZ9fT0AwGKxIDMzE11dXdi1axcAYMyYMSgpKUFXVxeSkpJQUlLi/T7t3LkT0dHRyMnJgclk8sFPa2Bxx2giGkgM/kRE/czj8aCurg4lJSUQBAHR0dHeudxlZWXeqTE6nQ4hISFQFAXl5eUwGo2oqqqCRqOBRqPx/t1qtaKxsREAoNFo0NjYCFEUYTAYoKoqSkpKoCgKdDodgoKC0NXVBYfDAY1G4+3yExYWBlEUUVJS4u3p3zv63t3djQsXLgCAd/1AUFAQVFVFVVUVysrKIAgCJEmC2WyGIAjeTcQkSfJ+Tb3/3mAweJ/n8x/rXatw+/ZtaDQaAMC5c+fQ1dWFzMxMvwj+REQDicGfiKif9fazj4+P9+7a2zvS+8UR3y/u3vtFn1/s+/n//7z7fe5+z/Mwz997XO/Hv+px7vd8n9/h936Pe79/Z7FYYDabH/AdICKix8XgT0TUzzQajbfjDhERka8M/5VTRERERETE4E9ERERE5A8Y/ImIiIiI/ACDPxERERGRH2DwJyIi8hFFUdDd3Q2Px+PrUojIDzD4ExER+YjVasW4ceMQGhrqFzsVE5FvsZ0nERGRj4wcORJvvvkmgoODIUk8JRNR/+K7DBERkY+YzWZuVkZEA4b3FYmIiIiI/ACDPxERERGRH2DwJyIiIiLyAwz+REREPnLr1i2sX78eJSUlbOlJRP2OwZ+IiMhHysvL8Ze//AXFxcWQZdnX5RDRMMfgT0RERETkBxj8iYiIiIj8AIM/EREREZEfYPAnIiIiIvIDDP5ERERERH6AwZ+IiIiIyA8w+BMRERER+QEGfyIiIiIiP8DgT0RE5COqqsLj8UBRFF+XQkR+gMGfiIjIR0wmE2JiYmA2myEIgq/LIaJhTvJ1AURERP4qLS0Nb7zxBmJjYyFJPCUTUf/iuwwREZGP2Gw22Gw2X5dBRH6CU32IiIiIiPwAgz8RERERkR/gVB8iIiIfURQFiqJAFEUIgsAFvkTUrzjiT0RE5CO3b9/Gnj17UF1dzZaeRNTvGPyJiIh8pKqqCps2bUJZWRlkWfZ1OUQ0zDH4ExER+YjT6UR9fT26urqgqqqvyyGiYY7Bn4iIyIc4t5+IBgqDPxERUT9TVRWyLD/0PH5FUSDLMu8CEFGfYvAnIiLqR4qi4NatWzhw4ABKS0sfKswfP34cx44dg9PpHIAKichfMPgTERH1s+bmZuzbtw+7du1CS0vLVx5bX1+P3//+9zh79iw8Hs8AVUhE/oDBn4iIqB8JgoDExESMGDECp06dwvnz5+Fyue57rKIo2Lx5MyorKzF58mQYDIYBrpaIhjNu4EVERNSPBEGA1WrFM888g2vXrmHHjh2IiopCenr6l469dOkStm7disWLFyMrKwuS5J+naVVV4XK50NnZCbfb7ety6DEJggCLxQKDwQBR5FjzYOCf7yhEREQDSBAExMbGYubMmdiyZQtOnjyJ2NjYe45pb2/Hrl27oNPpsGzZMpjNZh9V61sulwtlZWU4evQoTp8+jcbGRi5yHqJ0Oh3y8vIwbdo0ZGZmwmQysYOVjzH4ExERDQC9Xo9Jkybh/PnzOHbsGLKzs72fU1UVRUVFOH78OJYtW4bw8HC/DUiVlZX4r//6LxQVFSErKwuTJ0+GKIoM/0OMKIpobW3Fnj17sHfvXvzmN79BdnY2tFqtr0vzawz+REREA0AQBISHh2PGjBl4++23cfz4ccTGxkJRFHR0dOCTTz6B3W7HU0895bdz+10uF65du4aKigqsXr0a+fn5HCUewtxuNy5evIjf/e53OHz4MNLT0xn8fYzBn4iIaIBIkoTp06ejrKwMu3btwvLly/GnP/0JFy5cwJUrV7BmzRokJCRAo9H4ulSfaGlpwfnz5zFixAgsWrQIYWFhvi6JntCUKVNw5swZbNiwAatWrUJgYKCvS/JrXGlBREQ0gAwGAxYuXIi4uDicPXsWzc3N+OSTTzBq1CjMmDEDer3e1yX6jKqqUBQFBoMBAQEBvi6H+oBOp4PNZkNPTw+naw0CDP5EREQDRFVVqKqKyMhIPPvss7h79y5+/etfo6KiAgsXLkRERIT3OH8lCIL3AoCGD3+9izXYcKoPERHRAJBlGd3d3WhubkZ1dTVqa2vR1taGc+fOYeTIkbhx4wYMBgNiY2MREREBo9EIURQ5v52I+gyDPxERUT/q7UlfV1eHU6dO4eTJk7h27Ro8Hg8CAwPx9NNPw+PxYNu2bfj444+RlJSEqVOnYsqUKYiPj4fBYBiU4f/zdyUGY31E9GUM/kRERP1EURS0tbXh5MmT2LNnD0pLS5GcnIxVq1YhPT0doaGh0Gq1kGUZLS0tKC8vx4ULF/D++++joKAA3/jGN7BgwQIEBQU9Ubju6elBa2srZFmG1WqFJEloaWlBT08PRFGEXq9HYGAgdDqdt2aHwwFVVSFJEsxmMywWCwRBgKIocDgc6OjogMfjgdFoRGBgIPR6PS8AiAY5Bn8iIqJ+oKoqmpqaUFBQgI0bN0Kv1+P111/H5MmTYbVaodVq7wnKqqoiKysLc+fOxaVLl/D+++/jrbfeQldXFxYvXgybzfbYu5/W19dj69atKCsrw6pVqxASEoL169ejqakJRqMRdrsd2dnZyM3NhSzL2LBhA65evQqdTgedToeRI0fiueeeg81mQ01NDY4ePYqrV6/C6XQiKioKU6ZMwfjx49l6k2iQ4+JeIiKiPqaqKtra2rB792787W9/Q2ZmJn7xi19g4cKFCAsLg06n+1JAFgQBGo0GQUFBePrpp/G73/0Oa9euxdtvv43//d//RUNDw2Mv+rVarcjIyEB5eTlqampQW1uL8vJyTJw4EXPmzIEsy/iP//gP7Ny5E93d3Th37hzsdjsWLlwIk8mEv/71rzh06BBu376NjRs3YteuXUhISMCzzz4Lj8eDffv2oaKi4okXJQuCcM8fIupbHPEnIiLqY06nEydOnMDevXsxduxYrF27FvHx8Y80Yh8cHIw1a9ZAURR88MEHsNlsWLlyJcxm8yPXExgYiDFjxiA6Otp7pyE0NBTjx49HWloapk6dCpPJhA8++MDbUjQoKAh2ux1xcXGw2+2QJAnl5eW4desWFi1ahGXLlkGr1SI7Oxt1dXUIDQ392joaGhrQ3Nz8wAuE5uZmtLS0oKurCxUVFQ/cyEyr1SI0NBQWi+Wx74IQ+SMGfyIioj4kyzJqa2uxb98+mEwmrFq1CnFxcY8VUE0mE5YvX47S0lJs2bIFubm5GDdu3GPV1dtKFPjHyLosy96WmQaDAZMmTcL69evR0dEBWZZx5swZOJ1O3Lx5EwaDAeHh4WhoaIAkSUhMTPTuwGq322G327/yudva2nD9+nWcPHkSN2/efOBxTqcTJSUlkGUZf/jDHx7YAtJoNGLUqFGYNGkSkpOTYTQaeYeA6CEw+BMREfURVVXhcDhw8eJF1NbWYsWKFRg5cuQTjUoHBwdj5cqV+Nd//Vfs3LkTmZmZD90T3e12o7OzEwaDAbIse6cTAbhnOo3H48Hdu3dhNBohSRI0Gg3S09Mxffp0JCcn4/Llyzh27BjGjBnjncakKApEUUR3dzdaW1vvWQD8eR6PB4cPH8Zbb72FkJAQxMbGQqvV3nfU32q1IioqCqIowu123/drEgQBnZ2d2LlzJ06dOoXvfve7yM7O9l6IENGDMfgTERH1odbWVly7dg1RUVGYNGnSE09FEQQBaWlpmDNnDvbv34/m5uavHWHv1d7ejuPHjyMoKAgejweqqiIgIACiKKKrqwsNDQ0wmUyoq6vDrl27kJubC5PJBFmWERwcjKSkJAQGBqKiogK3b9/GzJkzYTabcfLkSYSHh8NisaCyshJ1dXWYMGEC0tLSvlRDY2Mj9uzZg8DAQLzxxhvIyMh44pDe3t6OCxcu4L//+79x+PBhJCcnIyQkhKP+RF+DwZ+IiKiPKIqChoYGVFVVIScnB8HBwX3yuCaTCU899RS2b9+OU6dOYeHChQ/17wRBQH19PY4dOwZVVZGQkIDo6Gi0t7fD4XDgk08+gclkQk1NDTQaDVavXu1t73nu3DnIsoz29na0tbVh6tSpSE5OxrRp07Bjxw68++67CA4ORk9PD5KSkh443aa6uhpXr17Fa6+9huzsbOh0uif+ftjtdsyaNQtnzpxBcXEx6uvrYbPZuDss0ddg8CciIuojsiyjoaEBDQ0NGDFiBPR6fZ88riiKGDFiBEJDQ/Hpp59iwYIFD/XvLBYLnnnmGURFRaGnpwejRo1CTEwMOjs7sXTpUjgcDgiCgJSUFGRmZiIpKQkulwuLFy9GTU0NDAYDYmJiEBYWhrFjxyIgIABTp05FUFAQysrKIEkS7HY7Ro4cicjISKiqClmW76nB4XDA4XAgJiamTxfiarVapKamorS0FJ2dnU/cUYjIHzD4ExER9RFFUdDe3g6Xy4XQ0NA+G4EWBAFmsxkhISG4fPkyCgoKHmlai16vh16vR21tLWprawEAAQEBsFgs3kW/1dXVqK6u9j5fTEyMd/Gvy+XCuXPn7nnM6OhoCIIAVVVRXFyM4uLi+z53YWEhenp6IEl9Hzk0Go23BiL6egz+REREfaR3xFsUxT4PuoIgwGAwoLq6Gps3b37i+exf3Dzsfp/7qkD9MMcAwJ07d9Dd3d0vbTcZ+IkeDYM/ERFRHxEEAaIoQlEUeDyePnvc3lF5p9OJyMhILFiwYMgsZL127RpKSkq8dw/60lD5HhANFgz+REREfUQURQQGBkKSJDQ1NXlbXvYFh8OBhoYGZGZm4rnnnuuTxxwIVqsVGzdu7NMLISJ6PAz+REREfUSj0SA0NBShoaGorKxET08PjEbjEz+uoiiorKxEU1MTVq9e3S/z5fuLyWSCyWRCVVVVn4/69z6mwWDg6D/RQ+A+10RERH1EEASEhoYiJiYGN27cQHt7e588rtvtxoULFyBJEp566qk+ecyBEh8fj4yMDHz00UeorKyE2+2GLMtP9MflcuHKlSs4e/YsYmNjYbfb+2UNAdFwM3SGDIiIiAY5QRAQEhKCjIwMbN68GSdOnMALL7zwRKPRqqri2rVr+Pvf/44ZM2YgLCysDyvuf6GhoVi1ahV++9vf4l/+5V8wduxYhISEPPbjqaqKxsZGXL9+HeHh4cjPzx9y3xMiX2HwJyIi6iO9bTfHjh2LgoIC7N+/Hzk5OYiLi3vsx3Q6nfj444/R1taG+fPnD7lNqjQaDXJzc/HTn/4UR44cQWlpKWpqar50nCAI8Hg83rsCKSkpkCTpvp17BEHAmDFjsHDhQqSnp0OSJE71IXoIDP5ERER9SBRFxMfHY8GCBVi3bh0+/PBDvPLKK489Kr1z504cOHAAK1aswOjRo/u42oFhMpkwYcIEjBw5Enfv3v3SJl/AP8J8S0sL1q9fj87OTnzve9974PoIrVYLq9WK4OBghn6iR8DgT0RE1IcEQYDRaMTs2bPhcDiwbt06KIqCFStWID4+/qFG7FVVRUdHB7Zv347f//73yM/Px5o1a2AymQbgK+gfWq0WwcHBsNlsD+y/f/fuXdhsNmg0GiQnJyMwMPC+xwmC4A37DP1ED4/Bn4iIqI/1TvmZO3cuXC4XPv74Y9TU1GDZsmUYN24cLBbLAxej9vT0oKioCBs3bsSxY8ewePFivP766wgMDBzyIffzgf1Bn//8cUNtWhPRYMfgT0RE1A96O/w8//zzsNls2Lx5M/7t3/4Nubm5yMnJwbhx4xAdHQ2DwQCPx4M7d+7g+vXrOH36NI4cOQJRFLFmzRq89NJLsFgsQz70E5HvMfgTERH1E0EQYLVaMXfuXKSnp+PgwYPYsWMHdu/eDbPZDLPZDJ1OB7fbja6uLrS2tsJisWDFihWYN28eYmNjERAQwNBPRH2CwZ+IiKgfCYIAk8mE1NRUpKamYu3ataisrMSxY8dw7do1dHZ2QqfTIS0tDZMnT0Z6ejo3pBoCVFWFy+WCoijQ6/UQRRGqqsLj8cDtdkOr1X7lwmNZltHd3Q1FUWA0Gr90rMvlgtPphE6ng8Fg8D5nT08PVFX1PifRo2DwJyIiGkB6vR5paWlIS0vzdSn0BFpaWrBt2zbcunULzz//PMaPHw+n04m9e/fi2rVrmDBhAqZOnXrfzkQNDQ04evQoTp06BZfLhVGjRmHmzJkYMWIEJEnyfq6qqgo2mw0zZ87ExIkTIUkSNmzYALfbjeeff577F9AjY/AnIiIiekRNTU344IMPcPr0aTgcDmRkZKC1tRVvv/02rl69irVr1yIzMxOKonhH7HtH8ffu3Ys//elPiIyMhM1mw3vvvYerV6/ixz/+Ma5cuYJf//rXaG1tRUxMDKqqqvDRRx/hjTfewOLFi/H+++8DACZNmsTgT4+MwZ+IiIjoMXg8HiQlJeHEiRO4efMmqqqqUFFRgYiICDidTuzcuRPFxcV49dVXoSgKtmzZguDgYNTW1kJVVUyePBkLFixASUkJtFotnE4n3n//fYiiiL/85S8YPXo07ty5g29961t46623kJOTA0EQIMsyp4LRY+HkMCIiIqJH1LsXwdy5cyGKIj777DNcuXIFcXFxGDt2rHcO/qlTp3D16lXcuHEDJ06cgMViweTJk2Gz2bB+/Xr853/+J6qrqxEZGYnOzk40Nzdj/PjxGDVqFIKCghAXF4dJkyahpqYGDoeDLU7piXDEn4iIiOgxJSYmoru7G7t370Z3dzdmzJiBtrY27+eSkpJw9epV6PV6hIaGIiMjA1FRUTCbzbhy5QpOnz6Nt99+G4WFhXjuueeg0WigKApkWYaqqlAUBS6XCxqN5kubln1+IzTeAaCHwRF/IiIiosegqioEQcCECRNw/Phx1NTUIDc3FwCgKAoiIiKQkZGBY8eO4dixY0hOTkZISAgKCwvR1dWFOXPm4Kc//SmysrJQWloKWZYRERGBK1eu4MqVK6irq8PNmzdx/fp1JCcnIyAgALIsw+PxoK2tDc3NzWhpaUFXVxcURfHxd4OGAo74ExERET2i3t2ZHQ4HpkyZgsjISCQlJSEyMhKKosBsNiM4OBhjxozBhg0bIMsyvvvd70Kr1eLKlSs4ePAgkpKSEBERgebmZiQnJyMtLQ3Lli3D73//e/z7v/87UlJSUFRUBL1ejx/+8IeIjo6GTqdDU1MTtm3bhtDQUBgMBmRlZWHChAkwmUy+/rbQIMfgT0RERPSIAgMD8eyzzyIhIQGRkZFYs2YNIiMjERYWhokTJ8JoNHqn59jtdtjtdmRkZMButyM/Px8hISG4efMmWlpaMHv2bDz99NOIi4tDVFQUDAYDDh48iD179qClpQW/+tWvMHXqVJjNZsyfPx/V1dVQVRUNDQ0wGo1wOBz3TPshehAGfyIiIqJHFBISglWrVkGr1cJsNuOll16CVquFXq/H/PnzoSgKbt26hYKCAlgsFsyZMwcRERHQarVISEjA0qVL0dXVBVmWYTKZYDKZIEkS9Ho9Zs2ahaysLISEhGDDhg04efIkwsLCMGvWLKxevRoul8tbhyiKMJvN990vgOiLGPyJiIiIHpEkSQgJCfH+v9Vq9f49KCjI27M/ODgY06ZNw6RJk6DX673HmM1mmM3mBz52eHg4Xn75ZVitVlRUVMBsNkMUxXuek+hRMfgTERER9TGtVotx48YhIyMDRqMRovjo/VQiIiLw7W9/Gw6Hwzt1iOhJMPgTERER9TFBEKDX6+8Z5X8coijCYrH0UVXk79jOk4iIiIjIDzD4ExERERH5AQZ/IiIiIiI/wDn+RERENCDcbjfcbvcDP9/T0wPgH/PjZVlGV1fXfY8TBAFardbbJ5+IHg6DPxEREfUrl8uF2tpafPbZZ6isrHzgcZ2dnbhw4QJ6enrw3nvvQavV3vc4vV6PESNGYMyYMQgLC4MkMc4QPQz+phAREVG/KiwsxLvvvovbt28jOjoaOp3uvjvNKoqCiIgI7+ZXX2yB2Tu639HRgX37/l97d9cSVdfHcfy39p7xcZQyKWNCTRvMJKOSxIgg6KTygbKi8ETKQAx8Kb2EIIgkiCgqEbECxQjKwjopxqCJDExC8iHTcWbfR91X93Vrl1c17XHW9wNzNmz+c+Dwne1ea/Vp7969amtr09atW39qu0zANoQ/AABImbm5OfX39ysajercuXOqqqpSIBBYNvz/iTFGxhhNT09rdHRUvb29Ki8vV0lJyYqHYQH4C+EPAABSZmxsTP39/WpsbFRTU5NCodAvXzOZTGrnzp2KRqN69OiR9u/fr4qKCu76A/+AvxAAAJAynz9/1qdPn1RTU6P8/Hy5rvvLr2AwqPXr12vPnj368uWLpqamlEwm/f6oQNoj/AEAQEo5jvPLJ9guJy8vT5KUSCR++7WBTET4AwCANeln1gkANiP8AQAAAAsQ/gAAYE1iMS/w7/AXAwAAUiaZTCoej6dk8e23a3J6L7A6hD8AAEiZcDisiooK3blzR/Pz87/tutPT0xoYGFAgEFBxcTF3/4FVYB9/AACQMuXl5Tp69KguXbqkjRs3qqmpSevWrfula3769Em9vb2KRqPq6OhQSUkJ4Q+sAuEPAABSJhgM6tSpU4rH4+rp6dGdO3f+uw3n33mep6WlJXmep2AwuOIjPHNzcwoEArpw4YKOHDmy4vUA/C/CHwAApFRxcbE6OzvV2tqq58+f6+vXr//3HmOMvnz5onv37ml2dlZnz55VTk7Oslt2hkIhVVZWqrS0VFlZWTzjD6wS4Q8AAFIuKytL4XBY4XB4xfdMTExobGxMMzMzamlpUSgU+oMTApmPB+IAAEBa+Paoz7cXgN+L8AcAAAAsQPgDAAAAFiD8AQAAAAsQ/gAAAEgZdl1KH4Q/AAAAUmq5bVnx5xH+AAAgLRhj5DiOFhcXl93rH2tPPB7X3NzcDw9kw5/DPv4AACAt5OXlacuWLXr58qVGR0dVVFSkYDDo91j4SZ7nKRaL6cWLF9qzZ49ycnL8Hsl6hD8AAEgL+fn5qqur09DQkK5evarJyUmVlZUR/2vU5OSkHj58qImJCV28eJED2dIA4Q8AANKC4ziKRCI6ffq0+vv7NTAwoFAoJNd1/R4NP2FmZkae5+n48ePat2+fsrKy/B7JeoQ/AABIGwUFBTp8+LC2b9+uaDSqqakpJZNJv8fCT8jNzVVVVZXKyspUUFAgx2Fpqd8IfwAAkDaMMcrLy9O2bdtUVlameDzOjjBrlOu6ysnJIfjTCOEPAADSjuM4ys7OVnZ2tt+jABmDn2AAAACABQh/AAAAwAKEPwAAAGABwh8AAACwAOEPAAAAWIDwBwAAACxA+AMAAAAWIPwBAAAACxD+AAAAwHcy9bRowh8AAABW8zxPyWRSxhgFAgE5TmYmcmZ+KgAAAGCVlpaWND09rUQioVAopEAg4PdIKUH4AwAAwFqu62phYUHj4+PKzs7Wxo0b5bqu32OlBOEPAAAAa3mepzdv3igWi6m2tlaVlZUyxvg9VkoQ/gAAALCSMUZTU1MaHBzU7Oys6uvrVVRU5PdYKUP4AwAAwDrGGC0uLurJkyd6/fq1Dh48qPr6+ox9vl8i/AEAAGChRCKhaDSqoaEh1dTUqKWlRYWFhX6PlVKEPwAAAKwzNjamGzduqLCwUO17I/99AAADK0lEQVTt7YpEIn6PlHKEPwAAAKxhjNHExITu37+vpaUltbW1qbq6OmN38vke4Q8AAABrzM7OanBwUB8+fFBra6sOHjyo3Nxcv8f6Iwh/AAAAZDxjjBYWFjQ8PKzHjx/r0KFDam1tVUFBgd+j/TGEPwAAADLat335X716pYGBAVVXV6u5udmq6JcIfwAAAFggFovp9u3bKi4u1vnz51VZWSnHsSuF7fq0AAAAsIoxRuPj47p586YWFhbU2dmpXbt2ZfR+/Ssh/AEAAJCRXNfV/Py8+vr69O7dO505c0YHDhxQMBj0ezRfEP4AAADIOMYYGWP04MEDjYyMqLGxUc3NzdZGv0T4AwAAIMMYY+S6rp49e6a+vj41NDTo5MmTWrdund+j+YrwBwAAQEZxXVevXr3SlStXFIlE1NXVpbKyMusW8/6dfasaAAAAkLECgYA+fvyoa9euyfM8XbhwQZFIxO+x0oLdP3sAAACQMVzXleM4unbtmmKxmDo6OlRXV+f3WGmDO/4AAABY81zXVSKRUE9Pj0ZHR9Xd3a2WlhZlZWX5PVra4I4/AOivUx0BAGuP4zhyHEfDw8O6e/eumpubdeLECRUWFvL9/h3u+AOwmud5SiQSWlpakud5fo8DAPiXksmk4vG4RkZGdOvWLdXW1qq9vd36HXyWwx1/AFZzXVcbNmzQ/Py8JiYmFI/H/R4JALBKyWRSmzdv1tTUlC5fvqxNmzapu7tb4XDY79HSEnf8AVgtJydHDQ0NGhkZ0fXr15VMJhWJRKw8yh0A1pKvX78qFovp6dOnchxH9fX16urq0u7du/kOX4Hx+N82AIt5nqeZmRn19/fr6tWrmp6eVnFxMYvBACDNzc7OanJyUkVFRTp27JiOHDmicDgs13V5rn8FhD8A63mep7m5Ob1//15Pnz7V27dvlUgk/B4LAPADBQUFKi0t1Y4dO1RaWqq8vDwZY4j+HyD8AQAAAAuwuBcAAACwAOEPAAAAWIDwBwAAACxA+AMAAAAWIPwBAAAACxD+AAAAgAUIfwAAAMAChD8AAABgAcIfAAAAsADhDwAAAFiA8AcAAAAs8B/XLdvww6RSGAAAAABJRU5ErkJggg==;fontStyle=1" parent="1" vertex="1">
                    <mxGeometry x="60" y="50" width="470.73" height="330" as="geometry"/>
                </mxCell>
            </root>
        </mxGraphModel>
    </diagram>
</mxfile>